<svg width="34" height="38" viewBox="0 0 34 38" fill="none" xmlns="http://www.w3.org/2000/svg">
<path d="M3.64645 37.3536C3.84171 37.5488 4.15829 37.5488 4.35355 37.3536L7.53553 34.1716C7.7308 33.9763 7.7308 33.6597 7.53553 33.4645C7.34027 33.2692 7.02369 33.2692 6.82843 33.4645L4 36.2929L1.17157 33.4645C0.976311 33.2692 0.659728 33.2692 0.464466 33.4645C0.269204 33.6597 0.269204 33.9763 0.464466 34.1716L3.64645 37.3536ZM4.5 37C4.5 36.6692 4.50322 36.3412 4.50958 36.0161L3.50977 35.9965C3.50328 36.3282 3.5 36.6627 3.5 37H4.5ZM4.58639 34.0774C4.62581 33.4214 4.67845 32.7776 4.74371 32.1459L3.74901 32.0431C3.68225 32.6893 3.62846 33.3473 3.58819 34.0174L4.58639 34.0774ZM4.98617 30.2235C5.08355 29.5721 5.19478 28.9343 5.31915 28.3099L4.33841 28.1146C4.21088 28.7549 4.0969 29.4085 3.99716 30.0756L4.98617 30.2235ZM5.74561 26.4178C5.90625 25.7813 6.08098 25.1596 6.26894 24.5525L5.31367 24.2567C5.12046 24.8808 4.94096 25.5195 4.77602 26.1731L5.74561 26.4178ZM6.89181 22.7199C7.11959 22.1062 7.36132 21.5085 7.61599 20.9265L6.69987 20.5256C6.43756 21.125 6.1887 21.7404 5.9543 22.3719L6.89181 22.7199ZM8.44219 19.1794C8.73905 18.5966 9.04928 18.031 9.37168 17.4822L8.50944 16.9757C8.17697 17.5417 7.85713 18.1248 7.55115 18.7254L8.44219 19.1794ZM10.4018 15.8443C10.766 15.3026 11.1423 14.779 11.5293 14.2729L10.7349 13.6655C10.3357 14.1875 9.94756 14.7277 9.57194 15.2864L10.4018 15.8443ZM12.7498 12.7738C13.1762 12.2814 13.6129 11.8077 14.0582 11.3522L13.3431 10.6531C12.884 11.1228 12.4337 11.6113 11.9939 12.1192L12.7498 12.7738ZM15.4495 10.0114C15.9329 9.5724 16.424 9.15281 16.921 8.752L16.2932 7.9736C15.7814 8.38641 15.2754 8.81869 14.7772 9.27105L15.4495 10.0114ZM18.4617 7.58094C18.9923 7.20109 19.5273 6.84117 20.0645 6.5005L19.5289 5.656C18.9763 6.00647 18.4258 6.37684 17.8796 6.76783L18.4617 7.58094ZM21.7301 5.5079C22.3026 5.18781 22.8751 4.88865 23.4451 4.6096L23.0054 3.71145C22.4194 3.99833 21.8308 4.30592 21.2421 4.63507L21.7301 5.5079ZM25.207 3.8057C25.8153 3.54795 26.4174 3.31281 27.0102 3.09928L26.6713 2.15846C26.0615 2.37813 25.4422 2.61995 24.8168 2.88496L25.207 3.8057ZM28.8502 2.49468C29.49 2.30466 30.1135 2.14059 30.716 2.00097L30.4903 1.02678C29.8677 1.17104 29.2246 1.34031 28.5655 1.53607L28.8502 2.49468ZM32.607 1.62938C32.9339 1.57716 33.2516 1.53298 33.5589 1.49652L33.4411 0.503482C33.12 0.54158 32.7891 0.587625 32.4493 0.6419L32.607 1.62938Z" fill="black"/>
</svg>
