<svg width="240" height="59" viewBox="0 0 240 59" fill="none" xmlns="http://www.w3.org/2000/svg">
<path d="M52.6315 1.22007C53.8075 1.22007 54.7615 1.52007 55.4935 2.12007C56.2255 2.72007 56.5915 3.62607 56.5915 4.83807C56.5915 5.47407 56.4535 6.08607 56.1775 6.67407C55.9015 7.25007 55.4635 7.72407 54.8635 8.09607C54.2755 8.45607 53.5015 8.63607 52.5415 8.63607H50.5615V14.0001H49.6795V1.22007H52.6315ZM52.5415 7.79007C53.1655 7.79007 53.6815 7.69407 54.0895 7.50207C54.5095 7.29807 54.8335 7.04607 55.0615 6.74607C55.3015 6.43407 55.4695 6.11007 55.5655 5.77407C55.6735 5.43807 55.7275 5.12607 55.7275 4.83807C55.7275 4.02207 55.4635 3.35607 54.9355 2.84007C54.4195 2.32407 53.6815 2.06607 52.7215 2.06607H50.5615V7.79007H52.5415Z" fill="#363636"/>
<path d="M58.8903 10.4361C58.8903 9.75207 59.0523 9.12807 59.3763 8.56407C59.7123 8.00007 60.1623 7.55607 60.7263 7.23207C61.3023 6.89607 61.9443 6.72807 62.6523 6.72807C63.3723 6.72807 64.0143 6.89607 64.5783 7.23207C65.1423 7.55607 65.5863 8.00007 65.9103 8.56407C66.2343 9.12807 66.3963 9.75207 66.3963 10.4361C66.3963 11.1201 66.2343 11.7441 65.9103 12.3081C65.5863 12.8721 65.1363 13.3221 64.5603 13.6581C63.9963 13.9821 63.3543 14.1441 62.6343 14.1441C61.9263 14.1441 61.2903 13.9881 60.7263 13.6761C60.1623 13.3521 59.7123 12.9141 59.3763 12.3621C59.0523 11.7981 58.8903 11.1561 58.8903 10.4361ZM59.7363 10.4541C59.7363 11.0061 59.8623 11.5101 60.1143 11.9661C60.3783 12.4101 60.7263 12.7641 61.1583 13.0281C61.6023 13.2921 62.0943 13.4241 62.6343 13.4241C63.1743 13.4241 63.6603 13.2921 64.0923 13.0281C64.5363 12.7641 64.8843 12.4101 65.1363 11.9661C65.4003 11.5101 65.5323 11.0061 65.5323 10.4541C65.5323 9.90207 65.4003 9.40407 65.1363 8.96007C64.8843 8.50407 64.5363 8.14407 64.0923 7.88007C63.6603 7.60407 63.1743 7.46607 62.6343 7.46607C62.0823 7.46607 61.5843 7.61007 61.1403 7.89807C60.7083 8.17407 60.3663 8.54007 60.1143 8.99607C59.8623 9.45207 59.7363 9.93807 59.7363 10.4541Z" fill="#363636"/>
<path d="M69.4483 7.66407C69.1363 7.66407 68.8783 7.59207 68.6743 7.44807C68.4703 7.29207 68.3683 7.02207 68.3683 6.63807V6.29607H69.0343V6.51207C69.0343 6.81207 69.2383 6.96207 69.6463 6.96207H74.2003L69.7543 13.2801H74.1283V14.0001H68.3143L72.7783 7.66407H69.4483Z" fill="#363636"/>
<path d="M77.6436 6.96207L77.7156 8.52807C77.9556 7.97607 78.3456 7.54407 78.8856 7.23207C79.4376 6.92007 80.0376 6.76407 80.6856 6.76407C81.3456 6.76407 81.8796 6.96207 82.2876 7.35807C82.6956 7.74207 82.9056 8.24607 82.9176 8.87007V14.0001H82.0536V9.10407C82.0416 8.64807 81.8976 8.27007 81.6216 7.97007C81.3456 7.67007 80.9436 7.51407 80.4156 7.50207C79.9476 7.50207 79.5096 7.61607 79.1016 7.84407C78.6936 8.07207 78.3636 8.39007 78.1116 8.79807C77.8716 9.20607 77.7516 9.68007 77.7516 10.2201V14.0001H76.9056V6.96207H77.6436Z" fill="#363636"/>
<path d="M89.3925 14.1441C88.7205 14.1441 88.1085 13.9941 87.5565 13.6941C87.0165 13.3821 86.5845 12.9501 86.2605 12.3981C85.9485 11.8461 85.7925 11.2041 85.7925 10.4721C85.7925 9.69207 85.9605 9.02607 86.2965 8.47407C86.6325 7.91007 87.0885 7.48407 87.6645 7.19607C88.2405 6.89607 88.8945 6.74607 89.6265 6.74607C90.2025 6.74607 90.7545 6.91407 91.2825 7.25007C91.8225 7.57407 92.2245 7.98807 92.4885 8.49207L92.5785 6.96207H93.3345V14.0001H92.4885V12.5061C92.2245 12.9261 91.8165 13.3041 91.2645 13.6401C90.7125 13.9761 90.0885 14.1441 89.3925 14.1441ZM89.5725 13.4241C90.1005 13.4241 90.5745 13.3161 90.9945 13.1001C91.4265 12.8721 91.7745 12.5601 92.0385 12.1641C92.3025 11.7681 92.4525 11.3121 92.4885 10.7961V9.78807C92.3925 9.34407 92.2005 8.94807 91.9125 8.60007C91.6365 8.25207 91.2945 7.97607 90.8865 7.77207C90.4785 7.56807 90.0345 7.46607 89.5545 7.46607C89.0265 7.46607 88.5405 7.59207 88.0965 7.84407C87.6525 8.08407 87.2985 8.42607 87.0345 8.87007C86.7705 9.31407 86.6385 9.83607 86.6385 10.4361C86.6385 10.9881 86.7705 11.4921 87.0345 11.9481C87.2985 12.3921 87.6525 12.7521 88.0965 13.0281C88.5525 13.2921 89.0445 13.4241 89.5725 13.4241Z" fill="#363636"/>
<path d="M96.5852 17.3841L96.0452 16.8621C96.3572 16.5501 96.6032 16.1601 96.7832 15.6921C96.9752 15.2241 97.0712 14.6961 97.0712 14.1081V6.96207H97.9352V14.0901C97.9352 15.5781 97.4852 16.6761 96.5852 17.3841ZM96.8912 4.37007C96.8912 4.20207 96.9572 4.06407 97.0892 3.95607C97.2212 3.83607 97.3652 3.77607 97.5212 3.77607C97.6892 3.77607 97.8332 3.83607 97.9532 3.95607C98.0732 4.06407 98.1332 4.20207 98.1332 4.37007C98.1332 4.55007 98.0732 4.70007 97.9532 4.82007C97.8332 4.92807 97.6892 4.98207 97.5212 4.98207C97.3652 4.98207 97.2212 4.92207 97.0892 4.80207C96.9572 4.68207 96.8912 4.53807 96.8912 4.37007Z" fill="#363636"/>
<path d="M107.894 6.96207L107.966 8.52807C108.206 7.97607 108.596 7.54407 109.136 7.23207C109.688 6.92007 110.288 6.76407 110.936 6.76407C111.596 6.76407 112.13 6.96207 112.538 7.35807C112.946 7.74207 113.156 8.24607 113.168 8.87007V14.0001H112.304V9.10407C112.292 8.64807 112.148 8.27007 111.872 7.97007C111.596 7.67007 111.194 7.51407 110.666 7.50207C110.198 7.50207 109.76 7.61607 109.352 7.84407C108.944 8.07207 108.614 8.39007 108.362 8.79807C108.122 9.20607 108.002 9.68007 108.002 10.2201V14.0001H107.156V6.96207H107.894Z" fill="#363636"/>
<path d="M119.643 14.1441C118.971 14.1441 118.359 13.9941 117.807 13.6941C117.267 13.3821 116.835 12.9501 116.511 12.3981C116.199 11.8461 116.043 11.2041 116.043 10.4721C116.043 9.69207 116.211 9.02607 116.547 8.47407C116.883 7.91007 117.339 7.48407 117.915 7.19607C118.491 6.89607 119.145 6.74607 119.877 6.74607C120.453 6.74607 121.005 6.91407 121.533 7.25007C122.073 7.57407 122.475 7.98807 122.739 8.49207L122.829 6.96207H123.585V14.0001H122.739V12.5061C122.475 12.9261 122.067 13.3041 121.515 13.6401C120.963 13.9761 120.339 14.1441 119.643 14.1441ZM119.823 13.4241C120.351 13.4241 120.825 13.3161 121.245 13.1001C121.677 12.8721 122.025 12.5601 122.289 12.1641C122.553 11.7681 122.703 11.3121 122.739 10.7961V9.78807C122.643 9.34407 122.451 8.94807 122.163 8.60007C121.887 8.25207 121.545 7.97607 121.137 7.77207C120.729 7.56807 120.285 7.46607 119.805 7.46607C119.277 7.46607 118.791 7.59207 118.347 7.84407C117.903 8.08407 117.549 8.42607 117.285 8.87007C117.021 9.31407 116.889 9.83607 116.889 10.4361C116.889 10.9881 117.021 11.4921 117.285 11.9481C117.549 12.3921 117.903 12.7521 118.347 13.0281C118.803 13.2921 119.295 13.4241 119.823 13.4241Z" fill="#363636"/>
<path d="M128.798 14.1441C128.39 14.1441 127.964 14.0721 127.52 13.9281C127.076 13.7721 126.716 13.5261 126.44 13.1901L126.836 12.6321C127.076 12.8841 127.358 13.0881 127.682 13.2441C128.018 13.3881 128.372 13.4601 128.744 13.4601C129.152 13.4601 129.524 13.3641 129.86 13.1721C130.196 12.9801 130.364 12.6441 130.364 12.1641C130.364 11.8281 130.268 11.5701 130.076 11.3901C129.896 11.2101 129.662 11.0661 129.374 10.9581C129.098 10.8381 128.804 10.7301 128.492 10.6341C127.976 10.4661 127.55 10.2381 127.214 9.95007C126.89 9.66207 126.728 9.25407 126.728 8.72607C126.728 8.15007 126.926 7.68807 127.322 7.34007C127.73 6.98007 128.246 6.80007 128.87 6.80007C129.242 6.80007 129.608 6.86007 129.968 6.98007C130.34 7.10007 130.676 7.30407 130.976 7.59207L130.598 8.18607C130.406 7.92207 130.148 7.74207 129.824 7.64607C129.512 7.55007 129.236 7.49607 128.996 7.48407C128.684 7.48407 128.366 7.58007 128.042 7.77207C127.73 7.95207 127.574 8.23407 127.574 8.61807C127.574 8.89407 127.652 9.12207 127.808 9.30207C127.964 9.47007 128.162 9.60807 128.402 9.71607C128.654 9.82407 128.912 9.92607 129.176 10.0221C129.524 10.1301 129.848 10.2621 130.148 10.4181C130.46 10.5621 130.712 10.7601 130.904 11.0121C131.108 11.2521 131.21 11.5761 131.21 11.9841C131.21 12.6081 131.006 13.1241 130.598 13.5321C130.202 13.9401 129.602 14.1441 128.798 14.1441Z" fill="#363636"/>
<path d="M140.008 0.320068H140.854V14.0001H140.008V0.320068Z" fill="#363636"/>
<path d="M147.471 14.1441C146.739 14.1441 146.091 13.9821 145.527 13.6581C144.963 13.3341 144.519 12.8961 144.195 12.3441C143.883 11.7801 143.727 11.1501 143.727 10.4541C143.727 9.77007 143.895 9.14607 144.231 8.58207C144.567 8.01807 145.017 7.56807 145.581 7.23207C146.157 6.89607 146.793 6.72807 147.489 6.72807C148.329 6.72807 149.031 6.97407 149.595 7.46607C150.171 7.95807 150.585 8.60007 150.837 9.39207L144.825 11.7141C145.053 12.2061 145.395 12.6141 145.851 12.9381C146.319 13.2501 146.865 13.4061 147.489 13.4061C147.873 13.4061 148.239 13.3341 148.587 13.1901C148.947 13.0461 149.265 12.8601 149.541 12.6321L149.973 13.2441C149.637 13.5081 149.247 13.7241 148.803 13.8921C148.371 14.0601 147.927 14.1441 147.471 14.1441ZM144.555 10.4181C144.555 10.6461 144.579 10.8681 144.627 11.0841L149.811 9.05007C149.595 8.61807 149.289 8.24607 148.893 7.93407C148.497 7.61007 148.011 7.44807 147.435 7.44807C146.895 7.44807 146.409 7.58007 145.977 7.84407C145.545 8.10807 145.197 8.46207 144.933 8.90607C144.681 9.35007 144.555 9.85407 144.555 10.4181Z" fill="#363636"/>
<path d="M157.431 14.1441C156.807 14.1441 156.219 13.9941 155.667 13.6941C155.115 13.3941 154.689 12.9981 154.389 12.5061V17.3841H153.543V6.90807H154.299L154.353 8.47407C154.689 7.95807 155.139 7.54407 155.703 7.23207C156.279 6.90807 156.897 6.74607 157.557 6.74607C158.229 6.74607 158.835 6.90807 159.375 7.23207C159.915 7.55607 160.341 8.00007 160.653 8.56407C160.977 9.11607 161.139 9.75207 161.139 10.4721C161.139 11.1801 160.971 11.8161 160.635 12.3801C160.311 12.9321 159.867 13.3641 159.303 13.6761C158.751 13.9881 158.127 14.1441 157.431 14.1441ZM157.287 13.4421C157.839 13.4421 158.337 13.3101 158.781 13.0461C159.237 12.7821 159.597 12.4281 159.861 11.9841C160.137 11.5281 160.275 11.0241 160.275 10.4721C160.275 9.90807 160.143 9.40407 159.879 8.96007C159.615 8.50407 159.261 8.14407 158.817 7.88007C158.385 7.61607 157.893 7.48407 157.341 7.48407C156.813 7.48407 156.333 7.60407 155.901 7.84407C155.469 8.08407 155.121 8.40807 154.857 8.81607C154.593 9.22407 154.437 9.68607 154.389 10.2021V10.7781C154.425 11.2701 154.575 11.7201 154.839 12.1281C155.115 12.5361 155.463 12.8601 155.883 13.1001C156.315 13.3281 156.783 13.4421 157.287 13.4421Z" fill="#363636"/>
<path d="M164.01 6.96207H164.856V14.0001H164.01V6.96207ZM163.83 4.37007C163.83 4.20207 163.896 4.06407 164.028 3.95607C164.16 3.83607 164.304 3.77607 164.46 3.77607C164.628 3.77607 164.772 3.83607 164.892 3.95607C165.012 4.06407 165.072 4.20207 165.072 4.37007C165.072 4.55007 165.012 4.70007 164.892 4.82007C164.772 4.92807 164.628 4.98207 164.46 4.98207C164.304 4.98207 164.16 4.92207 164.028 4.80207C163.896 4.68207 163.83 4.53807 163.83 4.37007Z" fill="#363636"/>
<path d="M171.473 14.1441C170.741 14.1441 170.093 13.9821 169.529 13.6581C168.965 13.3341 168.521 12.8961 168.197 12.3441C167.885 11.7801 167.729 11.1501 167.729 10.4541C167.729 9.77007 167.897 9.14607 168.233 8.58207C168.569 8.01807 169.019 7.56807 169.583 7.23207C170.159 6.89607 170.795 6.72807 171.491 6.72807C172.331 6.72807 173.033 6.97407 173.597 7.46607C174.173 7.95807 174.587 8.60007 174.839 9.39207L168.827 11.7141C169.055 12.2061 169.397 12.6141 169.853 12.9381C170.321 13.2501 170.867 13.4061 171.491 13.4061C171.875 13.4061 172.241 13.3341 172.589 13.1901C172.949 13.0461 173.267 12.8601 173.543 12.6321L173.975 13.2441C173.639 13.5081 173.249 13.7241 172.805 13.8921C172.373 14.0601 171.929 14.1441 171.473 14.1441ZM168.557 10.4181C168.557 10.6461 168.581 10.8681 168.629 11.0841L173.813 9.05007C173.597 8.61807 173.291 8.24607 172.895 7.93407C172.499 7.61007 172.013 7.44807 171.437 7.44807C170.897 7.44807 170.411 7.58007 169.979 7.84407C169.547 8.10807 169.199 8.46207 168.935 8.90607C168.683 9.35007 168.557 9.85407 168.557 10.4181Z" fill="#363636"/>
<path d="M177.239 17.3841L176.699 16.8621C177.011 16.5501 177.257 16.1601 177.437 15.6921C177.629 15.2241 177.725 14.6961 177.725 14.1081V6.96207H178.589V14.0901C178.589 15.5781 178.139 16.6761 177.239 17.3841ZM177.545 4.37007C177.545 4.20207 177.611 4.06407 177.743 3.95607C177.875 3.83607 178.019 3.77607 178.175 3.77607C178.343 3.77607 178.487 3.83607 178.607 3.95607C178.727 4.06407 178.787 4.20207 178.787 4.37007C178.787 4.55007 178.727 4.70007 178.607 4.82007C178.487 4.92807 178.343 4.98207 178.175 4.98207C178.019 4.98207 177.875 4.92207 177.743 4.80207C177.611 4.68207 177.545 4.53807 177.545 4.37007Z" fill="#363636"/>
<path d="M187.81 6.96207H188.656V14.0001H187.81V6.96207ZM187.63 4.37007C187.63 4.20207 187.695 4.06407 187.827 3.95607C187.959 3.83607 188.104 3.77607 188.26 3.77607C188.428 3.77607 188.571 3.83607 188.691 3.95607C188.811 4.06407 188.872 4.20207 188.872 4.37007C188.872 4.55007 188.811 4.70007 188.691 4.82007C188.571 4.92807 188.428 4.98207 188.26 4.98207C188.104 4.98207 187.959 4.92207 187.827 4.80207C187.695 4.68207 187.63 4.53807 187.63 4.37007Z" fill="#363636"/>
<path d="M202.052 6.96207L204.626 12.7401L207.092 6.96207H207.956L204.644 14.4321L202.376 9.42807L200.306 14.4321L196.994 6.96207H197.84L200.378 12.6861L202.052 8.63607L201.278 6.96207H202.052Z" fill="#363636"/>
<path d="M213.395 14.1441C212.663 14.1441 212.015 13.9821 211.451 13.6581C210.887 13.3341 210.443 12.8961 210.119 12.3441C209.807 11.7801 209.651 11.1501 209.651 10.4541C209.651 9.77007 209.819 9.14607 210.155 8.58207C210.491 8.01807 210.941 7.56807 211.505 7.23207C212.081 6.89607 212.717 6.72807 213.413 6.72807C214.253 6.72807 214.955 6.97407 215.519 7.46607C216.095 7.95807 216.509 8.60007 216.761 9.39207L210.749 11.7141C210.977 12.2061 211.319 12.6141 211.775 12.9381C212.243 13.2501 212.789 13.4061 213.413 13.4061C213.797 13.4061 214.163 13.3341 214.511 13.1901C214.871 13.0461 215.189 12.8601 215.465 12.6321L215.897 13.2441C215.561 13.5081 215.171 13.7241 214.727 13.8921C214.295 14.0601 213.851 14.1441 213.395 14.1441ZM210.479 10.4181C210.479 10.6461 210.503 10.8681 210.551 11.0841L215.735 9.05007C215.519 8.61807 215.213 8.24607 214.817 7.93407C214.421 7.61007 213.935 7.44807 213.359 7.44807C212.819 7.44807 212.333 7.58007 211.901 7.84407C211.469 8.10807 211.121 8.46207 210.857 8.90607C210.605 9.35007 210.479 9.85407 210.479 10.4181Z" fill="#363636"/>
<path d="M219.16 17.3841L218.62 16.8621C218.932 16.5501 219.178 16.1601 219.358 15.6921C219.55 15.2241 219.646 14.6961 219.646 14.1081V6.96207H220.51V14.0901C220.51 15.5781 220.06 16.6761 219.16 17.3841ZM219.466 4.37007C219.466 4.20207 219.532 4.06407 219.664 3.95607C219.796 3.83607 219.94 3.77607 220.096 3.77607C220.264 3.77607 220.408 3.83607 220.528 3.95607C220.648 4.06407 220.708 4.20207 220.708 4.37007C220.708 4.55007 220.648 4.70007 220.528 4.82007C220.408 4.92807 220.264 4.98207 220.096 4.98207C219.94 4.98207 219.796 4.92207 219.664 4.80207C219.532 4.68207 219.466 4.53807 219.466 4.37007Z" fill="#363636"/>
<path d="M226.732 14.1441C226.072 14.1441 225.472 13.9881 224.932 13.6761C224.392 13.3521 223.96 12.9081 223.636 12.3441C223.324 11.7801 223.168 11.1441 223.168 10.4361C223.168 9.68007 223.33 9.02607 223.654 8.47407C223.978 7.92207 224.416 7.49607 224.968 7.19607C225.532 6.89607 226.15 6.74607 226.822 6.74607C227.446 6.74607 228.04 6.89607 228.604 7.19607C229.168 7.49607 229.606 7.89207 229.918 8.38407V0.320068H230.764V14.0001H229.9V12.5421C229.576 13.0221 229.132 13.4121 228.568 13.7121C228.004 14.0001 227.392 14.1441 226.732 14.1441ZM226.948 13.4061C227.488 13.4061 227.974 13.2921 228.406 13.0641C228.838 12.8241 229.186 12.5061 229.45 12.1101C229.714 11.7021 229.864 11.2461 229.9 10.7421V9.84207C229.816 9.38607 229.63 8.97807 229.342 8.61807C229.054 8.25807 228.706 7.97607 228.298 7.77207C227.89 7.55607 227.44 7.44807 226.948 7.44807C226.408 7.44807 225.916 7.57407 225.472 7.82607C225.028 8.07807 224.674 8.42607 224.41 8.87007C224.146 9.31407 224.014 9.83007 224.014 10.4181C224.014 10.9701 224.146 11.4741 224.41 11.9301C224.674 12.3741 225.028 12.7341 225.472 13.0101C225.928 13.2741 226.42 13.4061 226.948 13.4061Z" fill="#363636"/>
<path d="M234.499 7.66407C234.187 7.66407 233.929 7.59207 233.725 7.44807C233.521 7.29207 233.419 7.02207 233.419 6.63807V6.29607H234.085V6.51207C234.085 6.81207 234.289 6.96207 234.697 6.96207H239.251L234.805 13.2801H239.179V14.0001H233.365L237.829 7.66407H234.499ZM237.919 3.20007L236.011 5.59407H235.399L236.965 3.20007H237.919Z" fill="#363636"/>
<path d="M51.602 30.9621L51.674 32.5281C51.914 31.9761 52.304 31.5441 52.844 31.2321C53.396 30.9201 53.996 30.7641 54.644 30.7641C55.304 30.7641 55.838 30.9621 56.246 31.3581C56.654 31.7421 56.864 32.2461 56.876 32.8701V38.0001H56.012V33.1041C56 32.6481 55.856 32.2701 55.58 31.9701C55.304 31.6701 54.902 31.5141 54.374 31.5021C53.906 31.5021 53.468 31.6161 53.06 31.8441C52.652 32.0721 52.322 32.3901 52.07 32.7981C51.83 33.2061 51.71 33.6801 51.71 34.2201V38.0001H50.864V30.9621H51.602Z" fill="#363636"/>
<path d="M63.3509 38.1441C62.6789 38.1441 62.0669 37.9941 61.5149 37.6941C60.9749 37.3821 60.5429 36.9501 60.2189 36.3981C59.9069 35.8461 59.7509 35.2041 59.7509 34.4721C59.7509 33.6921 59.9189 33.0261 60.2549 32.4741C60.5909 31.9101 61.0469 31.4841 61.6229 31.1961C62.1989 30.8961 62.8529 30.7461 63.5849 30.7461C64.1609 30.7461 64.7129 30.9141 65.2409 31.2501C65.7809 31.5741 66.1829 31.9881 66.4469 32.4921L66.5369 30.9621H67.2929V38.0001H66.4469V36.5061C66.1829 36.9261 65.7749 37.3041 65.2229 37.6401C64.6709 37.9761 64.0469 38.1441 63.3509 38.1441ZM63.5309 37.4241C64.0589 37.4241 64.5329 37.3161 64.9529 37.1001C65.3849 36.8721 65.7329 36.5601 65.9969 36.1641C66.2609 35.7681 66.4109 35.3121 66.4469 34.7961V33.7881C66.3509 33.3441 66.1589 32.9481 65.8709 32.6001C65.5949 32.2521 65.2529 31.9761 64.8449 31.7721C64.4369 31.5681 63.9929 31.4661 63.5129 31.4661C62.9849 31.4661 62.4989 31.5921 62.0549 31.8441C61.6109 32.0841 61.2569 32.4261 60.9929 32.8701C60.7289 33.3141 60.5969 33.8361 60.5969 34.4361C60.5969 34.9881 60.7289 35.4921 60.9929 35.9481C61.2569 36.3921 61.6109 36.7521 62.0549 37.0281C62.5109 37.2921 63.0029 37.4241 63.5309 37.4241Z" fill="#363636"/>
<path d="M77.4671 30.9621L77.5391 32.5281C77.7791 31.9761 78.1691 31.5441 78.7091 31.2321C79.2611 30.9201 79.8611 30.7641 80.5091 30.7641C81.1691 30.7641 81.7031 30.9621 82.1111 31.3581C82.5191 31.7421 82.7291 32.2461 82.7411 32.8701V38.0001H81.8771V33.1041C81.8651 32.6481 81.7211 32.2701 81.4451 31.9701C81.1691 31.6701 80.7671 31.5141 80.2391 31.5021C79.7711 31.5021 79.3331 31.6161 78.9251 31.8441C78.5171 32.0721 78.1871 32.3901 77.9351 32.7981C77.6951 33.2061 77.5751 33.6801 77.5751 34.2201V38.0001H76.7291V30.9621H77.4671Z" fill="#363636"/>
<path d="M89.2161 38.1441C88.5441 38.1441 87.9321 37.9941 87.3801 37.6941C86.8401 37.3821 86.4081 36.9501 86.0841 36.3981C85.7721 35.8461 85.6161 35.2041 85.6161 34.4721C85.6161 33.6921 85.7841 33.0261 86.1201 32.4741C86.4561 31.9101 86.9121 31.4841 87.4881 31.1961C88.0641 30.8961 88.7181 30.7461 89.4501 30.7461C90.0261 30.7461 90.5781 30.9141 91.1061 31.2501C91.6461 31.5741 92.0481 31.9881 92.312 32.4921L92.4021 30.9621H93.1581V38.0001H92.312V36.5061C92.0481 36.9261 91.6401 37.3041 91.0881 37.6401C90.5361 37.9761 89.9121 38.1441 89.2161 38.1441ZM89.3961 37.4241C89.9241 37.4241 90.3981 37.3161 90.8181 37.1001C91.2501 36.8721 91.5981 36.5601 91.8621 36.1641C92.1261 35.7681 92.276 35.3121 92.312 34.7961V33.7881C92.2161 33.3441 92.0241 32.9481 91.7361 32.6001C91.4601 32.2521 91.1181 31.9761 90.7101 31.7721C90.3021 31.5681 89.8581 31.4661 89.3781 31.4661C88.8501 31.4661 88.3641 31.5921 87.9201 31.8441C87.4761 32.0841 87.1221 32.4261 86.8581 32.8701C86.5941 33.3141 86.4621 33.8361 86.4621 34.4361C86.4621 34.9881 86.5941 35.4921 86.8581 35.9481C87.1221 36.3921 87.4761 36.7521 87.9201 37.0281C88.3761 37.2921 88.8681 37.4241 89.3961 37.4241Z" fill="#363636"/>
<path d="M98.3707 38.1441C97.9627 38.1441 97.5367 38.0721 97.0927 37.9281C96.6487 37.7721 96.2887 37.5261 96.0127 37.1901L96.4087 36.6321C96.6487 36.8841 96.9307 37.0881 97.2547 37.2441C97.5907 37.3881 97.9447 37.4601 98.3167 37.4601C98.7247 37.4601 99.0967 37.3641 99.4327 37.1721C99.7687 36.9801 99.9367 36.6441 99.9367 36.1641C99.9367 35.8281 99.8407 35.5701 99.6487 35.3901C99.4687 35.2101 99.2347 35.0661 98.9467 34.9581C98.6707 34.8381 98.3767 34.7301 98.0647 34.6341C97.5487 34.4661 97.1227 34.2381 96.7867 33.9501C96.4627 33.6621 96.3007 33.2541 96.3007 32.7261C96.3007 32.1501 96.4987 31.6881 96.8947 31.3401C97.3027 30.9801 97.8187 30.8001 98.4427 30.8001C98.8147 30.8001 99.1807 30.8601 99.5407 30.9801C99.9127 31.1001 100.249 31.3041 100.549 31.5921L100.171 32.1861C99.9787 31.9221 99.7207 31.7421 99.3967 31.6461C99.0847 31.5501 98.8087 31.4961 98.5687 31.4841C98.2567 31.4841 97.9387 31.5801 97.6147 31.7721C97.3027 31.9521 97.1467 32.2341 97.1467 32.6181C97.1467 32.8941 97.2247 33.1221 97.3807 33.3021C97.5367 33.4701 97.7347 33.6081 97.9747 33.7161C98.2267 33.8241 98.4847 33.9261 98.7487 34.0221C99.0967 34.1301 99.4207 34.2621 99.7207 34.4181C100.033 34.5621 100.285 34.7601 100.477 35.0121C100.681 35.2521 100.783 35.5761 100.783 35.9841C100.783 36.6081 100.579 37.1241 100.171 37.5321C99.7747 37.9401 99.1747 38.1441 98.3707 38.1441Z" fill="#363636"/>
<path d="M103.882 31.6641C103.57 31.6641 103.312 31.5921 103.108 31.4481C102.904 31.2921 102.802 31.0221 102.802 30.6381V30.2961H103.468V30.5121C103.468 30.8121 103.672 30.9621 104.08 30.9621H108.634L104.188 37.2801H108.562V38.0001H102.748L107.212 31.6641H103.882Z" fill="#363636"/>
<path d="M114.399 38.1441C113.667 38.1441 113.019 37.9821 112.455 37.6581C111.891 37.3341 111.447 36.8961 111.123 36.3441C110.811 35.7801 110.655 35.1501 110.655 34.4541C110.655 33.7701 110.823 33.1461 111.159 32.5821C111.495 32.0181 111.945 31.5681 112.509 31.2321C113.085 30.8961 113.721 30.7281 114.417 30.7281C115.257 30.7281 115.959 30.9741 116.523 31.4661C117.099 31.9581 117.513 32.6001 117.765 33.3921L111.753 35.7141C111.981 36.2061 112.323 36.6141 112.779 36.9381C113.247 37.2501 113.793 37.4061 114.417 37.4061C114.801 37.4061 115.167 37.3341 115.515 37.1901C115.875 37.0461 116.193 36.8601 116.469 36.6321L116.901 37.2441C116.565 37.5081 116.175 37.7241 115.731 37.8921C115.299 38.0601 114.855 38.1441 114.399 38.1441ZM111.483 34.4181C111.483 34.6461 111.507 34.8681 111.555 35.0841L116.739 33.0501C116.523 32.6181 116.217 32.2461 115.821 31.9341C115.425 31.6101 114.939 31.4481 114.363 31.4481C113.823 31.4481 113.337 31.5801 112.905 31.8441C112.473 32.1081 112.125 32.4621 111.861 32.9061C111.609 33.3501 111.483 33.8541 111.483 34.4181Z" fill="#363636"/>
<path d="M123.603 41.4381C123.015 41.4381 122.463 41.3301 121.947 41.1141C121.431 40.8981 120.891 40.5261 120.327 39.9981L120.831 39.4221C121.347 39.9141 121.827 40.2441 122.271 40.4121C122.715 40.5921 123.147 40.6821 123.567 40.6821C124.299 40.6821 124.881 40.5621 125.313 40.3221C125.745 40.0941 126.057 39.7821 126.249 39.3861C126.441 39.0021 126.543 38.5701 126.555 38.0901L126.573 36.4341C126.273 36.9501 125.835 37.3641 125.259 37.6761C124.695 37.9881 124.071 38.1441 123.387 38.1441C122.727 38.1441 122.121 37.9821 121.569 37.6581C121.029 37.3221 120.597 36.8781 120.273 36.3261C119.949 35.7621 119.787 35.1381 119.787 34.4541C119.787 33.7221 119.955 33.0801 120.291 32.5281C120.627 31.9761 121.083 31.5441 121.659 31.2321C122.235 30.9081 122.871 30.7461 123.567 30.7461C124.179 30.7461 124.767 30.9021 125.331 31.2141C125.895 31.5141 126.315 31.9161 126.591 32.4201L126.663 30.9621H127.419V38.1081C127.419 38.6841 127.287 39.2241 127.023 39.7281C126.771 40.2441 126.363 40.6581 125.799 40.9701C125.247 41.2821 124.515 41.4381 123.603 41.4381ZM120.633 34.4361C120.633 34.9881 120.765 35.4921 121.029 35.9481C121.293 36.3921 121.647 36.7521 122.091 37.0281C122.547 37.2921 123.051 37.4241 123.603 37.4241C124.131 37.4241 124.611 37.3101 125.043 37.0821C125.475 36.8421 125.829 36.5241 126.105 36.1281C126.381 35.7321 126.537 35.3061 126.573 34.8501V33.8061C126.429 33.1341 126.081 32.5761 125.529 32.1321C124.977 31.6881 124.335 31.4661 123.603 31.4661C123.051 31.4661 122.547 31.5921 122.091 31.8441C121.647 32.0961 121.293 32.4441 121.029 32.8881C120.765 33.3321 120.633 33.8481 120.633 34.4361Z" fill="#363636"/>
<path d="M130.307 34.4361C130.307 33.7521 130.469 33.1281 130.793 32.5641C131.129 32.0001 131.579 31.5561 132.143 31.2321C132.719 30.8961 133.361 30.7281 134.069 30.7281C134.789 30.7281 135.431 30.8961 135.995 31.2321C136.559 31.5561 137.003 32.0001 137.327 32.5641C137.651 33.1281 137.813 33.7521 137.813 34.4361C137.813 35.1201 137.651 35.7441 137.327 36.3081C137.003 36.8721 136.553 37.3221 135.977 37.6581C135.413 37.9821 134.771 38.1441 134.051 38.1441C133.343 38.1441 132.707 37.9881 132.143 37.6761C131.579 37.3521 131.129 36.9141 130.793 36.3621C130.469 35.7981 130.307 35.1561 130.307 34.4361ZM131.153 34.4541C131.153 35.0061 131.279 35.5101 131.531 35.9661C131.795 36.4101 132.143 36.7641 132.575 37.0281C133.019 37.2921 133.511 37.4241 134.051 37.4241C134.591 37.4241 135.077 37.2921 135.509 37.0281C135.953 36.7641 136.301 36.4101 136.553 35.9661C136.817 35.5101 136.949 35.0061 136.949 34.4541C136.949 33.9021 136.817 33.4041 136.553 32.9601C136.301 32.5041 135.953 32.1441 135.509 31.8801C135.077 31.6041 134.591 31.4661 134.051 31.4661C133.499 31.4661 133.001 31.6101 132.557 31.8981C132.125 32.1741 131.783 32.5401 131.531 32.9961C131.279 33.4521 131.153 33.9381 131.153 34.4541Z" fill="#363636"/>
<path d="M146.996 25.2201H147.878V38.0001H146.996V25.2201Z" fill="#363636"/>
<path d="M152.619 30.9621L152.691 32.5281C152.931 31.9761 153.321 31.5441 153.861 31.2321C154.413 30.9201 155.013 30.7641 155.661 30.7641C156.321 30.7641 156.855 30.9621 157.263 31.3581C157.671 31.7421 157.881 32.2461 157.893 32.8701V38.0001H157.029V33.1041C157.017 32.6481 156.873 32.2701 156.597 31.9701C156.321 31.6701 155.919 31.5141 155.391 31.5021C154.923 31.5021 154.485 31.6161 154.077 31.8441C153.669 32.0721 153.339 32.3901 153.087 32.7981C152.847 33.2061 152.727 33.6801 152.727 34.2201V38.0001H151.881V30.9621H152.619Z" fill="#363636"/>
<path d="M163.108 38.1441C162.7 38.1441 162.274 38.0721 161.83 37.9281C161.386 37.7721 161.026 37.5261 160.75 37.1901L161.146 36.6321C161.386 36.8841 161.668 37.0881 161.992 37.2441C162.328 37.3881 162.682 37.4601 163.054 37.4601C163.462 37.4601 163.834 37.3641 164.17 37.1721C164.506 36.9801 164.674 36.6441 164.674 36.1641C164.674 35.8281 164.578 35.5701 164.386 35.3901C164.206 35.2101 163.972 35.0661 163.684 34.9581C163.408 34.8381 163.114 34.7301 162.802 34.6341C162.286 34.4661 161.86 34.2381 161.524 33.9501C161.2 33.6621 161.038 33.2541 161.038 32.7261C161.038 32.1501 161.236 31.6881 161.632 31.3401C162.04 30.9801 162.556 30.8001 163.18 30.8001C163.552 30.8001 163.918 30.8601 164.278 30.9801C164.65 31.1001 164.986 31.3041 165.286 31.5921L164.908 32.1861C164.716 31.9221 164.458 31.7421 164.134 31.6461C163.822 31.5501 163.546 31.4961 163.306 31.4841C162.994 31.4841 162.676 31.5801 162.352 31.7721C162.04 31.9521 161.884 32.2341 161.884 32.6181C161.884 32.8941 161.962 33.1221 162.118 33.3021C162.274 33.4701 162.472 33.6081 162.712 33.7161C162.964 33.8241 163.222 33.9261 163.486 34.0221C163.834 34.1301 164.158 34.2621 164.458 34.4181C164.77 34.5621 165.022 34.7601 165.214 35.0121C165.418 35.2521 165.52 35.5761 165.52 35.9841C165.52 36.6081 165.316 37.1241 164.908 37.5321C164.512 37.9401 163.912 38.1441 163.108 38.1441Z" fill="#363636"/>
<path d="M169.141 27.8661H170.005V31.0521H172.183V31.7361H170.005V38.0001H169.141V31.7361H167.647V31.0521H169.141V27.8661Z" fill="#363636"/>
<path d="M177.569 38.1441C176.897 38.1441 176.285 37.9941 175.733 37.6941C175.193 37.3821 174.761 36.9501 174.437 36.3981C174.125 35.8461 173.969 35.2041 173.969 34.4721C173.969 33.6921 174.137 33.0261 174.473 32.4741C174.809 31.9101 175.265 31.4841 175.841 31.1961C176.417 30.8961 177.071 30.7461 177.803 30.7461C178.379 30.7461 178.931 30.9141 179.459 31.2501C179.999 31.5741 180.401 31.9881 180.665 32.4921L180.755 30.9621H181.511V38.0001H180.665V36.5061C180.401 36.9261 179.993 37.3041 179.441 37.6401C178.889 37.9761 178.265 38.1441 177.569 38.1441ZM177.749 37.4241C178.277 37.4241 178.751 37.3161 179.171 37.1001C179.603 36.8721 179.951 36.5601 180.215 36.1641C180.479 35.7681 180.629 35.3121 180.665 34.7961V33.7881C180.569 33.3441 180.377 32.9481 180.089 32.6001C179.813 32.2521 179.471 31.9761 179.063 31.7721C178.655 31.5681 178.211 31.4661 177.731 31.4661C177.203 31.4661 176.717 31.5921 176.273 31.8441C175.829 32.0841 175.475 32.4261 175.211 32.8701C174.947 33.3141 174.815 33.8361 174.815 34.4361C174.815 34.9881 174.947 35.4921 175.211 35.9481C175.475 36.3921 175.829 36.7521 176.273 37.0281C176.729 37.2921 177.221 37.4241 177.749 37.4241Z" fill="#363636"/>
<path d="M188.199 41.4381C187.611 41.4381 187.059 41.3301 186.543 41.1141C186.027 40.8981 185.487 40.5261 184.923 39.9981L185.427 39.4221C185.943 39.9141 186.423 40.2441 186.867 40.4121C187.311 40.5921 187.743 40.6821 188.163 40.6821C188.895 40.6821 189.477 40.5621 189.909 40.3221C190.341 40.0941 190.653 39.7821 190.845 39.3861C191.037 39.0021 191.139 38.5701 191.151 38.0901L191.169 36.4341C190.869 36.9501 190.431 37.3641 189.855 37.6761C189.291 37.9881 188.667 38.1441 187.983 38.1441C187.323 38.1441 186.717 37.9821 186.165 37.6581C185.625 37.3221 185.193 36.8781 184.869 36.3261C184.545 35.7621 184.383 35.1381 184.383 34.4541C184.383 33.7221 184.551 33.0801 184.887 32.5281C185.223 31.9761 185.679 31.5441 186.255 31.2321C186.831 30.9081 187.467 30.7461 188.163 30.7461C188.775 30.7461 189.363 30.9021 189.927 31.2141C190.491 31.5141 190.911 31.9161 191.187 32.4201L191.259 30.9621H192.015V38.1081C192.015 38.6841 191.883 39.2241 191.619 39.7281C191.367 40.2441 190.959 40.6581 190.395 40.9701C189.843 41.2821 189.111 41.4381 188.199 41.4381ZM185.229 34.4361C185.229 34.9881 185.361 35.4921 185.625 35.9481C185.889 36.3921 186.243 36.7521 186.687 37.0281C187.143 37.2921 187.647 37.4241 188.199 37.4241C188.727 37.4241 189.207 37.3101 189.639 37.0821C190.071 36.8421 190.425 36.5241 190.701 36.1281C190.977 35.7321 191.133 35.3061 191.169 34.8501V33.8061C191.025 33.1341 190.677 32.5761 190.125 32.1321C189.573 31.6881 188.931 31.4661 188.199 31.4661C187.647 31.4661 187.143 31.5921 186.687 31.8441C186.243 32.0961 185.889 32.4441 185.625 32.8881C185.361 33.3321 185.229 33.8481 185.229 34.4361Z" fill="#363636"/>
<path d="M196.325 30.9621L196.397 32.6361C196.577 32.2521 196.829 31.9221 197.153 31.6461C197.489 31.3581 197.849 31.1421 198.233 30.9981C198.629 30.8421 199.007 30.7641 199.367 30.7641L199.331 31.5921C198.791 31.5921 198.299 31.7121 197.855 31.9521C197.423 32.1921 197.075 32.5161 196.811 32.9241C196.559 33.3201 196.433 33.7701 196.433 34.2741V38.0001H195.587V30.9621H196.325Z" fill="#363636"/>
<path d="M204.928 38.1441C204.256 38.1441 203.644 37.9941 203.092 37.6941C202.552 37.3821 202.12 36.9501 201.796 36.3981C201.484 35.8461 201.328 35.2041 201.328 34.4721C201.328 33.6921 201.496 33.0261 201.832 32.4741C202.168 31.9101 202.624 31.4841 203.2 31.1961C203.776 30.8961 204.43 30.7461 205.162 30.7461C205.738 30.7461 206.29 30.9141 206.818 31.2501C207.358 31.5741 207.76 31.9881 208.024 32.4921L208.114 30.9621H208.87V38.0001H208.024V36.5061C207.76 36.9261 207.352 37.3041 206.8 37.6401C206.248 37.9761 205.624 38.1441 204.928 38.1441ZM205.108 37.4241C205.636 37.4241 206.11 37.3161 206.53 37.1001C206.962 36.8721 207.31 36.5601 207.574 36.1641C207.838 35.7681 207.988 35.3121 208.024 34.7961V33.7881C207.928 33.3441 207.736 32.9481 207.448 32.6001C207.172 32.2521 206.83 31.9761 206.422 31.7721C206.014 31.5681 205.57 31.4661 205.09 31.4661C204.562 31.4661 204.076 31.5921 203.632 31.8441C203.188 32.0841 202.834 32.4261 202.57 32.8701C202.306 33.3141 202.174 33.8361 202.174 34.4361C202.174 34.9881 202.306 35.4921 202.57 35.9481C202.834 36.3921 203.188 36.7521 203.632 37.0281C204.088 37.2921 204.58 37.4241 205.108 37.4241Z" fill="#363636"/>
<path d="M213.165 30.9621L213.237 32.5101C213.501 31.9701 213.897 31.5441 214.425 31.2321C214.953 30.9201 215.529 30.7641 216.153 30.7641C216.717 30.7641 217.203 30.9201 217.611 31.2321C218.019 31.5321 218.259 31.9221 218.331 32.4021C218.607 31.8741 219.003 31.4721 219.519 31.1961C220.035 30.9081 220.587 30.7641 221.175 30.7641C221.847 30.7641 222.381 30.9621 222.777 31.3581C223.173 31.7421 223.377 32.2461 223.389 32.8701V38.0001H222.543V33.0501C222.531 32.6301 222.399 32.2761 222.147 31.9881C221.895 31.6881 221.511 31.5261 220.995 31.5021C220.527 31.5021 220.095 31.6221 219.699 31.8621C219.303 32.1021 218.979 32.4201 218.727 32.8161C218.487 33.2121 218.355 33.6561 218.331 34.1481V38.0001H217.485V33.0501C217.473 32.6301 217.335 32.2761 217.071 31.9881C216.819 31.6881 216.435 31.5261 215.919 31.5021C215.439 31.5021 214.995 31.6221 214.587 31.8621C214.191 32.1021 213.873 32.4321 213.633 32.8521C213.393 33.2601 213.273 33.7161 213.273 34.2201V38.0001H212.427V30.9621H213.165Z" fill="#363636"/>
<path d="M229.871 38.1441C229.199 38.1441 228.587 37.9941 228.035 37.6941C227.495 37.3821 227.063 36.9501 226.739 36.3981C226.427 35.8461 226.271 35.2041 226.271 34.4721C226.271 33.6921 226.439 33.0261 226.775 32.4741C227.111 31.9101 227.567 31.4841 228.143 31.1961C228.719 30.8961 229.373 30.7461 230.105 30.7461C230.681 30.7461 231.233 30.9141 231.761 31.2501C232.301 31.5741 232.703 31.9881 232.967 32.4921L233.057 30.9621H233.813V38.0001H232.967V36.5061C232.703 36.9261 232.295 37.3041 231.743 37.6401C231.191 37.9761 230.567 38.1441 229.871 38.1441ZM230.051 37.4241C230.579 37.4241 231.053 37.3161 231.473 37.1001C231.905 36.8721 232.253 36.5601 232.517 36.1641C232.781 35.7681 232.931 35.3121 232.967 34.7961V33.7881C232.871 33.3441 232.679 32.9481 232.391 32.6001C232.115 32.2521 231.773 31.9761 231.365 31.7721C230.957 31.5681 230.513 31.4661 230.033 31.4661C229.505 31.4661 229.019 31.5921 228.575 31.8441C228.131 32.0841 227.777 32.4261 227.513 32.8701C227.249 33.3141 227.117 33.8361 227.117 34.4361C227.117 34.9881 227.249 35.4921 227.513 35.9481C227.777 36.3921 228.131 36.7521 228.575 37.0281C229.031 37.2921 229.523 37.4241 230.051 37.4241Z" fill="#363636"/>
<path d="M236.721 37.3881C236.721 37.2201 236.781 37.0761 236.901 36.9561C237.021 36.8361 237.159 36.7761 237.315 36.7761C237.471 36.7761 237.609 36.8361 237.729 36.9561C237.861 37.0761 237.927 37.2201 237.927 37.3881C237.927 37.5681 237.861 37.7181 237.729 37.8381C237.609 37.9461 237.471 38.0001 237.315 38.0001C237.159 38.0001 237.021 37.9461 236.901 37.8381C236.781 37.7181 236.721 37.5681 236.721 37.3881Z" fill="#363636"/>
<path fill-rule="evenodd" clip-rule="evenodd" d="M33.5589 22.4967C33.2515 22.5332 32.9339 22.5773 32.607 22.6296L32.4493 21.6421C32.789 21.5878 33.12 21.5418 33.4411 21.5037L33.5589 22.4967ZM30.716 23.0011C30.1134 23.1408 29.49 23.3048 28.8502 23.4949L28.5655 22.5362C29.2246 22.3405 29.8677 22.1712 30.4902 22.027L30.716 23.0011ZM27.0102 24.0995C26.4174 24.313 25.8152 24.5481 25.207 24.8059L24.8168 23.8851C25.4422 23.6201 26.0614 23.3783 26.6713 23.1586L27.0102 24.0995ZM23.4451 25.6098C22.8751 25.8888 22.3026 26.188 21.7301 26.5081L21.2421 25.6353C21.8308 25.3061 22.4194 24.9985 23.0054 24.7116L23.4451 25.6098ZM20.0645 27.5007C19.5273 27.8413 18.9923 28.2013 18.4617 28.5811L17.8796 27.768C18.4258 27.377 18.9763 27.0066 19.5289 26.6562L20.0645 27.5007ZM16.921 29.7522C16.424 30.153 15.9329 30.5726 15.4495 31.0115L14.7772 30.2712C15.2754 29.8189 15.7813 29.3866 16.2932 28.9738L16.921 29.7522ZM14.0582 32.3524C13.6129 32.8079 13.1762 33.2816 12.7498 33.774L11.9938 33.1194C12.4337 32.6115 12.884 32.123 13.3431 31.6533L14.0582 32.3524ZM11.5293 35.2731C11.1422 35.7792 10.766 36.3028 10.4018 36.8445L9.57191 36.2866C9.94753 35.7278 10.3357 35.1877 10.7349 34.6656L11.5293 35.2731ZM9.37165 38.4824C9.04926 39.0312 8.73902 39.5968 8.44216 40.1795L7.55112 39.7256C7.8571 39.125 8.17695 38.5419 8.50942 37.9759L9.37165 38.4824ZM7.61597 41.9267C7.3613 42.5087 7.11956 43.1063 6.89178 43.72L5.95427 43.3721C6.18867 42.7405 6.43754 42.1252 6.69984 41.5258L7.61597 41.9267ZM6.26891 45.5526C6.08096 46.1598 5.90623 46.7815 5.74559 47.418L4.77599 47.1733C4.94093 46.5197 5.12043 45.881 5.31364 45.2569L6.26891 45.5526ZM5.31912 49.3101C5.19476 49.9345 5.08353 50.5723 4.98614 51.2237L3.99713 51.0758C4.09687 50.4087 4.21085 49.7551 4.33838 49.1147L5.31912 49.3101ZM4.74369 53.146C4.67842 53.7778 4.62579 54.4216 4.58636 55.0776L3.58816 55.0176C3.62843 54.3475 3.68223 53.6895 3.74898 53.0433L4.74369 53.146ZM7.53551 55.1718L4.35353 58.3537C4.15826 58.549 3.84168 58.549 3.64642 58.3537L0.46444 55.1718C0.269178 54.9765 0.269178 54.6599 0.46444 54.4646C0.659702 54.2694 0.976284 54.2694 1.17155 54.4646L3.70746 57.0006L4.28125 57.0118L6.8284 54.4646C7.02366 54.2694 7.34025 54.2694 7.53551 54.4646C7.73077 54.6599 7.73077 54.9765 7.53551 55.1718Z" fill="black"/>
</svg>
