<svg width="191" height="42" viewBox="0 0 191 42" fill="none" xmlns="http://www.w3.org/2000/svg">
<path d="M3.63151 1.22C4.80751 1.22 5.76151 1.52 6.49351 2.12C7.22551 2.72 7.59151 3.626 7.59151 4.838C7.59151 5.474 7.45351 6.086 7.17751 6.674C6.90151 7.25 6.46351 7.724 5.86351 8.096C5.27551 8.456 4.50151 8.636 3.54151 8.636H1.56151V14H0.679508V1.22H3.63151ZM3.54151 7.79C4.16551 7.79 4.68151 7.694 5.08951 7.502C5.50951 7.298 5.83351 7.046 6.06151 6.746C6.30151 6.434 6.46951 6.11 6.56551 5.774C6.67351 5.438 6.72751 5.126 6.72751 4.838C6.72751 4.022 6.46351 3.356 5.93551 2.84C5.41951 2.324 4.68151 2.066 3.72151 2.066H1.56151V7.79H3.54151ZM9.8903 10.436C9.8903 9.752 10.0523 9.128 10.3763 8.564C10.7123 8 11.1623 7.556 11.7263 7.232C12.3023 6.896 12.9443 6.728 13.6523 6.728C14.3723 6.728 15.0143 6.896 15.5783 7.232C16.1423 7.556 16.5863 8 16.9103 8.564C17.2343 9.128 17.3963 9.752 17.3963 10.436C17.3963 11.12 17.2343 11.744 16.9103 12.308C16.5863 12.872 16.1363 13.322 15.5603 13.658C14.9963 13.982 14.3543 14.144 13.6343 14.144C12.9263 14.144 12.2903 13.988 11.7263 13.676C11.1623 13.352 10.7123 12.914 10.3763 12.362C10.0523 11.798 9.8903 11.156 9.8903 10.436ZM10.7363 10.454C10.7363 11.006 10.8623 11.51 11.1143 11.966C11.3783 12.41 11.7263 12.764 12.1583 13.028C12.6023 13.292 13.0943 13.424 13.6343 13.424C14.1743 13.424 14.6603 13.292 15.0923 13.028C15.5363 12.764 15.8843 12.41 16.1363 11.966C16.4003 11.51 16.5323 11.006 16.5323 10.454C16.5323 9.902 16.4003 9.404 16.1363 8.96C15.8843 8.504 15.5363 8.144 15.0923 7.88C14.6603 7.604 14.1743 7.466 13.6343 7.466C13.0823 7.466 12.5843 7.61 12.1403 7.898C11.7083 8.174 11.3663 8.54 11.1143 8.996C10.8623 9.452 10.7363 9.938 10.7363 10.454ZM20.4483 7.664C20.1363 7.664 19.8783 7.592 19.6743 7.448C19.4703 7.292 19.3683 7.022 19.3683 6.638V6.296H20.0343V6.512C20.0343 6.812 20.2383 6.962 20.6463 6.962H25.2003L20.7543 13.28H25.1283V14H19.3143L23.7783 7.664H20.4483ZM28.6436 6.962L28.7156 8.528C28.9556 7.976 29.3456 7.544 29.8856 7.232C30.4376 6.92 31.0376 6.764 31.6856 6.764C32.3456 6.764 32.8796 6.962 33.2876 7.358C33.6956 7.742 33.9056 8.246 33.9176 8.87V14H33.0536V9.104C33.0416 8.648 32.8976 8.27 32.6216 7.97C32.3456 7.67 31.9436 7.514 31.4156 7.502C30.9476 7.502 30.5096 7.616 30.1016 7.844C29.6936 8.072 29.3636 8.39 29.1116 8.798C28.8716 9.206 28.7516 9.68 28.7516 10.22V14H27.9056V6.962H28.6436ZM40.3926 14.144C39.7206 14.144 39.1086 13.994 38.5566 13.694C38.0166 13.382 37.5846 12.95 37.2606 12.398C36.9486 11.846 36.7926 11.204 36.7926 10.472C36.7926 9.692 36.9606 9.026 37.2966 8.474C37.6326 7.91 38.0886 7.484 38.6646 7.196C39.2406 6.896 39.8946 6.746 40.6266 6.746C41.2026 6.746 41.7546 6.914 42.2826 7.25C42.8226 7.574 43.2246 7.988 43.4886 8.492L43.5786 6.962H44.3346V14H43.4886V12.506C43.2246 12.926 42.8166 13.304 42.2646 13.64C41.7126 13.976 41.0886 14.144 40.3926 14.144ZM40.5726 13.424C41.1006 13.424 41.5746 13.316 41.9946 13.1C42.4266 12.872 42.7746 12.56 43.0386 12.164C43.3026 11.768 43.4526 11.312 43.4886 10.796V9.788C43.3926 9.344 43.2006 8.948 42.9126 8.6C42.6366 8.252 42.2946 7.976 41.8866 7.772C41.4786 7.568 41.0346 7.466 40.5546 7.466C40.0266 7.466 39.5406 7.592 39.0966 7.844C38.6526 8.084 38.2986 8.426 38.0346 8.87C37.7706 9.314 37.6386 9.836 37.6386 10.436C37.6386 10.988 37.7706 11.492 38.0346 11.948C38.2986 12.392 38.6526 12.752 39.0966 13.028C39.5526 13.292 40.0446 13.424 40.5726 13.424ZM47.5853 17.384L47.0453 16.862C47.3573 16.55 47.6033 16.16 47.7833 15.692C47.9753 15.224 48.0713 14.696 48.0713 14.108V6.962H48.9353V14.09C48.9353 15.578 48.4853 16.676 47.5853 17.384ZM47.8913 4.37C47.8913 4.202 47.9573 4.064 48.0893 3.956C48.2213 3.836 48.3653 3.776 48.5213 3.776C48.6893 3.776 48.8333 3.836 48.9533 3.956C49.0733 4.064 49.1333 4.202 49.1333 4.37C49.1333 4.55 49.0733 4.7 48.9533 4.82C48.8333 4.928 48.6893 4.982 48.5213 4.982C48.3653 4.982 48.2213 4.922 48.0893 4.802C47.9573 4.682 47.8913 4.538 47.8913 4.37ZM58.8942 6.962L58.9662 8.528C59.2062 7.976 59.5962 7.544 60.1362 7.232C60.6882 6.92 61.2882 6.764 61.9362 6.764C62.5962 6.764 63.1302 6.962 63.5382 7.358C63.9462 7.742 64.1562 8.246 64.1682 8.87V14H63.3042V9.104C63.2922 8.648 63.1482 8.27 62.8722 7.97C62.5962 7.67 62.1942 7.514 61.6662 7.502C61.1982 7.502 60.7602 7.616 60.3522 7.844C59.9442 8.072 59.6142 8.39 59.3622 8.798C59.1222 9.206 59.0022 9.68 59.0022 10.22V14H58.1562V6.962H58.8942ZM70.6431 14.144C69.9711 14.144 69.3591 13.994 68.8071 13.694C68.2671 13.382 67.8351 12.95 67.5111 12.398C67.1991 11.846 67.0431 11.204 67.0431 10.472C67.0431 9.692 67.2111 9.026 67.5471 8.474C67.8831 7.91 68.3391 7.484 68.9151 7.196C69.4911 6.896 70.1451 6.746 70.8771 6.746C71.4531 6.746 72.0051 6.914 72.5331 7.25C73.0731 7.574 73.4751 7.988 73.7391 8.492L73.8291 6.962H74.5851V14H73.7391V12.506C73.4751 12.926 73.0671 13.304 72.5151 13.64C71.9631 13.976 71.3391 14.144 70.6431 14.144ZM70.8231 13.424C71.3511 13.424 71.8251 13.316 72.2451 13.1C72.6771 12.872 73.0251 12.56 73.2891 12.164C73.5531 11.768 73.7031 11.312 73.7391 10.796V9.788C73.6431 9.344 73.4511 8.948 73.1631 8.6C72.8871 8.252 72.5451 7.976 72.1371 7.772C71.7291 7.568 71.2851 7.466 70.8051 7.466C70.2771 7.466 69.7911 7.592 69.3471 7.844C68.9031 8.084 68.5491 8.426 68.2851 8.87C68.0211 9.314 67.8891 9.836 67.8891 10.436C67.8891 10.988 68.0211 11.492 68.2851 11.948C68.5491 12.392 68.9031 12.752 69.3471 13.028C69.8031 13.292 70.2951 13.424 70.8231 13.424ZM79.7978 14.144C79.3898 14.144 78.9638 14.072 78.5198 13.928C78.0758 13.772 77.7158 13.526 77.4398 13.19L77.8358 12.632C78.0758 12.884 78.3578 13.088 78.6818 13.244C79.0178 13.388 79.3718 13.46 79.7438 13.46C80.1518 13.46 80.5238 13.364 80.8598 13.172C81.1958 12.98 81.3638 12.644 81.3638 12.164C81.3638 11.828 81.2678 11.57 81.0758 11.39C80.8958 11.21 80.6618 11.066 80.3738 10.958C80.0978 10.838 79.8038 10.73 79.4918 10.634C78.9758 10.466 78.5498 10.238 78.2138 9.95C77.8898 9.662 77.7278 9.254 77.7278 8.726C77.7278 8.15 77.9258 7.688 78.3218 7.34C78.7298 6.98 79.2458 6.8 79.8698 6.8C80.2418 6.8 80.6078 6.86 80.9678 6.98C81.3398 7.1 81.6758 7.304 81.9758 7.592L81.5978 8.186C81.4058 7.922 81.1478 7.742 80.8238 7.646C80.5118 7.55 80.2358 7.496 79.9958 7.484C79.6838 7.484 79.3658 7.58 79.0418 7.772C78.7298 7.952 78.5738 8.234 78.5738 8.618C78.5738 8.894 78.6518 9.122 78.8078 9.302C78.9638 9.47 79.1618 9.608 79.4018 9.716C79.6538 9.824 79.9118 9.926 80.1758 10.022C80.5238 10.13 80.8478 10.262 81.1478 10.418C81.4598 10.562 81.7118 10.76 81.9038 11.012C82.1078 11.252 82.2098 11.576 82.2098 11.984C82.2098 12.608 82.0058 13.124 81.5978 13.532C81.2018 13.94 80.6018 14.144 79.7978 14.144ZM91.0083 0.319999H91.8543V14H91.0083V0.319999ZM98.4713 14.144C97.7393 14.144 97.0913 13.982 96.5273 13.658C95.9633 13.334 95.5193 12.896 95.1953 12.344C94.8833 11.78 94.7273 11.15 94.7273 10.454C94.7273 9.77 94.8953 9.146 95.2313 8.582C95.5673 8.018 96.0173 7.568 96.5813 7.232C97.1573 6.896 97.7933 6.728 98.4893 6.728C99.3293 6.728 100.031 6.974 100.595 7.466C101.171 7.958 101.585 8.6 101.837 9.392L95.8253 11.714C96.0533 12.206 96.3953 12.614 96.8513 12.938C97.3193 13.25 97.8653 13.406 98.4893 13.406C98.8733 13.406 99.2393 13.334 99.5873 13.19C99.9473 13.046 100.265 12.86 100.541 12.632L100.973 13.244C100.637 13.508 100.247 13.724 99.8033 13.892C99.3713 14.06 98.9273 14.144 98.4713 14.144ZM95.5553 10.418C95.5553 10.646 95.5793 10.868 95.6273 11.084L100.811 9.05C100.595 8.618 100.289 8.246 99.8933 7.934C99.4973 7.61 99.0113 7.448 98.4353 7.448C97.8953 7.448 97.4093 7.58 96.9773 7.844C96.5453 8.108 96.1973 8.462 95.9333 8.906C95.6813 9.35 95.5553 9.854 95.5553 10.418ZM108.431 14.144C107.807 14.144 107.219 13.994 106.667 13.694C106.115 13.394 105.689 12.998 105.389 12.506V17.384H104.543V6.908H105.299L105.353 8.474C105.689 7.958 106.139 7.544 106.703 7.232C107.279 6.908 107.897 6.746 108.557 6.746C109.229 6.746 109.835 6.908 110.375 7.232C110.915 7.556 111.341 8 111.653 8.564C111.977 9.116 112.139 9.752 112.139 10.472C112.139 11.18 111.971 11.816 111.635 12.38C111.311 12.932 110.867 13.364 110.303 13.676C109.751 13.988 109.127 14.144 108.431 14.144ZM108.287 13.442C108.839 13.442 109.337 13.31 109.781 13.046C110.237 12.782 110.597 12.428 110.861 11.984C111.137 11.528 111.275 11.024 111.275 10.472C111.275 9.908 111.143 9.404 110.879 8.96C110.615 8.504 110.261 8.144 109.817 7.88C109.385 7.616 108.893 7.484 108.341 7.484C107.813 7.484 107.333 7.604 106.901 7.844C106.469 8.084 106.121 8.408 105.857 8.816C105.593 9.224 105.437 9.686 105.389 10.202V10.778C105.425 11.27 105.575 11.72 105.839 12.128C106.115 12.536 106.463 12.86 106.883 13.1C107.315 13.328 107.783 13.442 108.287 13.442ZM115.01 6.962H115.856V14H115.01V6.962ZM114.83 4.37C114.83 4.202 114.896 4.064 115.028 3.956C115.16 3.836 115.304 3.776 115.46 3.776C115.628 3.776 115.772 3.836 115.892 3.956C116.012 4.064 116.072 4.202 116.072 4.37C116.072 4.55 116.012 4.7 115.892 4.82C115.772 4.928 115.628 4.982 115.46 4.982C115.304 4.982 115.16 4.922 115.028 4.802C114.896 4.682 114.83 4.538 114.83 4.37ZM122.473 14.144C121.741 14.144 121.093 13.982 120.529 13.658C119.965 13.334 119.521 12.896 119.197 12.344C118.885 11.78 118.729 11.15 118.729 10.454C118.729 9.77 118.897 9.146 119.233 8.582C119.569 8.018 120.019 7.568 120.583 7.232C121.159 6.896 121.795 6.728 122.491 6.728C123.331 6.728 124.033 6.974 124.597 7.466C125.173 7.958 125.587 8.6 125.839 9.392L119.827 11.714C120.055 12.206 120.397 12.614 120.853 12.938C121.321 13.25 121.867 13.406 122.491 13.406C122.875 13.406 123.241 13.334 123.589 13.19C123.949 13.046 124.267 12.86 124.543 12.632L124.975 13.244C124.639 13.508 124.249 13.724 123.805 13.892C123.373 14.06 122.929 14.144 122.473 14.144ZM119.557 10.418C119.557 10.646 119.581 10.868 119.629 11.084L124.813 9.05C124.597 8.618 124.291 8.246 123.895 7.934C123.499 7.61 123.013 7.448 122.437 7.448C121.897 7.448 121.411 7.58 120.979 7.844C120.547 8.108 120.199 8.462 119.935 8.906C119.683 9.35 119.557 9.854 119.557 10.418ZM128.239 17.384L127.699 16.862C128.011 16.55 128.257 16.16 128.437 15.692C128.629 15.224 128.725 14.696 128.725 14.108V6.962H129.589V14.09C129.589 15.578 129.139 16.676 128.239 17.384ZM128.545 4.37C128.545 4.202 128.611 4.064 128.743 3.956C128.875 3.836 129.019 3.776 129.175 3.776C129.343 3.776 129.487 3.836 129.607 3.956C129.727 4.064 129.787 4.202 129.787 4.37C129.787 4.55 129.727 4.7 129.607 4.82C129.487 4.928 129.343 4.982 129.175 4.982C129.019 4.982 128.875 4.922 128.743 4.802C128.611 4.682 128.545 4.538 128.545 4.37ZM138.81 6.962H139.656V14H138.81V6.962ZM138.63 4.37C138.63 4.202 138.696 4.064 138.828 3.956C138.96 3.836 139.104 3.776 139.26 3.776C139.428 3.776 139.572 3.836 139.692 3.956C139.812 4.064 139.872 4.202 139.872 4.37C139.872 4.55 139.812 4.7 139.692 4.82C139.572 4.928 139.428 4.982 139.26 4.982C139.104 4.982 138.96 4.922 138.828 4.802C138.696 4.682 138.63 4.538 138.63 4.37ZM153.052 6.962L155.626 12.74L158.092 6.962H158.956L155.644 14.432L153.376 9.428L151.306 14.432L147.994 6.962H148.84L151.378 12.686L153.052 8.636L152.278 6.962H153.052ZM164.395 14.144C163.663 14.144 163.015 13.982 162.451 13.658C161.887 13.334 161.443 12.896 161.119 12.344C160.807 11.78 160.651 11.15 160.651 10.454C160.651 9.77 160.819 9.146 161.155 8.582C161.491 8.018 161.941 7.568 162.505 7.232C163.081 6.896 163.717 6.728 164.413 6.728C165.253 6.728 165.955 6.974 166.519 7.466C167.095 7.958 167.509 8.6 167.761 9.392L161.749 11.714C161.977 12.206 162.319 12.614 162.775 12.938C163.243 13.25 163.789 13.406 164.413 13.406C164.797 13.406 165.163 13.334 165.511 13.19C165.871 13.046 166.189 12.86 166.465 12.632L166.897 13.244C166.561 13.508 166.171 13.724 165.727 13.892C165.295 14.06 164.851 14.144 164.395 14.144ZM161.479 10.418C161.479 10.646 161.503 10.868 161.551 11.084L166.735 9.05C166.519 8.618 166.213 8.246 165.817 7.934C165.421 7.61 164.935 7.448 164.359 7.448C163.819 7.448 163.333 7.58 162.901 7.844C162.469 8.108 162.121 8.462 161.857 8.906C161.605 9.35 161.479 9.854 161.479 10.418ZM170.16 17.384L169.62 16.862C169.932 16.55 170.178 16.16 170.358 15.692C170.55 15.224 170.646 14.696 170.646 14.108V6.962H171.51V14.09C171.51 15.578 171.06 16.676 170.16 17.384ZM170.466 4.37C170.466 4.202 170.532 4.064 170.664 3.956C170.796 3.836 170.94 3.776 171.096 3.776C171.264 3.776 171.408 3.836 171.528 3.956C171.648 4.064 171.708 4.202 171.708 4.37C171.708 4.55 171.648 4.7 171.528 4.82C171.408 4.928 171.264 4.982 171.096 4.982C170.94 4.982 170.796 4.922 170.664 4.802C170.532 4.682 170.466 4.538 170.466 4.37ZM177.732 14.144C177.072 14.144 176.472 13.988 175.932 13.676C175.392 13.352 174.96 12.908 174.636 12.344C174.324 11.78 174.168 11.144 174.168 10.436C174.168 9.68 174.33 9.026 174.654 8.474C174.978 7.922 175.416 7.496 175.968 7.196C176.532 6.896 177.15 6.746 177.822 6.746C178.446 6.746 179.04 6.896 179.604 7.196C180.168 7.496 180.606 7.892 180.918 8.384V0.319999H181.764V14H180.9V12.542C180.576 13.022 180.132 13.412 179.568 13.712C179.004 14 178.392 14.144 177.732 14.144ZM177.948 13.406C178.488 13.406 178.974 13.292 179.406 13.064C179.838 12.824 180.186 12.506 180.45 12.11C180.714 11.702 180.864 11.246 180.9 10.742V9.842C180.816 9.386 180.63 8.978 180.342 8.618C180.054 8.258 179.706 7.976 179.298 7.772C178.89 7.556 178.44 7.448 177.948 7.448C177.408 7.448 176.916 7.574 176.472 7.826C176.028 8.078 175.674 8.426 175.41 8.87C175.146 9.314 175.014 9.83 175.014 10.418C175.014 10.97 175.146 11.474 175.41 11.93C175.674 12.374 176.028 12.734 176.472 13.01C176.928 13.274 177.42 13.406 177.948 13.406ZM185.499 7.664C185.187 7.664 184.929 7.592 184.725 7.448C184.521 7.292 184.419 7.022 184.419 6.638V6.296H185.085V6.512C185.085 6.812 185.289 6.962 185.697 6.962H190.251L185.805 13.28H190.179V14H184.365L188.829 7.664H185.499ZM188.919 3.2L187.011 5.594H186.399L187.965 3.2H188.919ZM2.60199 30.962L2.67399 32.528C2.91399 31.976 3.30399 31.544 3.84399 31.232C4.39599 30.92 4.99599 30.764 5.64399 30.764C6.30399 30.764 6.83799 30.962 7.24599 31.358C7.65399 31.742 7.86399 32.246 7.87599 32.87V38H7.01199V33.104C6.99999 32.648 6.85599 32.27 6.57999 31.97C6.30399 31.67 5.90199 31.514 5.37399 31.502C4.90599 31.502 4.46799 31.616 4.05999 31.844C3.65199 32.072 3.32199 32.39 3.06999 32.798C2.82999 33.206 2.70999 33.68 2.70999 34.22V38H1.86399V30.962H2.60199ZM14.3509 38.144C13.6789 38.144 13.0669 37.994 12.5149 37.694C11.9749 37.382 11.5429 36.95 11.2189 36.398C10.9069 35.846 10.7509 35.204 10.7509 34.472C10.7509 33.692 10.9189 33.026 11.2549 32.474C11.5909 31.91 12.0469 31.484 12.6229 31.196C13.1989 30.896 13.8529 30.746 14.5849 30.746C15.1609 30.746 15.7129 30.914 16.2409 31.25C16.7809 31.574 17.1829 31.988 17.4469 32.492L17.5369 30.962H18.2929V38H17.4469V36.506C17.1829 36.926 16.7749 37.304 16.2229 37.64C15.6709 37.976 15.0469 38.144 14.3509 38.144ZM14.5309 37.424C15.0589 37.424 15.5329 37.316 15.9529 37.1C16.3849 36.872 16.7329 36.56 16.9969 36.164C17.2609 35.768 17.4109 35.312 17.4469 34.796V33.788C17.3509 33.344 17.1589 32.948 16.8709 32.6C16.5949 32.252 16.2529 31.976 15.8449 31.772C15.4369 31.568 14.9929 31.466 14.5129 31.466C13.9849 31.466 13.4989 31.592 13.0549 31.844C12.6109 32.084 12.2569 32.426 11.9929 32.87C11.7289 33.314 11.5969 33.836 11.5969 34.436C11.5969 34.988 11.7289 35.492 11.9929 35.948C12.2569 36.392 12.6109 36.752 13.0549 37.028C13.5109 37.292 14.0029 37.424 14.5309 37.424ZM28.4671 30.962L28.5391 32.528C28.7791 31.976 29.1691 31.544 29.7091 31.232C30.2611 30.92 30.8611 30.764 31.5092 30.764C32.1691 30.764 32.7031 30.962 33.1111 31.358C33.5191 31.742 33.7291 32.246 33.7411 32.87V38H32.8772V33.104C32.8651 32.648 32.7211 32.27 32.4451 31.97C32.1691 31.67 31.7671 31.514 31.2391 31.502C30.7711 31.502 30.3331 31.616 29.9251 31.844C29.5171 32.072 29.1871 32.39 28.9351 32.798C28.6951 33.206 28.5751 33.68 28.5751 34.22V38H27.7291V30.962H28.4671ZM40.2161 38.144C39.5441 38.144 38.9321 37.994 38.3801 37.694C37.8401 37.382 37.4081 36.95 37.0841 36.398C36.7721 35.846 36.6161 35.204 36.6161 34.472C36.6161 33.692 36.7841 33.026 37.1201 32.474C37.4561 31.91 37.9121 31.484 38.4881 31.196C39.0641 30.896 39.7181 30.746 40.4501 30.746C41.0261 30.746 41.5781 30.914 42.1061 31.25C42.6461 31.574 43.0481 31.988 43.3121 32.492L43.4021 30.962H44.1581V38H43.3121V36.506C43.0481 36.926 42.6401 37.304 42.0881 37.64C41.5361 37.976 40.9121 38.144 40.2161 38.144ZM40.3961 37.424C40.9241 37.424 41.3981 37.316 41.8181 37.1C42.2501 36.872 42.5981 36.56 42.8621 36.164C43.1261 35.768 43.2761 35.312 43.3121 34.796V33.788C43.2161 33.344 43.0241 32.948 42.7361 32.6C42.4601 32.252 42.1181 31.976 41.7101 31.772C41.3021 31.568 40.8581 31.466 40.3781 31.466C39.8501 31.466 39.3641 31.592 38.9201 31.844C38.4761 32.084 38.1221 32.426 37.8581 32.87C37.5941 33.314 37.4621 33.836 37.4621 34.436C37.4621 34.988 37.5941 35.492 37.8581 35.948C38.1221 36.392 38.4761 36.752 38.9201 37.028C39.3761 37.292 39.8681 37.424 40.3961 37.424ZM49.3708 38.144C48.9628 38.144 48.5368 38.072 48.0928 37.928C47.6488 37.772 47.2888 37.526 47.0128 37.19L47.4088 36.632C47.6488 36.884 47.9308 37.088 48.2548 37.244C48.5908 37.388 48.9448 37.46 49.3168 37.46C49.7248 37.46 50.0968 37.364 50.4328 37.172C50.7688 36.98 50.9368 36.644 50.9368 36.164C50.9368 35.828 50.8408 35.57 50.6488 35.39C50.4688 35.21 50.2348 35.066 49.9468 34.958C49.6708 34.838 49.3768 34.73 49.0648 34.634C48.5488 34.466 48.1228 34.238 47.7868 33.95C47.4628 33.662 47.3008 33.254 47.3008 32.726C47.3008 32.15 47.4988 31.688 47.8948 31.34C48.3028 30.98 48.8188 30.8 49.4428 30.8C49.8148 30.8 50.1808 30.86 50.5408 30.98C50.9128 31.1 51.2488 31.304 51.5488 31.592L51.1708 32.186C50.9788 31.922 50.7208 31.742 50.3968 31.646C50.0848 31.55 49.8088 31.496 49.5688 31.484C49.2568 31.484 48.9388 31.58 48.6148 31.772C48.3028 31.952 48.1468 32.234 48.1468 32.618C48.1468 32.894 48.2248 33.122 48.3808 33.302C48.5368 33.47 48.7348 33.608 48.9748 33.716C49.2268 33.824 49.4848 33.926 49.7488 34.022C50.0968 34.13 50.4208 34.262 50.7208 34.418C51.0328 34.562 51.2848 34.76 51.4768 35.012C51.6808 35.252 51.7828 35.576 51.7828 35.984C51.7828 36.608 51.5788 37.124 51.1708 37.532C50.7748 37.94 50.1748 38.144 49.3708 38.144ZM54.8817 31.664C54.5697 31.664 54.3117 31.592 54.1077 31.448C53.9037 31.292 53.8017 31.022 53.8017 30.638V30.296H54.4677V30.512C54.4677 30.812 54.6717 30.962 55.0797 30.962H59.6337L55.1877 37.28H59.5617V38H53.7477L58.2117 31.664H54.8817ZM65.3991 38.144C64.6671 38.144 64.0191 37.982 63.4551 37.658C62.8911 37.334 62.4471 36.896 62.1231 36.344C61.8111 35.78 61.6551 35.15 61.6551 34.454C61.6551 33.77 61.8231 33.146 62.1591 32.582C62.4951 32.018 62.9451 31.568 63.5091 31.232C64.0851 30.896 64.7211 30.728 65.4171 30.728C66.2571 30.728 66.9591 30.974 67.5231 31.466C68.0991 31.958 68.5131 32.6 68.7651 33.392L62.7531 35.714C62.9811 36.206 63.3231 36.614 63.7791 36.938C64.2471 37.25 64.7931 37.406 65.4171 37.406C65.8011 37.406 66.1671 37.334 66.5151 37.19C66.8751 37.046 67.1931 36.86 67.4691 36.632L67.9011 37.244C67.5651 37.508 67.1751 37.724 66.7311 37.892C66.2991 38.06 65.8551 38.144 65.3991 38.144ZM62.4831 34.418C62.4831 34.646 62.5071 34.868 62.5551 35.084L67.7391 33.05C67.5231 32.618 67.2171 32.246 66.8211 31.934C66.4251 31.61 65.9391 31.448 65.3631 31.448C64.8231 31.448 64.3371 31.58 63.9051 31.844C63.4731 32.108 63.1251 32.462 62.8611 32.906C62.6091 33.35 62.4831 33.854 62.4831 34.418ZM74.6026 41.438C74.0146 41.438 73.4626 41.33 72.9466 41.114C72.4306 40.898 71.8906 40.526 71.3266 39.998L71.8306 39.422C72.3466 39.914 72.8266 40.244 73.2706 40.412C73.7146 40.592 74.1466 40.682 74.5666 40.682C75.2986 40.682 75.8806 40.562 76.3126 40.322C76.7446 40.094 77.0566 39.782 77.2486 39.386C77.4406 39.002 77.5426 38.57 77.5546 38.09L77.5726 36.434C77.2726 36.95 76.8346 37.364 76.2586 37.676C75.6946 37.988 75.0706 38.144 74.3866 38.144C73.7266 38.144 73.1206 37.982 72.5686 37.658C72.0286 37.322 71.5966 36.878 71.2726 36.326C70.9486 35.762 70.7866 35.138 70.7866 34.454C70.7866 33.722 70.9546 33.08 71.2906 32.528C71.6266 31.976 72.0826 31.544 72.6586 31.232C73.2346 30.908 73.8706 30.746 74.5666 30.746C75.1786 30.746 75.7666 30.902 76.3306 31.214C76.8946 31.514 77.3146 31.916 77.5906 32.42L77.6626 30.962H78.4186V38.108C78.4186 38.684 78.2866 39.224 78.0226 39.728C77.7706 40.244 77.3626 40.658 76.7986 40.97C76.2466 41.282 75.5146 41.438 74.6026 41.438ZM71.6326 34.436C71.6326 34.988 71.7646 35.492 72.0286 35.948C72.2926 36.392 72.6466 36.752 73.0906 37.028C73.5466 37.292 74.0506 37.424 74.6026 37.424C75.1306 37.424 75.6106 37.31 76.0426 37.082C76.4746 36.842 76.8286 36.524 77.1046 36.128C77.3806 35.732 77.5366 35.306 77.5726 34.85V33.806C77.4286 33.134 77.0806 32.576 76.5286 32.132C75.9766 31.688 75.3346 31.466 74.6026 31.466C74.0506 31.466 73.5466 31.592 73.0906 31.844C72.6466 32.096 72.2926 32.444 72.0286 32.888C71.7646 33.332 71.6326 33.848 71.6326 34.436ZM81.3067 34.436C81.3067 33.752 81.4687 33.128 81.7927 32.564C82.1287 32 82.5787 31.556 83.1427 31.232C83.7187 30.896 84.3607 30.728 85.0687 30.728C85.7887 30.728 86.4307 30.896 86.9947 31.232C87.5587 31.556 88.0027 32 88.3267 32.564C88.6507 33.128 88.8127 33.752 88.8127 34.436C88.8127 35.12 88.6507 35.744 88.3267 36.308C88.0027 36.872 87.5527 37.322 86.9767 37.658C86.4127 37.982 85.7707 38.144 85.0507 38.144C84.3427 38.144 83.7067 37.988 83.1427 37.676C82.5787 37.352 82.1287 36.914 81.7927 36.362C81.4687 35.798 81.3067 35.156 81.3067 34.436ZM82.1527 34.454C82.1527 35.006 82.2787 35.51 82.5307 35.966C82.7947 36.41 83.1427 36.764 83.5747 37.028C84.0187 37.292 84.5107 37.424 85.0507 37.424C85.5907 37.424 86.0767 37.292 86.5087 37.028C86.9527 36.764 87.3007 36.41 87.5527 35.966C87.8167 35.51 87.9487 35.006 87.9487 34.454C87.9487 33.902 87.8167 33.404 87.5527 32.96C87.3007 32.504 86.9527 32.144 86.5087 31.88C86.0767 31.604 85.5907 31.466 85.0507 31.466C84.4987 31.466 84.0007 31.61 83.5567 31.898C83.1247 32.174 82.7827 32.54 82.5307 32.996C82.2787 33.452 82.1527 33.938 82.1527 34.454ZM97.9962 25.22H98.8782V38H97.9962V25.22ZM103.619 30.962L103.691 32.528C103.931 31.976 104.321 31.544 104.861 31.232C105.413 30.92 106.013 30.764 106.661 30.764C107.321 30.764 107.855 30.962 108.263 31.358C108.671 31.742 108.881 32.246 108.893 32.87V38H108.029V33.104C108.017 32.648 107.873 32.27 107.597 31.97C107.321 31.67 106.919 31.514 106.391 31.502C105.923 31.502 105.485 31.616 105.077 31.844C104.669 32.072 104.339 32.39 104.087 32.798C103.847 33.206 103.727 33.68 103.727 34.22V38H102.881V30.962H103.619ZM114.108 38.144C113.7 38.144 113.274 38.072 112.83 37.928C112.386 37.772 112.026 37.526 111.75 37.19L112.146 36.632C112.386 36.884 112.668 37.088 112.992 37.244C113.328 37.388 113.682 37.46 114.054 37.46C114.462 37.46 114.834 37.364 115.17 37.172C115.506 36.98 115.674 36.644 115.674 36.164C115.674 35.828 115.578 35.57 115.386 35.39C115.206 35.21 114.972 35.066 114.684 34.958C114.408 34.838 114.114 34.73 113.802 34.634C113.286 34.466 112.86 34.238 112.524 33.95C112.2 33.662 112.038 33.254 112.038 32.726C112.038 32.15 112.236 31.688 112.632 31.34C113.04 30.98 113.556 30.8 114.18 30.8C114.552 30.8 114.918 30.86 115.278 30.98C115.65 31.1 115.986 31.304 116.286 31.592L115.908 32.186C115.716 31.922 115.458 31.742 115.134 31.646C114.822 31.55 114.546 31.496 114.306 31.484C113.994 31.484 113.676 31.58 113.352 31.772C113.04 31.952 112.884 32.234 112.884 32.618C112.884 32.894 112.962 33.122 113.118 33.302C113.274 33.47 113.472 33.608 113.712 33.716C113.964 33.824 114.222 33.926 114.486 34.022C114.834 34.13 115.158 34.262 115.458 34.418C115.77 34.562 116.022 34.76 116.214 35.012C116.418 35.252 116.52 35.576 116.52 35.984C116.52 36.608 116.316 37.124 115.908 37.532C115.512 37.94 114.912 38.144 114.108 38.144ZM120.141 27.866H121.005V31.052H123.183V31.736H121.005V38H120.141V31.736H118.647V31.052H120.141V27.866ZM128.569 38.144C127.897 38.144 127.285 37.994 126.733 37.694C126.193 37.382 125.761 36.95 125.437 36.398C125.125 35.846 124.969 35.204 124.969 34.472C124.969 33.692 125.137 33.026 125.473 32.474C125.809 31.91 126.265 31.484 126.841 31.196C127.417 30.896 128.071 30.746 128.803 30.746C129.379 30.746 129.931 30.914 130.459 31.25C130.999 31.574 131.401 31.988 131.665 32.492L131.755 30.962H132.511V38H131.665V36.506C131.401 36.926 130.993 37.304 130.441 37.64C129.889 37.976 129.265 38.144 128.569 38.144ZM128.749 37.424C129.277 37.424 129.751 37.316 130.171 37.1C130.603 36.872 130.951 36.56 131.215 36.164C131.479 35.768 131.629 35.312 131.665 34.796V33.788C131.569 33.344 131.377 32.948 131.089 32.6C130.813 32.252 130.471 31.976 130.063 31.772C129.655 31.568 129.211 31.466 128.731 31.466C128.203 31.466 127.717 31.592 127.273 31.844C126.829 32.084 126.475 32.426 126.211 32.87C125.947 33.314 125.815 33.836 125.815 34.436C125.815 34.988 125.947 35.492 126.211 35.948C126.475 36.392 126.829 36.752 127.273 37.028C127.729 37.292 128.221 37.424 128.749 37.424ZM139.199 41.438C138.611 41.438 138.059 41.33 137.543 41.114C137.027 40.898 136.487 40.526 135.923 39.998L136.427 39.422C136.943 39.914 137.423 40.244 137.867 40.412C138.311 40.592 138.743 40.682 139.163 40.682C139.895 40.682 140.477 40.562 140.909 40.322C141.341 40.094 141.653 39.782 141.845 39.386C142.037 39.002 142.139 38.57 142.151 38.09L142.169 36.434C141.869 36.95 141.431 37.364 140.855 37.676C140.291 37.988 139.667 38.144 138.983 38.144C138.323 38.144 137.717 37.982 137.165 37.658C136.625 37.322 136.193 36.878 135.869 36.326C135.545 35.762 135.383 35.138 135.383 34.454C135.383 33.722 135.551 33.08 135.887 32.528C136.223 31.976 136.679 31.544 137.255 31.232C137.831 30.908 138.467 30.746 139.163 30.746C139.775 30.746 140.363 30.902 140.927 31.214C141.491 31.514 141.911 31.916 142.187 32.42L142.259 30.962H143.015V38.108C143.015 38.684 142.883 39.224 142.619 39.728C142.367 40.244 141.959 40.658 141.395 40.97C140.843 41.282 140.111 41.438 139.199 41.438ZM136.229 34.436C136.229 34.988 136.361 35.492 136.625 35.948C136.889 36.392 137.243 36.752 137.687 37.028C138.143 37.292 138.647 37.424 139.199 37.424C139.727 37.424 140.207 37.31 140.639 37.082C141.071 36.842 141.425 36.524 141.701 36.128C141.977 35.732 142.133 35.306 142.169 34.85V33.806C142.025 33.134 141.677 32.576 141.125 32.132C140.573 31.688 139.931 31.466 139.199 31.466C138.647 31.466 138.143 31.592 137.687 31.844C137.243 32.096 136.889 32.444 136.625 32.888C136.361 33.332 136.229 33.848 136.229 34.436ZM147.326 30.962L147.398 32.636C147.578 32.252 147.83 31.922 148.154 31.646C148.49 31.358 148.85 31.142 149.234 30.998C149.63 30.842 150.008 30.764 150.368 30.764L150.332 31.592C149.792 31.592 149.3 31.712 148.856 31.952C148.424 32.192 148.076 32.516 147.812 32.924C147.56 33.32 147.434 33.77 147.434 34.274V38H146.588V30.962H147.326ZM155.928 38.144C155.256 38.144 154.644 37.994 154.092 37.694C153.552 37.382 153.12 36.95 152.796 36.398C152.484 35.846 152.328 35.204 152.328 34.472C152.328 33.692 152.496 33.026 152.832 32.474C153.168 31.91 153.624 31.484 154.2 31.196C154.776 30.896 155.43 30.746 156.162 30.746C156.738 30.746 157.29 30.914 157.818 31.25C158.358 31.574 158.76 31.988 159.024 32.492L159.114 30.962H159.87V38H159.024V36.506C158.76 36.926 158.352 37.304 157.8 37.64C157.248 37.976 156.624 38.144 155.928 38.144ZM156.108 37.424C156.636 37.424 157.11 37.316 157.53 37.1C157.962 36.872 158.31 36.56 158.574 36.164C158.838 35.768 158.988 35.312 159.024 34.796V33.788C158.928 33.344 158.736 32.948 158.448 32.6C158.172 32.252 157.83 31.976 157.422 31.772C157.014 31.568 156.57 31.466 156.09 31.466C155.562 31.466 155.076 31.592 154.632 31.844C154.188 32.084 153.834 32.426 153.57 32.87C153.306 33.314 153.174 33.836 153.174 34.436C153.174 34.988 153.306 35.492 153.57 35.948C153.834 36.392 154.188 36.752 154.632 37.028C155.088 37.292 155.58 37.424 156.108 37.424ZM164.165 30.962L164.237 32.51C164.501 31.97 164.897 31.544 165.425 31.232C165.953 30.92 166.529 30.764 167.153 30.764C167.717 30.764 168.203 30.92 168.611 31.232C169.019 31.532 169.259 31.922 169.331 32.402C169.607 31.874 170.003 31.472 170.519 31.196C171.035 30.908 171.587 30.764 172.175 30.764C172.847 30.764 173.381 30.962 173.777 31.358C174.173 31.742 174.377 32.246 174.389 32.87V38H173.543V33.05C173.531 32.63 173.399 32.276 173.147 31.988C172.895 31.688 172.511 31.526 171.995 31.502C171.527 31.502 171.095 31.622 170.699 31.862C170.303 32.102 169.979 32.42 169.727 32.816C169.487 33.212 169.355 33.656 169.331 34.148V38H168.485V33.05C168.473 32.63 168.335 32.276 168.071 31.988C167.819 31.688 167.435 31.526 166.919 31.502C166.439 31.502 165.995 31.622 165.587 31.862C165.191 32.102 164.873 32.432 164.633 32.852C164.393 33.26 164.273 33.716 164.273 34.22V38H163.427V30.962H164.165ZM180.871 38.144C180.199 38.144 179.587 37.994 179.035 37.694C178.495 37.382 178.063 36.95 177.739 36.398C177.427 35.846 177.271 35.204 177.271 34.472C177.271 33.692 177.439 33.026 177.775 32.474C178.111 31.91 178.567 31.484 179.143 31.196C179.719 30.896 180.373 30.746 181.105 30.746C181.681 30.746 182.233 30.914 182.761 31.25C183.301 31.574 183.703 31.988 183.967 32.492L184.057 30.962H184.813V38H183.967V36.506C183.703 36.926 183.295 37.304 182.743 37.64C182.191 37.976 181.567 38.144 180.871 38.144ZM181.051 37.424C181.579 37.424 182.053 37.316 182.473 37.1C182.905 36.872 183.253 36.56 183.517 36.164C183.781 35.768 183.931 35.312 183.967 34.796V33.788C183.871 33.344 183.679 32.948 183.391 32.6C183.115 32.252 182.773 31.976 182.365 31.772C181.957 31.568 181.513 31.466 181.033 31.466C180.505 31.466 180.019 31.592 179.575 31.844C179.131 32.084 178.777 32.426 178.513 32.87C178.249 33.314 178.117 33.836 178.117 34.436C178.117 34.988 178.249 35.492 178.513 35.948C178.777 36.392 179.131 36.752 179.575 37.028C180.031 37.292 180.523 37.424 181.051 37.424ZM187.721 37.388C187.721 37.22 187.781 37.076 187.901 36.956C188.021 36.836 188.159 36.776 188.315 36.776C188.471 36.776 188.609 36.836 188.729 36.956C188.861 37.076 188.927 37.22 188.927 37.388C188.927 37.568 188.861 37.718 188.729 37.838C188.609 37.946 188.471 38 188.315 38C188.159 38 188.021 37.946 187.901 37.838C187.781 37.718 187.721 37.568 187.721 37.388Z" fill="#363636"/>
</svg>
