<svg width="513" height="91" viewBox="0 0 513 91" fill="none" xmlns="http://www.w3.org/2000/svg">
<path fill-rule="evenodd" clip-rule="evenodd" d="M38.8329 -91.8179L35.6795 -95.4968L39.0817 -98.413L42.235 -94.734C45.0073 -91.4997 45.0073 -86.727 42.235 -83.4927C41.0234 -82.0791 40.8997 -80.0321 41.9325 -78.4829L42.8591 -77.093C45.2479 -73.5098 45.1174 -68.8098 42.5336 -65.3647C41.0896 -63.4394 41.0167 -60.8128 42.3517 -58.8104L42.8199 -58.1082C45.2268 -54.4978 45.2268 -49.7943 42.8199 -46.184L42.0272 -44.995C40.9385 -43.3619 41.0688 -41.2038 42.3462 -39.7135C45.0493 -36.5598 45.1994 -31.9518 42.7072 -28.6289L42.2378 -28.003C40.9311 -26.2607 40.8094 -23.9007 41.9299 -22.0332L42.8536 -20.4936C45.2302 -16.5327 45.2302 -11.5844 42.8536 -7.62344L42.4188 -6.89877C40.9608 -4.46871 41.0334 -1.41606 42.6054 0.941895C45.1379 4.74065 45.2549 9.65859 42.906 13.5735L42.5729 14.1286C40.9851 16.7749 40.9851 20.0808 42.5729 22.7271L42.6624 22.8763C45.1567 27.0334 45.1567 32.2268 42.6624 36.3839L42.5729 36.5331C40.9851 39.1793 40.9851 42.4853 42.5729 45.1315C45.1253 49.3854 44.9981 54.7292 42.2463 58.8569L39.2447 63.3593L35.5164 60.8737L38.518 56.3714C40.3092 53.6845 40.392 50.206 38.7306 47.4369C36.2914 43.3716 36.2914 38.2929 38.7306 34.2276L38.8201 34.0785C40.4629 31.3404 40.4629 27.9198 38.8201 25.1817L38.7306 25.0325C36.2914 20.9672 36.2914 15.8885 38.7306 11.8232L39.0637 11.2681C40.5217 8.83805 40.4491 5.78539 38.8771 3.42744C36.3446 -0.371307 36.2276 -5.28925 38.5765 -9.20417L39.0113 -9.92883C40.5364 -12.4707 40.5364 -15.6463 39.0113 -18.1882L38.0875 -19.7278C36.0297 -23.1576 36.2533 -27.4918 38.6531 -30.6916L39.1225 -31.3174C40.3546 -32.9602 40.2804 -35.2383 38.944 -36.7974C36.3602 -39.8119 36.0966 -44.1771 38.2989 -47.4806L39.0915 -48.6695C40.495 -50.7747 40.495 -53.5174 39.0915 -55.6226L38.6234 -56.3249C36.2346 -59.908 36.365 -64.6081 38.9489 -68.0532C40.3928 -69.9785 40.4657 -72.605 39.1308 -74.6074L38.2042 -75.9974C36.0579 -79.2169 36.3148 -83.471 38.8329 -86.4088C40.1669 -87.9651 40.1669 -90.2616 38.8329 -91.8179Z" fill="#5C5C5C"/>
<path fill-rule="evenodd" clip-rule="evenodd" d="M38.8328 -83.9762L35.6794 -87.6552L39.0816 -90.5713L42.235 -86.8923C45.0073 -83.658 45.0073 -78.8854 42.235 -75.651C41.0233 -74.2374 40.8997 -72.1904 41.9325 -70.6412L42.8591 -69.2513C45.2478 -65.6682 45.1174 -60.9681 42.5335 -57.523C41.0896 -55.5977 41.0167 -52.9711 42.3516 -50.9687L42.8198 -50.2665C45.2267 -46.6561 45.2267 -41.9526 42.8198 -38.3423L42.0272 -37.1534C40.9384 -35.5202 41.0687 -33.3621 42.3461 -31.8719C45.0493 -28.7182 45.1994 -24.1101 42.7072 -20.7872L42.2378 -20.1613C40.9311 -18.4191 40.8093 -16.0591 41.9298 -14.1916L42.8536 -12.652C45.2301 -8.69103 45.2301 -3.74269 42.8536 0.218239L42.4188 0.942902C40.9607 3.37296 41.0334 6.42561 42.6053 8.78357C45.1378 12.5823 45.2549 17.5003 42.9059 21.4152L42.5728 21.9703C40.9851 24.6166 40.9851 27.9225 42.5728 30.5688L42.6623 30.718C45.1566 34.8751 45.1566 40.0685 42.6623 44.2256L42.5728 44.3747C40.9851 47.021 40.9851 50.3269 42.5728 52.9732C45.1252 57.2271 44.998 62.5709 42.2462 66.6986L39.2447 71.2009L35.5164 68.7154L38.5179 64.2131C40.3092 61.5262 40.392 58.0477 38.7305 55.2786C36.2913 51.2133 36.2913 46.1346 38.7305 42.0693L38.82 41.9202C40.4629 39.1821 40.4629 35.7614 38.82 33.0234L38.7305 32.8742C36.2913 28.8089 36.2913 23.7302 38.7305 19.6649L39.0636 19.1098C40.5216 16.6797 40.449 13.6271 38.877 11.2691C36.3445 7.47037 36.2275 2.55242 38.5764 -1.3625L39.0112 -2.08716C40.5364 -4.62907 40.5364 -7.80466 39.0112 -10.3466L38.0875 -11.8862C36.0297 -15.3159 36.2532 -19.6501 38.6531 -22.8499L39.1225 -23.4757C40.3545 -25.1185 40.2803 -27.3966 38.944 -28.9557C36.3601 -31.9702 36.0965 -36.3354 38.2989 -39.6389L39.0915 -40.8278C40.495 -42.9331 40.495 -45.6757 39.0915 -47.7809L38.6233 -48.4832C36.2345 -52.0663 36.365 -56.7664 38.9488 -60.2115C40.3928 -62.1368 40.4657 -64.7634 39.1307 -66.7658L38.2041 -68.1557C36.0578 -71.3752 36.3147 -75.6293 38.8328 -78.5671C40.1668 -80.1234 40.1668 -82.4199 38.8328 -83.9762Z" fill="#3D3D3D"/>
<path fill-rule="evenodd" clip-rule="evenodd" d="M464.316 -93.4049L461.163 -97.0839L464.565 -100L467.719 -96.3211C470.491 -93.0867 470.491 -88.3141 467.719 -85.0797C466.507 -83.6661 466.383 -81.6191 467.416 -80.07L468.343 -78.68C470.731 -75.0969 470.601 -70.3968 468.017 -66.9517C466.573 -65.0264 466.5 -62.3999 467.835 -60.3975L468.303 -59.6952C470.71 -56.0848 470.71 -51.3814 468.303 -47.771L467.511 -46.5821C466.422 -44.9489 466.552 -42.7909 467.83 -41.3006C470.533 -38.1469 470.683 -33.5388 468.191 -30.2159L467.721 -29.5901C466.415 -27.8478 466.293 -25.4878 467.413 -23.6203L468.337 -22.0807C470.714 -18.1197 470.714 -13.1714 468.337 -9.21047L467.902 -8.48581C466.444 -6.05575 466.517 -3.0031 468.089 -0.645142C470.621 3.15361 470.739 8.07156 468.39 11.9865L468.056 12.5416C466.469 15.1879 466.469 18.4938 468.056 21.1401L468.146 21.2892C470.64 25.4463 470.64 30.6397 468.146 34.7968L468.056 34.946C466.469 37.5923 466.469 40.8982 468.056 43.5445C470.609 47.7984 470.482 53.1422 467.73 57.2699L464.728 61.7722L461 59.2867L464.002 54.7843C465.793 52.0975 465.876 48.6189 464.214 45.8499C461.775 41.7846 461.775 36.7059 464.214 32.6406L464.304 32.4915C465.947 29.7534 465.947 26.3327 464.304 23.5946L464.214 23.4455C461.775 19.3802 461.775 14.3015 464.214 10.2362L464.547 9.68107C466.005 7.25101 465.933 4.19836 464.361 1.84041C461.828 -1.95834 461.711 -6.87629 464.06 -10.7912L464.495 -11.5159C466.02 -14.0578 466.02 -17.2334 464.495 -19.7753L463.571 -21.3149C461.513 -24.7446 461.737 -29.0788 464.137 -32.2786L464.606 -32.9045C465.838 -34.5472 465.764 -36.8253 464.428 -38.3844C461.844 -41.3989 461.58 -45.7641 463.783 -49.0676L464.575 -50.2565C465.979 -52.3618 465.979 -55.1044 464.575 -57.2096L464.107 -57.9119C461.718 -61.4951 461.849 -66.1951 464.432 -69.6402C465.876 -71.5655 465.949 -74.1921 464.614 -76.1945L463.688 -77.5844C461.541 -80.8039 461.798 -85.058 464.316 -87.9958C465.65 -89.5521 465.65 -91.8486 464.316 -93.4049Z" fill="#5C5C5C"/>
<path fill-rule="evenodd" clip-rule="evenodd" d="M464.316 -85.5634L461.163 -89.2423L464.565 -92.1584L467.719 -88.4795C470.491 -85.2452 470.491 -80.4725 467.719 -77.2382C466.507 -75.8246 466.383 -73.7776 467.416 -72.2284L468.343 -70.8385C470.731 -67.2553 470.601 -62.5553 468.017 -59.1101C466.573 -57.1849 466.5 -54.5583 467.835 -52.5559L468.303 -51.8536C470.71 -48.2433 470.71 -43.5398 468.303 -39.9294L467.511 -38.7405C466.422 -37.1073 466.552 -34.9493 467.83 -33.459C470.533 -30.3053 470.683 -25.6973 468.191 -22.3744L467.721 -21.7485C466.415 -20.0062 466.293 -17.6462 467.413 -15.7787L468.337 -14.2391C470.714 -10.2782 470.714 -5.32985 468.337 -1.36892L467.902 -0.644257C466.444 1.7858 466.517 4.83846 468.089 7.19641C470.621 10.9952 470.739 15.9131 468.39 19.828L468.056 20.3831C466.469 23.0294 466.469 26.3354 468.056 28.9816L468.146 29.1308C470.64 33.2879 470.64 38.4813 468.146 42.6384L468.056 42.7876C466.469 45.4338 466.469 48.7398 468.056 51.386C470.609 55.64 470.482 60.9837 467.73 65.1114L464.728 69.6138L461 67.1282L464.002 62.6259C465.793 59.939 465.876 56.4605 464.214 53.6915C461.775 49.6262 461.775 44.5475 464.214 40.4822L464.304 40.333C465.947 37.5949 465.947 34.1743 464.304 31.4362L464.214 31.287C461.775 27.2217 461.775 22.143 464.214 18.0778L464.547 17.5226C466.005 15.0926 465.933 12.0399 464.361 9.68196C461.828 5.88321 461.711 0.965263 464.06 -2.94965L464.495 -3.67432C466.02 -6.21623 466.02 -9.39182 464.495 -11.9337L463.571 -13.4733C461.513 -16.903 461.737 -21.2373 464.137 -24.437L464.606 -25.0629C465.838 -26.7057 465.764 -28.9838 464.428 -30.5429C461.844 -33.5574 461.58 -37.9226 463.783 -41.2261L464.575 -42.415C465.979 -44.5202 465.979 -47.2629 464.575 -49.3681L464.107 -50.0704C461.718 -53.6535 461.849 -58.3536 464.432 -61.7987C465.876 -63.724 465.949 -66.3505 464.614 -68.3529L463.688 -69.7429C461.541 -72.9623 461.798 -77.2165 464.316 -80.1543C465.65 -81.7106 465.65 -84.0071 464.316 -85.5634Z" fill="#3D3D3D"/>
<path d="M512.45 32.9945L0 39.043V53.6609L19.6198 58.1975L1.63498 63.7422L3.26996 81.3845L10.3549 82.3926L3.26996 84.4089V90.4576L512.45 87.4335V84.4091L507 82.3929H512.45V54.1652H501.55L512.45 51.6449V32.9945Z" fill="#363636"/>
<circle cx="33" cy="65.458" r="4" fill="white"/>
<circle cx="476" cy="63" r="4" fill="white"/>
<path fill-rule="evenodd" clip-rule="evenodd" d="M474.094 -87.818L470.94 -91.497L474.343 -94.4131L477.496 -90.7341C480.268 -87.4998 480.268 -82.7272 477.496 -79.4928C476.284 -78.0792 476.161 -76.0322 477.193 -74.483L478.12 -73.0931C480.509 -69.51 480.378 -64.8099 477.795 -61.3648C476.351 -59.4395 476.278 -56.8129 477.613 -54.8105L478.081 -54.1083C480.488 -50.4979 480.488 -45.7944 478.081 -42.1841L477.288 -40.9952C476.199 -39.362 476.33 -37.2039 477.607 -35.7136C480.31 -32.56 480.46 -27.9519 477.968 -24.629L477.499 -24.0031C476.192 -22.2608 476.07 -19.9008 477.191 -18.0333L478.115 -16.4938C480.491 -12.5328 480.491 -7.58449 478.115 -3.62355L477.68 -2.89889C476.222 -0.468834 476.294 2.58382 477.866 4.94178C480.399 8.74053 480.516 13.6585 478.167 17.5734L477.834 18.1285C476.246 20.7748 476.246 24.0807 477.834 26.727L477.923 26.8762C480.418 31.0333 480.418 36.2267 477.923 40.3838L477.816 40.5633C476.239 43.1909 476.239 46.4734 477.816 49.101C480.38 53.3743 480.225 58.7484 477.42 62.8675L475.192 66.14L471.488 63.6179L473.717 60.3454C475.538 57.6707 475.638 54.1812 473.973 51.4064C471.545 47.3598 471.545 42.3045 473.973 38.2579L474.081 38.0784C475.724 35.3403 475.724 31.9197 474.081 29.1816L473.992 29.0324C471.552 24.9671 471.552 19.8884 473.992 15.8231L474.325 15.268C475.783 12.8379 475.71 9.78528 474.138 7.42732C471.606 3.62857 471.488 -1.28938 473.837 -5.20428L474.272 -5.92895C475.797 -8.47086 475.797 -11.6464 474.272 -14.1884L473.348 -15.728C471.291 -19.1577 471.514 -23.4919 473.914 -26.6917L474.383 -27.3175C475.616 -28.9603 475.541 -31.2384 474.205 -32.7975C471.621 -35.812 471.358 -40.1772 473.56 -43.4807L474.352 -44.6696C475.756 -46.7749 475.756 -49.5175 474.352 -51.6227L473.884 -52.325C471.496 -55.9081 471.626 -60.6082 474.21 -64.0533C475.654 -65.9786 475.727 -68.6052 474.392 -70.6076L473.465 -71.9975C471.319 -75.217 471.576 -79.4711 474.094 -82.4089C475.428 -83.9652 475.428 -86.2617 474.094 -87.818Z" fill="#5C5C5C"/>
<path fill-rule="evenodd" clip-rule="evenodd" d="M474.094 -79.9763L470.94 -83.6553L474.343 -86.5714L477.496 -82.8925C480.268 -79.6581 480.268 -74.8855 477.496 -71.6511C476.284 -70.2375 476.161 -68.1905 477.193 -66.6414L478.12 -65.2514C480.509 -61.6683 480.378 -56.9682 477.795 -53.5231C476.351 -51.5978 476.278 -48.9713 477.613 -46.9689L478.081 -46.2666C480.488 -42.6562 480.488 -37.9528 478.081 -34.3424L477.288 -33.1535C476.199 -31.5203 476.33 -29.3623 477.607 -27.872C480.31 -24.7183 480.46 -20.1103 477.968 -16.7873L477.499 -16.1615C476.192 -14.4192 476.07 -12.0592 477.191 -10.1917L478.115 -8.65209C480.491 -4.69116 480.491 0.257179 478.115 4.21812L477.68 4.94278C476.222 7.37283 476.294 10.4255 477.866 12.7834C480.399 16.5822 480.516 21.5001 478.167 25.4151L477.834 25.9702C476.246 28.6164 476.246 31.9224 477.834 34.5687L477.923 34.7178C480.418 38.8749 480.418 44.0683 477.923 48.2254L476.779 50.1333C475.84 51.6971 475.84 53.6506 476.779 55.2143L477.612 56.6035C480.239 60.9818 478.203 66.6689 473.395 68.3858L471.888 64.1658C474.034 63.3998 474.942 60.8624 473.77 58.9089L472.936 57.5197C471.147 54.537 471.147 50.8107 472.936 47.8279L474.081 45.92C475.724 43.1819 475.724 39.7613 474.081 37.0232L473.991 36.8741C471.552 32.8088 471.552 27.7301 473.992 23.6648L474.325 23.1097C475.783 20.6796 475.71 17.6269 474.138 15.269C471.606 11.4702 471.488 6.55229 473.837 2.63738L474.272 1.91272C475.797 -0.629196 475.797 -3.80478 474.272 -6.34669L473.348 -7.88628C471.291 -11.316 471.514 -15.6502 473.914 -18.85L474.383 -19.4759C475.616 -21.1186 475.541 -23.3967 474.205 -24.9559C471.621 -27.9704 471.357 -32.3355 473.56 -35.639L474.352 -36.828C475.756 -38.9332 475.756 -41.6758 474.352 -43.7811L473.884 -44.4833C471.496 -48.0665 471.626 -52.7665 474.21 -56.2116C475.654 -58.1369 475.727 -60.7635 474.392 -62.7659L473.465 -64.1558C471.319 -67.3753 471.576 -71.6294 474.094 -74.5673C475.428 -76.1236 475.428 -78.4201 474.094 -79.9763Z" fill="#3D3D3D"/>
<path fill-rule="evenodd" clip-rule="evenodd" d="M34.269 -84.8341L37.4224 -88.5131L34.0202 -91.4292L30.8668 -87.7503C28.0945 -84.5159 28.0946 -79.7433 30.8668 -76.5089C32.0785 -75.0953 32.2021 -73.0483 31.1694 -71.4992L30.2427 -70.1092C27.854 -66.5261 27.9844 -61.826 30.5683 -58.3809C32.0122 -56.4556 32.0851 -53.8291 30.7502 -51.8267L30.282 -51.1244C27.8751 -47.514 27.8751 -42.8106 30.282 -39.2002L31.0746 -38.0113C32.1634 -36.3781 32.0331 -34.2201 30.7557 -32.7298C28.0525 -29.5761 27.9024 -24.968 30.3946 -21.6451L30.864 -21.0192C32.1708 -19.277 32.2925 -16.917 31.172 -15.0495L30.2482 -13.5099C27.8717 -9.54894 27.8717 -4.6006 30.2482 -0.639664L30.683 0.0849991C32.1411 2.51505 32.0684 5.56771 30.4965 7.92567C27.964 11.7244 27.8469 16.6424 30.1959 20.5573L30.529 21.1124C32.1167 23.7587 32.1167 27.0646 30.529 29.7109L30.4395 29.8601C27.9452 34.0172 27.9452 39.2106 30.4395 43.3677L30.5472 43.5472C32.1237 46.1748 32.1237 49.4573 30.5472 52.0849C27.9832 56.3582 28.1376 61.7323 30.9426 65.8514L33.1711 69.1239L36.8748 66.6018L34.6463 63.3293C32.8249 60.6546 32.7247 57.1651 34.3895 54.3903C36.8175 50.3437 36.8175 45.2884 34.3895 41.2418L34.2818 41.0623C32.6389 38.3242 32.6389 34.9035 34.2818 32.1655L34.3713 32.0163C36.8105 27.951 36.8105 22.8723 34.3713 18.807L34.0382 18.2519C32.5802 15.8218 32.6528 12.7692 34.2248 10.4112C36.7573 6.61246 36.8743 1.69451 34.5254 -2.2204L34.0906 -2.94506C32.5654 -5.48698 32.5654 -8.66256 34.0906 -11.2045L35.0143 -12.7441C37.0722 -16.1738 36.8486 -20.508 34.4487 -23.7078L33.9793 -24.3336C32.7473 -25.9764 32.8215 -28.2545 34.1578 -29.8136C36.7417 -32.8281 37.0053 -37.1933 34.803 -40.4968L34.0103 -41.6857C32.6069 -43.791 32.6069 -46.5336 34.0103 -48.6388L34.4785 -49.3411C36.8673 -52.9243 36.7368 -57.6243 34.153 -61.0694C32.709 -62.9947 32.6361 -65.6213 33.9711 -67.6237L34.8977 -69.0136C37.044 -72.2331 36.7871 -76.4872 34.269 -79.425C32.935 -80.9813 32.935 -83.2778 34.269 -84.8341Z" fill="#5C5C5C"/>
<path fill-rule="evenodd" clip-rule="evenodd" d="M34.269 -76.9925L37.4223 -80.6714L34.0202 -83.5875L30.8668 -79.9086C28.0945 -76.6742 28.0945 -71.9016 30.8668 -68.6672C32.0785 -67.2536 32.2021 -65.2066 31.1693 -63.6575L30.2427 -62.2676C27.8539 -58.6844 27.9844 -53.9844 30.5682 -50.5392C32.0122 -48.614 32.0851 -45.9874 30.7502 -43.985L30.282 -43.2827C27.8751 -39.6724 27.8751 -34.9689 30.282 -31.3585L31.0746 -30.1696C32.1634 -28.5364 32.0331 -26.3784 30.7557 -24.8881C28.0525 -21.7344 27.9024 -17.1264 30.3946 -13.8035L30.864 -13.1776C32.1707 -11.4353 32.2925 -9.07529 31.172 -7.20779L30.2482 -5.66821C27.8717 -1.70728 27.8717 3.24107 30.2482 7.202L30.683 7.92667C32.141 10.3567 32.0684 13.4094 30.4964 15.7673C27.9639 19.5661 27.8469 24.484 30.1959 28.3989L30.5289 28.9541C32.1167 31.6003 32.1167 34.9063 30.5289 37.5525L30.4394 37.7017C27.9452 41.8588 27.9452 47.0522 30.4394 51.2093L31.5842 53.1172C32.5224 54.681 32.5224 56.6345 31.5842 58.1982L30.7507 59.5874C28.1237 63.9657 30.1593 69.6528 34.9679 71.3697L36.4746 67.1497C34.3291 66.3837 33.4209 63.8463 34.593 61.8928L35.4265 60.5036C37.2162 57.5209 37.2162 53.7946 35.4265 50.8118L34.2818 48.9039C32.6389 46.1658 32.6389 42.7452 34.2818 40.0071L34.3713 39.8579C36.8104 35.7927 36.8104 30.714 34.3713 26.6487L34.0382 26.0935C32.5802 23.6635 32.6528 20.6108 34.2248 18.2529C36.7573 14.4541 36.8743 9.53618 34.5253 5.62127L34.0905 4.89661C32.5654 2.35469 32.5654 -0.820892 34.0905 -3.36281L35.0143 -4.9024C37.0721 -8.33212 36.8485 -12.6663 34.4487 -15.8661L33.9793 -16.492C32.7472 -18.1348 32.8214 -20.4129 34.1578 -21.972C36.7417 -24.9865 37.0053 -29.3516 34.8029 -32.6552L34.0103 -33.8441C32.6068 -35.9493 32.6068 -38.6919 34.0103 -40.7972L34.4785 -41.4994C36.8673 -45.0826 36.7368 -49.7826 34.153 -53.2278C32.709 -55.153 32.6361 -57.7796 33.971 -59.782L34.8977 -61.1719C37.044 -64.3914 36.7871 -68.6455 34.269 -71.5834C32.935 -73.1397 32.935 -75.4362 34.269 -76.9925Z" fill="#3D3D3D"/>
</svg>
