<svg width="168" height="168" viewBox="0 0 168 168" fill="none" xmlns="http://www.w3.org/2000/svg">
<rect x="0.0552932" y="12.7773" width="154.897" height="154.897" rx="77.4487" transform="rotate(-4.71109 0.0552932 12.7773)" fill="white"/>
<path fill-rule="evenodd" clip-rule="evenodd" d="M90.1221 47.8012C90.5686 46.9236 91.6838 46.4632 92.5832 47.06C94.7279 48.4832 95.7453 50.6518 96.1211 52.8758C96.4808 55.0046 96.2586 57.2099 95.8628 58.9386C97.9321 60.907 99.6282 63.6285 100.198 67.2873C100.267 67.7325 100.565 68.1273 100.985 68.3513C101.7 68.733 102.555 69.3151 103.139 70.0659C103.445 70.4592 103.478 70.9231 103.332 71.3269C103.19 71.7205 102.88 72.0566 102.492 72.2594L87.6503 80.0072L85.7289 84.8337C85.1465 86.2968 83.1414 86.4621 82.3273 85.114L79.6416 80.6672L63.7323 75.4536C63.3157 75.3171 62.9551 75.0362 62.7502 74.6712C62.5399 74.2969 62.4969 73.8337 62.7345 73.3956C63.188 72.5593 63.9361 71.8451 64.5791 71.3515C64.9562 71.062 65.1853 70.6227 65.1809 70.1719C65.1443 66.4636 66.374 63.5045 68.091 61.2274C67.5071 59.8055 66.9969 58.0177 66.8724 56.1698C66.7023 53.6449 67.2516 50.958 69.381 48.9727C70.1702 48.2368 71.3465 48.5074 71.9308 49.3004L76.3787 55.3363C77.1703 55.0178 78.8966 54.5378 81.5022 54.3231C84.1077 54.1084 85.8893 54.2993 86.7224 54.4839L90.1221 47.8012ZM87.4983 54.6398C88.4353 54.8168 89.5384 55.1328 90.6979 55.6151L91.2424 54.3906L91.9389 54.7003L91.3953 55.9227C92.668 56.5166 93.9864 57.3137 95.2095 58.3518C95.5305 56.764 95.6803 54.8425 95.3695 53.0028C95.0175 50.9195 94.0814 48.969 92.1617 47.6952C91.7188 47.4012 91.0854 47.5887 90.8015 48.1469L87.4983 54.6398ZM95.0161 59.1943C93.6649 57.9839 92.1664 57.0914 90.7396 56.4622C89.2886 55.8222 87.9199 55.4582 86.8688 55.3074L86.837 55.3028L86.8063 55.293C86.3185 55.1362 84.5206 54.8392 81.5648 55.0828C78.609 55.3263 76.8839 55.9137 76.4283 56.1482L76.3997 56.1629L76.369 56.1727C75.3568 56.4935 74.0662 57.0767 72.7395 57.9455C71.4338 58.8007 70.1023 59.9256 68.9679 61.3407C69.1149 61.6725 69.2645 61.9788 69.4115 62.2542L81.5539 82.3591C82.0227 82.0727 82.7923 81.742 83.7552 81.6626C84.7181 81.5832 85.5315 81.7835 86.0408 81.9893L94.7281 60.1679C94.8277 59.8732 94.9252 59.5466 95.0161 59.1943ZM85.759 82.6974C85.3615 82.5363 84.6641 82.3525 83.8178 82.4223C82.9715 82.492 82.3137 82.7875 81.9479 83.0114L82.9797 84.72C83.4682 85.5288 84.6713 85.4296 85.0207 84.5518L85.759 82.6974ZM68.4466 62.0321C66.9499 64.1467 65.9102 66.8387 65.9431 70.1644C65.9501 70.8788 65.5905 71.536 65.0432 71.9561C64.441 72.4184 63.786 73.0555 63.4045 73.7589C63.3056 73.9414 63.3179 74.1254 63.4148 74.298C63.517 74.48 63.7154 74.6459 63.9696 74.7293L79.0376 79.6672L68.7487 62.6312L68.744 62.6224C68.6455 62.4382 68.5459 62.241 68.4466 62.0321ZM68.6393 60.5417C69.6764 59.3173 70.8469 58.3145 72.0043 57.5207L71.268 56.4038L71.9043 55.9843L72.642 57.1031C73.7069 56.4374 74.7434 55.9452 75.6388 55.6171L71.3172 49.7526C70.9459 49.2487 70.2898 49.1675 69.9008 49.5302C67.9969 51.3053 67.472 53.73 67.633 56.1186C67.7399 57.7062 68.1496 59.2559 68.6393 60.5417ZM88.0825 78.9218L102.139 71.5837C102.376 71.4599 102.545 71.2637 102.616 71.0675C102.683 70.8813 102.665 70.6978 102.537 70.534C102.046 69.9025 101.295 69.3813 100.626 69.0238C100.017 68.6991 99.5548 68.1108 99.4448 67.4046C98.9321 64.1124 97.4643 61.6293 95.6436 59.7909C95.58 60.0128 95.514 60.2236 95.4468 60.4218L95.4437 60.4313L88.0825 78.9218Z" fill="#363636"/>
<path fill-rule="evenodd" clip-rule="evenodd" d="M70.6606 74.0615L70.5645 72.8945L71.3241 72.8319L71.4203 73.9989L70.6606 74.0615Z" fill="#363636"/>
<path fill-rule="evenodd" clip-rule="evenodd" d="M94.0005 72.1381L93.9043 70.9712L94.664 70.9086L94.7601 72.0755L94.0005 72.1381Z" fill="#363636"/>
<path fill-rule="evenodd" clip-rule="evenodd" d="M76.3951 62.1751L76.2715 60.6748L77.0311 60.6122L77.1548 62.1125L76.3951 62.1751Z" fill="#363636"/>
<path fill-rule="evenodd" clip-rule="evenodd" d="M81.7311 61.7357L81.6074 60.2354L82.3671 60.1727L82.4907 61.6731L81.7311 61.7357Z" fill="#363636"/>
<path fill-rule="evenodd" clip-rule="evenodd" d="M79.4752 66.9574L79.3516 65.457L80.1112 65.3944L80.2349 66.8948L79.4752 66.9574Z" fill="#363636"/>
<path fill-rule="evenodd" clip-rule="evenodd" d="M86.733 61.3236L86.6094 59.8232L87.369 59.7606L87.4927 61.261L86.733 61.3236Z" fill="#363636"/>
<path fill-rule="evenodd" clip-rule="evenodd" d="M84.4752 66.5448L84.3516 65.0444L85.1112 64.9818L85.2349 66.4822L84.4752 66.5448Z" fill="#363636"/>
<path fill-rule="evenodd" clip-rule="evenodd" d="M82.5553 71.7372L82.4316 70.2368L83.1913 70.1742L83.3149 71.6746L82.5553 71.7372Z" fill="#363636"/>
<path d="M40.3408 112.961L39.109 98.0148L42.1837 97.7614C43.6926 97.6371 44.9477 98.0854 45.9491 99.1064C46.512 99.6763 46.8286 100.388 46.899 101.242C47.001 102.481 46.6976 103.495 45.9888 104.284C45.2788 105.059 44.2263 105.504 42.8313 105.619L40.5466 105.807L41.1308 112.896L40.3408 112.961ZM40.4885 105.103L42.6664 104.923C44.5312 104.769 45.6457 103.947 46.0101 102.455C46.1088 102.088 46.1418 101.706 46.109 101.307C46.0397 100.468 45.6163 99.7644 44.8388 99.1979C44.0754 98.6302 43.1813 98.3886 42.1564 98.4731L39.9571 98.6543L40.4885 105.103Z" fill="#363636"/>
<path d="M66.0721 110.841L65.2394 110.909L61.9998 104.727L55.8504 105.234L53.6666 111.863L52.8339 111.932L58.165 95.7565L66.0721 110.841ZM58.1556 98.2509L56.0895 104.483L61.6197 104.028L58.5826 98.2157L58.3128 97.5501L58.1556 98.2509Z" fill="#363636"/>
<path d="M72.9098 110.277L71.6781 95.3308L72.4681 95.2657L73.6417 109.508L81.8836 108.828L81.9417 109.533L72.9098 110.277Z" fill="#363636"/>
<path d="M88.1356 93.9745L88.9257 93.9094L90.1574 108.856L89.3674 108.921L88.1356 93.9745Z" fill="#363636"/>
<path d="M103.871 93.8816L103.433 94.5627C102.558 93.8609 101.622 93.551 100.626 93.6331C99.6294 93.7152 98.899 94.0692 98.4347 94.6951C97.9845 95.3198 97.7929 96.0378 97.8598 96.8492C97.9255 97.6463 98.1971 98.2473 98.6748 98.6522C99.1512 99.0429 99.7998 99.3478 100.62 99.5668L101.366 99.7418C102.565 100.03 103.337 100.267 103.682 100.454C104.027 100.64 104.337 100.837 104.612 101.044C104.885 101.236 105.103 101.447 105.266 101.678C105.655 102.233 105.879 102.86 105.937 103.557C106.039 104.795 105.687 105.835 104.882 106.675C104.076 107.501 103.04 107.966 101.773 108.071C100.193 108.201 98.7228 107.67 97.3634 106.478L97.8711 105.855C99.0776 106.931 100.336 107.415 101.645 107.307C102.656 107.224 103.513 106.845 104.217 106.171C104.921 105.497 105.233 104.668 105.152 103.686C105.114 103.231 104.973 102.82 104.728 102.453C104.497 102.085 104.251 101.804 103.992 101.611C103.745 101.402 103.378 101.203 102.889 101.014C102.314 100.817 101.581 100.62 100.691 100.421C98.5028 99.9562 97.2957 98.8734 97.0695 97.1723C96.9258 96.1236 97.1413 95.1743 97.7162 94.3243C98.2899 93.4602 99.196 92.9771 100.434 92.875C101.673 92.773 102.818 93.1085 103.871 93.8816Z" fill="#363636"/>
<path d="M112.556 91.962L113.346 91.8969L114.578 106.843L113.788 106.908L112.556 91.962Z" fill="#363636"/>
<path d="M122.293 106.208L121.061 91.2611L129.794 90.5415L129.852 91.2461L121.909 91.9007L122.434 98.2636L129.544 97.6776L129.602 98.3822L122.492 98.9682L123.025 105.438L131.267 104.759L131.325 105.463L122.293 106.208Z" fill="#363636"/>
<path fill-rule="evenodd" clip-rule="evenodd" d="M152.109 86.503C153.695 48.6833 124.322 16.7384 86.5028 15.1521C48.6831 13.5657 16.7382 42.9387 15.1519 80.7584L14.6148 80.7359C16.2135 42.6196 48.409 13.0162 86.5253 14.615C124.642 16.2137 154.245 48.4092 152.646 86.5255L152.109 86.503Z" fill="#363636"/>
<path fill-rule="evenodd" clip-rule="evenodd" d="M15.1526 80.7583C13.5663 118.578 42.9392 150.523 80.7589 152.109C95.3336 152.721 109.035 148.734 120.463 141.439L120.752 141.892C109.234 149.245 95.4247 153.262 80.7364 152.646C42.6201 151.048 13.0167 118.852 14.6155 80.7357L15.1526 80.7583Z" fill="#363636"/>
<rect x="0.0552932" y="12.7773" width="154.897" height="154.897" rx="77.4487" transform="rotate(-4.71109 0.0552932 12.7773)" stroke="#ACACAC" stroke-width="0.102513"/>
</svg>
