<svg width="260" height="180" viewBox="0 0 260 180" fill="none" xmlns="http://www.w3.org/2000/svg">
<path d="M28.4275 130.629C30.3946 130.629 32.1412 130.969 33.6674 131.647C35.2275 132.325 36.4484 133.377 37.3302 134.801C38.212 136.192 38.6529 137.972 38.6529 140.143C38.6529 141.872 38.2629 143.5 37.4829 145.026C36.7367 146.553 35.5497 147.808 33.9217 148.791C32.3277 149.741 30.2419 150.216 27.6644 150.216H22.0175V166.342H21V130.629H28.4275ZM27.6644 149.249C29.6315 149.249 31.2594 148.944 32.5482 148.333C33.8709 147.723 34.8883 146.943 35.6006 145.993C36.3467 145.043 36.8724 144.043 37.1776 142.992C37.5168 141.94 37.6864 140.957 37.6864 140.041C37.6864 137.294 36.8215 135.208 35.0918 133.784C33.3621 132.325 31.1237 131.596 28.3766 131.596H22.0175V149.249H27.6644Z" fill="#363636"/>
<path d="M50.6959 166.342L65.5 129.001H65.6017L80.4058 166.342H79.2866L74.0467 152.963H57.0042L51.7134 166.342H50.6959ZM57.4112 152.047H73.6397L65.5509 131.494L57.4112 152.047Z" fill="#363636"/>
<path d="M98.2614 130.629H99.2789V165.376H119.73V166.342H98.2614V130.629Z" fill="#363636"/>
<path d="M136.967 130.629H137.984V166.342H136.967V130.629Z" fill="#363636"/>
<path d="M175.417 133.173C174.468 132.766 173.23 132.359 171.703 131.952C170.177 131.511 168.617 131.291 167.023 131.291C164.412 131.291 162.309 131.969 160.715 133.326C159.155 134.648 158.375 136.293 158.375 138.26C158.375 139.753 158.799 140.991 159.646 141.974C160.528 142.924 161.648 143.738 163.004 144.416C164.395 145.06 165.887 145.688 167.481 146.298C168.702 146.739 169.906 147.231 171.093 147.774C172.28 148.316 173.365 148.978 174.349 149.758C175.332 150.504 176.112 151.453 176.689 152.607C177.266 153.726 177.554 155.099 177.554 156.727C177.554 158.796 177.079 160.577 176.129 162.069C175.18 163.561 173.891 164.714 172.263 165.528C170.635 166.342 168.804 166.749 166.769 166.749C164.836 166.749 163.123 166.512 161.631 166.037C160.138 165.528 158.9 164.986 157.917 164.409C156.933 163.833 156.221 163.409 155.78 163.137L156.289 162.222C157.001 162.73 157.9 163.273 158.985 163.849C160.07 164.392 161.257 164.867 162.546 165.274C163.869 165.647 165.209 165.834 166.565 165.834C168.227 165.834 169.821 165.511 171.347 164.867C172.873 164.189 174.111 163.188 175.061 161.865C176.045 160.509 176.536 158.813 176.536 156.778C176.536 154.777 176.062 153.183 175.112 151.996C174.162 150.775 172.941 149.809 171.449 149.096C169.991 148.35 168.448 147.672 166.82 147.061C165.259 146.485 163.75 145.857 162.292 145.179C160.834 144.467 159.646 143.585 158.731 142.534C157.815 141.482 157.357 140.109 157.357 138.413C157.357 136.819 157.781 135.428 158.629 134.241C159.477 133.054 160.613 132.122 162.038 131.443C163.496 130.765 165.124 130.426 166.921 130.426C168.21 130.426 169.702 130.612 171.398 130.986C173.128 131.359 174.603 131.833 175.824 132.41L175.417 133.173Z" fill="#363636"/>
<path d="M195.399 130.629H196.417V166.342H195.399V130.629Z" fill="#363636"/>
<path d="M217.163 130.629H238.479V131.596H218.181V147.824H236.495V148.791H218.181V165.376H239.191V166.342H217.163V130.629Z" fill="#363636"/>
<path d="M115.78 32.0563L106.08 16.3364C104.923 14.4614 102.46 13.7703 100.764 15.1771C90.6907 23.5342 93.9211 39.2497 97.1291 46.6526L119.69 92.0632M115.78 32.0563C113.185 32.6494 109.872 33.8323 106.424 35.7053M115.78 32.0563C117.083 31.5157 121.503 30.4345 128.754 30.4345C136.006 30.4345 140.425 31.5157 141.729 32.0563M119.69 92.0632L82.3241 76.3135C80.5448 75.5635 79.4858 73.6193 80.6035 72.0447C81.7044 70.4936 83.2925 69.176 84.7346 68.217C86.0617 67.3344 86.9873 65.9089 87.1147 64.3202C88.3105 49.4073 97.7917 40.394 106.424 35.7053M119.69 92.0632L122.913 98.5505M122.913 98.5505L125.02 102.792C126.553 105.878 130.956 105.878 132.489 102.792L134.596 98.5505M122.913 98.5505C123.644 98.0099 125.835 96.9287 128.754 96.9287C131.674 96.9287 133.865 98.0099 134.596 98.5505M106.424 35.7053L104.427 32.0563M161.483 43.7428C161.129 44.8095 160.754 45.7877 160.379 46.6526L137.819 92.0632M161.483 43.7428C164.161 35.6778 165.641 22.5564 156.743 15.1758C155.047 13.7692 152.585 14.4614 151.428 16.3364L141.729 32.0563M161.483 43.7428C158.292 40.2673 154.618 37.6242 151.085 35.7053M161.483 43.7428C166.09 48.76 169.688 55.5117 170.394 64.3227C170.521 65.9114 171.447 67.3344 172.774 68.217C174.216 69.176 175.804 70.4936 176.905 72.0447C178.023 73.6193 176.964 75.5635 175.184 76.3135L137.819 92.0632M141.729 32.0563C144.324 32.6494 147.637 33.8323 151.085 35.7053M137.819 92.0632L134.596 98.5505M151.085 35.7053L153.081 32.0563" stroke="#363636" stroke-width="0.849236"/>
<path d="M99.5625 72.1964V75.0346" stroke="#363636" stroke-width="0.849236"/>
<path d="M156.326 72.1964V75.0346" stroke="#363636" stroke-width="0.849236"/>
<path d="M115.779 43.8096V47.4586" stroke="#363636" stroke-width="0.849236"/>
<path d="M128.757 43.8096V47.4586" stroke="#363636" stroke-width="0.849236"/>
<path d="M122.269 55.9766V59.6256" stroke="#363636" stroke-width="0.849236"/>
<path d="M140.921 43.8096V47.4586" stroke="#363636" stroke-width="0.849236"/>
<path d="M134.426 55.9766V59.6256" stroke="#363636" stroke-width="0.849236"/>
<path d="M128.757 68.1406V71.7897" stroke="#363636" stroke-width="0.849236"/>
</svg>
