<svg width="123" height="22" viewBox="0 0 123 22" fill="none" xmlns="http://www.w3.org/2000/svg">
<path d="M5.08493 1.15952C6.17776 1.15952 7.14812 1.34794 7.996 1.72477C8.86273 2.10161 9.54103 2.68571 10.0309 3.47707C10.5208 4.24958 10.7658 5.23878 10.7658 6.44466C10.7658 7.4056 10.5491 8.31 10.1157 9.15789C9.70119 10.0058 9.04172 10.7029 8.13731 11.2493C7.25175 11.7769 6.09297 12.0407 4.66099 12.0407H1.52382L1.52382 21H0.958564L0.958564 1.15952H5.08493ZM4.66099 11.5037C5.75382 11.5037 6.65823 11.3341 7.37422 10.995C8.10905 10.6558 8.67431 10.2225 9.06999 9.69488C9.48451 9.16731 9.77656 8.61147 9.94613 8.02738C10.1346 7.44328 10.2288 6.89687 10.2288 6.38813C10.2288 4.86194 9.74829 3.70317 8.78736 2.91181C7.82642 2.10161 6.58286 1.69651 5.05667 1.69651H1.52382V11.5037H4.66099ZM17.4563 21L25.6808 0.255108H25.7373L33.9618 21H33.34L30.4289 13.5669L20.9609 13.5669L18.0216 21H17.4563ZM21.187 13.0582L30.2028 13.0582L25.709 1.63998L21.187 13.0582ZM43.8816 1.15952H44.4468V20.463H55.8085V21H43.8816V1.15952ZM65.3845 1.15952H65.9497V21H65.3845V1.15952ZM86.7459 2.57266C86.2183 2.34655 85.5306 2.12045 84.6827 1.89435C83.8348 1.64941 82.9681 1.52693 82.0825 1.52693C80.6317 1.52693 79.4635 1.90377 78.5779 2.65744C77.7112 3.39228 77.2778 4.30611 77.2778 5.39894C77.2778 6.22798 77.5133 6.91571 77.9844 7.46212C78.4743 7.98969 79.0961 8.4419 79.8497 8.81873C80.6223 9.17673 81.4513 9.5253 82.3369 9.86446C83.0152 10.1094 83.6841 10.3826 84.3435 10.6841C85.003 10.9855 85.6059 11.353 86.1523 11.7863C86.6988 12.2008 87.1321 12.7284 87.4524 13.369C87.7727 13.9908 87.9329 14.7539 87.9329 15.6583C87.9329 16.8077 87.6691 17.7969 87.1415 18.6259C86.614 19.455 85.898 20.0956 84.9936 20.5478C84.0892 21 83.0717 21.2261 81.9412 21.2261C80.8672 21.2261 79.9157 21.0942 79.0866 20.8304C78.2576 20.5478 77.5699 20.2463 77.0235 19.926C76.477 19.6057 76.0814 19.3702 75.8364 19.2194L76.119 18.7107C76.5147 18.9933 77.014 19.2948 77.617 19.6151C78.2199 19.9166 78.8794 20.1804 79.5954 20.4065C80.3302 20.6137 81.0745 20.7174 81.8281 20.7174C82.7514 20.7174 83.637 20.5384 84.4848 20.1804C85.3327 19.8035 86.0204 19.2477 86.548 18.5129C87.0944 17.7592 87.3676 16.8171 87.3676 15.6866C87.3676 14.5749 87.1039 13.6894 86.5763 13.0299C86.0487 12.3516 85.3704 11.8146 84.5414 11.4189C83.7312 11.0044 82.8739 10.6276 81.9694 10.2884C81.1027 9.96809 80.2643 9.61951 79.4541 9.24268C78.6439 8.847 77.9844 8.35711 77.4757 7.77301C76.9669 7.18891 76.7126 6.42582 76.7126 5.48373C76.7126 4.59816 76.9481 3.82564 77.4191 3.16618C77.8902 2.50671 78.5214 1.98856 79.3127 1.61172C80.1229 1.23488 81.0274 1.04647 82.026 1.04647C82.742 1.04647 83.571 1.1501 84.5131 1.35736C85.474 1.56462 86.2937 1.8284 86.972 2.14871L86.7459 2.57266ZM97.847 1.15952H98.4122V21H97.847V1.15952ZM109.938 1.15952L121.78 1.15952V1.69651L110.503 1.69651V10.7123H120.678V11.2493H110.503V20.463H122.176V21H109.938V1.15952Z" fill="#363636"/>
</svg>
