<svg width="467" height="685" viewBox="0 0 467 685" fill="none" xmlns="http://www.w3.org/2000/svg">
<path d="M49.1953 107.414L51.836 113.972" stroke="#363636"/>
<path d="M1.75781 176.705L4.3985 183.263" stroke="#363636"/>
<path d="M10.7969 98.6304L13.4376 105.189" stroke="#363636"/>
<path d="M72.3086 97.6167L74.9493 104.175" stroke="#363636"/>
<path d="M-1.95898 229.444L0.681704 236.003" stroke="#363636"/>
<path d="M24.8711 166.917L27.5118 173.475" stroke="#363636"/>
<path d="M8.04492 125.393L10.6856 131.951" stroke="#363636"/>
<path d="M69.5605 124.378L72.2012 130.937" stroke="#363636"/>
<path d="M22.1191 193.679L24.7598 200.237" stroke="#363636"/>
<path d="M32.4688 89.46L35.1094 96.0183" stroke="#363636"/>
<path d="M93.9844 88.4458L96.6251 95.0041" stroke="#363636"/>
<path d="M19.7109 220.257L22.3516 226.815" stroke="#363636"/>
<path d="M46.541 157.737L49.1817 164.296" stroke="#363636"/>
<path d="M29.7148 116.213L32.3555 122.772" stroke="#363636"/>
<path d="M91.2305 115.199L93.8712 121.758" stroke="#363636"/>
<path d="M16.9531 247.02L19.5938 253.578" stroke="#363636"/>
<path d="M43.7871 184.492L46.4278 191.05" stroke="#363636"/>
<path d="M28.4043 142.358L31.045 148.916" stroke="#363636"/>
<path d="M89.916 141.345L92.5567 147.903" stroke="#363636"/>
<path d="M15.6445 273.165L18.2852 279.723" stroke="#363636"/>
<path d="M42.4766 210.636L45.1173 217.195" stroke="#363636"/>
<path d="M214.912 366.915L217.553 373.473" stroke="#363636"/>
<path d="M140.643 498.743L143.283 505.301" stroke="#363636"/>
<path d="M341.938 365.77L344.578 372.328" stroke="#363636"/>
<path d="M267.66 497.59L270.301 504.149" stroke="#363636"/>
<path d="M167.475 436.214L170.115 442.773" stroke="#363636"/>
<path d="M93.2031 568.034L95.8438 574.592" stroke="#363636"/>
<path d="M294.494 435.062L297.135 441.62" stroke="#363636"/>
<path d="M220.223 566.881L222.863 573.44" stroke="#363636"/>
<path d="M276.428 365.9L279.068 372.459" stroke="#363636"/>
<path d="M202.154 497.72L204.795 504.279" stroke="#363636"/>
<path d="M403.447 364.757L406.088 371.315" stroke="#363636"/>
<path d="M329.174 496.568L331.815 503.126" stroke="#363636"/>
<path d="M228.986 435.201L231.627 441.759" stroke="#363636"/>
<path d="M154.715 567.021L157.356 573.579" stroke="#363636"/>
<path d="M356.01 434.048L358.65 440.606" stroke="#363636"/>
<path d="M281.736 565.868L284.377 572.426" stroke="#363636"/>
<path d="M238.027 357.126L240.668 363.685" stroke="#363636"/>
<path d="M163.754 488.946L166.395 495.504" stroke="#363636"/>
<path d="M365.049 355.974L367.69 362.532" stroke="#363636"/>
<path d="M290.779 487.802L293.42 494.36" stroke="#363636"/>
<path d="M190.59 426.426L193.231 432.985" stroke="#363636"/>
<path d="M116.318 558.246L118.959 564.804" stroke="#363636"/>
<path d="M317.607 425.274L320.248 431.832" stroke="#363636"/>
<path d="M243.336 557.093L245.977 563.652" stroke="#363636"/>
<path d="M299.541 356.113L302.182 362.671" stroke="#363636"/>
<path d="M225.27 487.932L227.91 494.49" stroke="#363636"/>
<path d="M426.561 354.96L429.201 361.518" stroke="#363636"/>
<path d="M352.293 486.788L354.934 493.346" stroke="#363636"/>
<path d="M252.105 425.412L254.746 431.97" stroke="#363636"/>
<path d="M177.832 557.232L180.473 563.79" stroke="#363636"/>
<path d="M379.123 424.26L381.764 430.819" stroke="#363636"/>
<path d="M304.852 556.08L307.492 562.638" stroke="#363636"/>
<path d="M235.273 383.889L237.914 390.447" stroke="#363636"/>
<path d="M161.002 515.708L163.643 522.267" stroke="#363636"/>
<path d="M362.297 382.735L364.938 389.294" stroke="#363636"/>
<path d="M288.02 514.556L290.66 521.114" stroke="#363636"/>
<path d="M187.836 453.18L190.477 459.738" stroke="#363636"/>
<path d="M113.561 585.009L116.201 591.567" stroke="#363636"/>
<path d="M314.855 452.036L317.496 458.594" stroke="#363636"/>
<path d="M240.584 583.855L243.225 590.414" stroke="#363636"/>
<path d="M296.789 382.875L299.43 389.433" stroke="#363636"/>
<path d="M222.518 514.694L225.158 521.253" stroke="#363636"/>
<path d="M423.812 381.722L426.453 388.28" stroke="#363636"/>
<path d="M349.535 513.542L352.176 520.1" stroke="#363636"/>
<path d="M249.346 452.167L251.986 458.725" stroke="#363636"/>
<path d="M175.074 583.986L177.715 590.545" stroke="#363636"/>
<path d="M376.371 451.022L379.012 457.58" stroke="#363636"/>
<path d="M302.092 582.834L304.732 589.392" stroke="#363636"/>
<path d="M259.697 347.948L262.338 354.506" stroke="#363636"/>
<path d="M185.426 479.776L188.066 486.334" stroke="#363636"/>
<path d="M386.721 346.803L389.361 353.361" stroke="#363636"/>
<path d="M312.449 478.622L315.09 485.18" stroke="#363636"/>
<path d="M212.26 417.247L214.9 423.805" stroke="#363636"/>
<path d="M137.986 549.067L140.627 555.625" stroke="#363636"/>
<path d="M339.277 416.095L341.918 422.653" stroke="#363636"/>
<path d="M265.006 547.915L267.647 554.473" stroke="#363636"/>
<path d="M321.211 346.934L323.852 353.492" stroke="#363636"/>
<path d="M246.939 478.753L249.58 485.312" stroke="#363636"/>
<path d="M448.236 345.789L450.877 352.347" stroke="#363636"/>
<path d="M373.963 477.6L376.604 484.158" stroke="#363636"/>
<path d="M273.775 416.233L276.416 422.791" stroke="#363636"/>
<path d="M199.502 548.052L202.143 554.611" stroke="#363636"/>
<path d="M400.793 415.081L403.434 421.639" stroke="#363636"/>
<path d="M326.521 546.9L329.162 553.459" stroke="#363636"/>
<path d="M256.943 374.709L259.584 381.268" stroke="#363636"/>
<path d="M182.672 506.529L185.313 513.087" stroke="#363636"/>
<path d="M383.967 373.556L386.607 380.114" stroke="#363636"/>
<path d="M309.695 505.376L312.336 511.935" stroke="#363636"/>
<path d="M209.502 444.002L212.143 450.56" stroke="#363636"/>
<path d="M135.229 575.821L137.869 582.38" stroke="#363636"/>
<path d="M336.523 442.849L339.164 449.407" stroke="#363636"/>
<path d="M262.254 574.677L264.895 581.235" stroke="#363636"/>
<path d="M318.459 373.696L321.1 380.254" stroke="#363636"/>
<path d="M244.188 505.515L246.828 512.073" stroke="#363636"/>
<path d="M445.482 372.542L448.123 379.101" stroke="#363636"/>
<path d="M371.205 504.363L373.846 510.922" stroke="#363636"/>
<path d="M271.016 442.988L273.656 449.546" stroke="#363636"/>
<path d="M196.744 574.807L199.385 581.365" stroke="#363636"/>
<path d="M398.039 441.835L400.68 448.393" stroke="#363636"/>
<path d="M323.768 573.663L326.408 580.221" stroke="#363636"/>
<path d="M255.635 400.854L258.275 407.413" stroke="#363636"/>
<path d="M181.367 532.673L184.008 539.232" stroke="#363636"/>
<path d="M382.656 399.701L385.297 406.259" stroke="#363636"/>
<path d="M308.387 531.529L311.027 538.088" stroke="#363636"/>
<path d="M208.197 470.154L210.838 476.713" stroke="#363636"/>
<path d="M133.92 601.974L136.561 608.532" stroke="#363636"/>
<path d="M335.215 469.002L337.856 475.56" stroke="#363636"/>
<path d="M260.943 600.821L263.584 607.38" stroke="#363636"/>
<path d="M317.148 399.841L319.789 406.399" stroke="#363636"/>
<path d="M242.877 531.66L245.518 538.218" stroke="#363636"/>
<path d="M444.168 398.688L446.809 405.246" stroke="#363636"/>
<path d="M369.896 530.508L372.537 537.066" stroke="#363636"/>
<path d="M269.711 469.132L272.352 475.69" stroke="#363636"/>
<path d="M195.436 600.96L198.076 607.519" stroke="#363636"/>
<path d="M396.729 467.979L399.369 474.538" stroke="#363636"/>
<path d="M322.459 599.807L325.1 606.365" stroke="#363636"/>
<path d="M38.6758 239.832L41.3165 246.39" stroke="#363636"/>
<path d="M165.701 238.688L168.342 245.246" stroke="#363636"/>
<path d="M91.4238 370.508L94.0645 377.066" stroke="#363636"/>
<path d="M118.258 307.979L120.899 314.538" stroke="#363636"/>
<path d="M43.9863 439.799L46.627 446.357" stroke="#363636"/>
<path d="M100.191 238.818L102.832 245.376" stroke="#363636"/>
<path d="M25.918 370.638L28.5587 377.196" stroke="#363636"/>
<path d="M227.211 237.674L229.852 244.233" stroke="#363636"/>
<path d="M152.938 369.485L155.578 376.044" stroke="#363636"/>
<path d="M52.75 308.119L55.3907 314.677" stroke="#363636"/>
<path d="M179.773 306.966L182.414 313.524" stroke="#363636"/>
<path d="M105.5 438.785L108.141 445.343" stroke="#363636"/>
<path d="M61.791 230.044L64.4317 236.602" stroke="#363636"/>
<path d="M188.812 228.891L191.453 235.449" stroke="#363636"/>
<path d="M114.543 360.719L117.184 367.278" stroke="#363636"/>
<path d="M14.3535 299.344L16.9942 305.902" stroke="#363636"/>
<path d="M141.371 298.191L144.012 304.75" stroke="#363636"/>
<path d="M67.0996 430.011L69.7403 436.569" stroke="#363636"/>
<path d="M123.305 229.03L125.945 235.589" stroke="#363636"/>
<path d="M49.0332 360.85L51.6739 367.408" stroke="#363636"/>
<path d="M250.324 227.877L252.965 234.436" stroke="#363636"/>
<path d="M176.057 359.705L178.697 366.263" stroke="#363636"/>
<path d="M75.8691 298.33L78.5098 304.888" stroke="#363636"/>
<path d="M1.5957 430.149L4.23639 436.708" stroke="#363636"/>
<path d="M202.887 297.178L205.527 303.736" stroke="#363636"/>
<path d="M128.615 428.997L131.256 435.555" stroke="#363636"/>
<path d="M59.0371 256.806L61.6778 263.364" stroke="#363636"/>
<path d="M186.061 255.653L188.701 262.212" stroke="#363636"/>
<path d="M111.783 387.474L114.424 394.032" stroke="#363636"/>
<path d="M11.5996 326.098L14.2403 332.656" stroke="#363636"/>
<path d="M138.619 324.954L141.26 331.512" stroke="#363636"/>
<path d="M64.3477 456.773L66.9883 463.331" stroke="#363636"/>
<path d="M120.553 255.792L123.193 262.35" stroke="#363636"/>
<path d="M46.2812 387.612L48.9219 394.17" stroke="#363636"/>
<path d="M247.576 254.639L250.217 261.197" stroke="#363636"/>
<path d="M173.299 386.459L175.94 393.017" stroke="#363636"/>
<path d="M73.1094 325.084L75.7501 331.642" stroke="#363636"/>
<path d="M-1.16211 456.904L1.47858 463.462" stroke="#363636"/>
<path d="M200.135 323.939L202.775 330.498" stroke="#363636"/>
<path d="M125.855 455.751L128.496 462.31" stroke="#363636"/>
<path d="M83.4609 220.865L86.1016 227.424" stroke="#363636"/>
<path d="M9.18945 352.693L11.8301 359.251" stroke="#363636"/>
<path d="M210.484 219.72L213.125 226.279" stroke="#363636"/>
<path d="M136.213 351.54L138.854 358.098" stroke="#363636"/>
<path d="M36.0234 290.165L38.6641 296.723" stroke="#363636"/>
<path d="M163.041 289.012L165.682 295.571" stroke="#363636"/>
<path d="M88.7695 420.832L91.4102 427.39" stroke="#363636"/>
<path d="M144.975 219.851L147.615 226.409" stroke="#363636"/>
<path d="M70.7031 351.671L73.3438 358.229" stroke="#363636"/>
<path d="M272 218.707L274.641 225.265" stroke="#363636"/>
<path d="M197.727 350.518L200.367 357.076" stroke="#363636"/>
<path d="M97.5391 289.151L100.18 295.709" stroke="#363636"/>
<path d="M23.2656 420.97L25.9063 427.528" stroke="#363636"/>
<path d="M224.557 287.998L227.197 294.556" stroke="#363636"/>
<path d="M150.285 419.818L152.926 426.376" stroke="#363636"/>
<path d="M80.707 247.627L83.3477 254.186" stroke="#363636"/>
<path d="M6.43555 379.446L9.07624 386.005" stroke="#363636"/>
<path d="M207.73 246.474L210.371 253.032" stroke="#363636"/>
<path d="M133.459 378.294L136.1 384.852" stroke="#363636"/>
<path d="M33.2656 316.919L35.9063 323.478" stroke="#363636"/>
<path d="M160.287 315.766L162.928 322.324" stroke="#363636"/>
<path d="M86.0176 447.594L88.6583 454.153" stroke="#363636"/>
<path d="M142.223 246.613L144.863 253.172" stroke="#363636"/>
<path d="M67.9512 378.433L70.5919 384.991" stroke="#363636"/>
<path d="M269.246 245.46L271.887 252.018" stroke="#363636"/>
<path d="M194.969 377.281L197.609 383.839" stroke="#363636"/>
<path d="M94.7793 315.905L97.42 322.464" stroke="#363636"/>
<path d="M20.5078 447.725L23.1485 454.283" stroke="#363636"/>
<path d="M221.803 314.752L224.443 321.311" stroke="#363636"/>
<path d="M147.531 446.58L150.172 453.138" stroke="#363636"/>
<path d="M79.3984 273.772L82.0391 280.33" stroke="#363636"/>
<path d="M5.13086 405.591L7.77155 412.149" stroke="#363636"/>
<path d="M206.42 272.619L209.061 279.177" stroke="#363636"/>
<path d="M132.15 404.447L134.791 411.005" stroke="#363636"/>
<path d="M31.9609 343.071L34.6016 349.63" stroke="#363636"/>
<path d="M158.979 341.919L161.619 348.478" stroke="#363636"/>
<path d="M84.707 473.739L87.3477 480.297" stroke="#363636"/>
<path d="M140.912 272.758L143.553 279.317" stroke="#363636"/>
<path d="M66.6406 404.578L69.2813 411.136" stroke="#363636"/>
<path d="M267.932 271.605L270.572 278.164" stroke="#363636"/>
<path d="M193.66 403.425L196.301 409.984" stroke="#363636"/>
<path d="M93.4746 342.049L96.1153 348.608" stroke="#363636"/>
<path d="M19.1992 473.878L21.8399 480.436" stroke="#363636"/>
<path d="M220.492 340.897L223.133 347.455" stroke="#363636"/>
<path d="M146.223 472.725L148.863 479.283" stroke="#363636"/>
</svg>
