<svg width="333" height="489" viewBox="0 0 333 489" fill="none" xmlns="http://www.w3.org/2000/svg">
<path d="M55.3904 45.3995L58.0311 51.9578" stroke="#363636"/>
<path d="M182.409 44.2472L185.05 50.8055" stroke="#363636"/>
<path d="M7.95201 114.691L10.5927 121.249" stroke="#363636"/>
<path d="M134.971 113.538L137.611 120.097" stroke="#363636"/>
<path d="M116.904 44.377L119.544 50.9352" stroke="#363636"/>
<path d="M243.923 43.2247L246.563 49.783" stroke="#363636"/>
<path d="M69.4626 113.677L72.1033 120.236" stroke="#363636"/>
<path d="M196.486 112.524L199.126 119.083" stroke="#363636"/>
<path d="M78.5034 35.6029L81.1441 42.1612" stroke="#363636"/>
<path d="M205.528 34.4585L208.168 41.0168" stroke="#363636"/>
<path d="M31.0663 104.902L33.707 111.461" stroke="#363636"/>
<path d="M158.085 103.75L160.725 110.309" stroke="#363636"/>
<path d="M140.018 34.5891L142.659 41.1474" stroke="#363636"/>
<path d="M267.042 33.4445L269.683 40.0028" stroke="#363636"/>
<path d="M92.5811 103.889L95.2218 110.447" stroke="#363636"/>
<path d="M219.6 102.736L222.241 109.295" stroke="#363636"/>
<path d="M75.7507 62.3651L78.3914 68.9234" stroke="#363636"/>
<path d="M202.769 61.2129L205.41 67.7712" stroke="#363636"/>
<path d="M102.584 -0.16333L105.225 6.39496" stroke="#363636"/>
<path d="M28.3095 131.665L30.9502 138.224" stroke="#363636"/>
<path d="M229.604 -1.30713L232.245 5.25117" stroke="#363636"/>
<path d="M155.332 130.512L157.973 137.071" stroke="#363636"/>
<path d="M137.266 61.3512L139.906 67.9095" stroke="#363636"/>
<path d="M264.284 60.1987L266.925 66.757" stroke="#363636"/>
<path d="M164.095 -1.17651L166.736 5.38178" stroke="#363636"/>
<path d="M89.8228 130.643L92.4635 137.201" stroke="#363636"/>
<path d="M291.119 -2.32104L293.76 4.23725" stroke="#363636"/>
<path d="M216.841 129.491L219.482 136.049" stroke="#363636"/>
<path d="M100.175 26.4325L102.815 32.9908" stroke="#363636"/>
<path d="M227.198 25.2793L229.838 31.8376" stroke="#363636"/>
<path d="M52.736 95.7236L55.3767 102.282" stroke="#363636"/>
<path d="M179.755 94.5712L182.396 101.129" stroke="#363636"/>
<path d="M161.688 25.41L164.329 31.9683" stroke="#363636"/>
<path d="M288.711 24.257L291.352 30.8153" stroke="#363636"/>
<path d="M114.251 94.7096L116.892 101.268" stroke="#363636"/>
<path d="M241.27 93.5574L243.911 100.116" stroke="#363636"/>
<path d="M97.4207 53.186L100.061 59.7443" stroke="#363636"/>
<path d="M224.443 52.033L227.084 58.5913" stroke="#363636"/>
<path d="M49.9779 122.478L52.6186 129.036" stroke="#363636"/>
<path d="M177.002 121.333L179.643 127.892" stroke="#363636"/>
<path d="M158.936 52.1721L161.576 58.7304" stroke="#363636"/>
<path d="M285.954 51.0199L288.595 57.5782" stroke="#363636"/>
<path d="M111.493 121.464L114.134 128.022" stroke="#363636"/>
<path d="M238.517 120.319L241.158 126.878" stroke="#363636"/>
<path d="M96.1151 79.3298L98.7558 85.8881" stroke="#363636"/>
<path d="M223.135 78.1863L225.776 84.7446" stroke="#363636"/>
<path d="M122.946 16.8108L125.586 23.3691" stroke="#363636"/>
<path d="M48.6696 148.631L51.3102 155.189" stroke="#363636"/>
<path d="M249.964 15.6586L252.605 22.2169" stroke="#363636"/>
<path d="M175.692 147.478L178.333 154.036" stroke="#363636"/>
<path d="M157.626 78.3167L160.266 84.8749" stroke="#363636"/>
<path d="M284.645 77.1644L287.285 83.7227" stroke="#363636"/>
<path d="M184.459 15.7883L187.1 22.3466" stroke="#363636"/>
<path d="M110.185 147.617L112.825 154.175" stroke="#363636"/>
<path d="M311.478 14.6361L314.119 21.1944" stroke="#363636"/>
<path d="M237.208 146.464L239.848 153.022" stroke="#363636"/>
<path d="M307.677 43.832L310.317 50.3903" stroke="#363636"/>
<path d="M233.406 175.66L236.047 182.219" stroke="#363636"/>
<path d="M260.24 113.132L262.88 119.69" stroke="#363636"/>
<path d="M185.968 244.951L188.608 251.51" stroke="#363636"/>
<path d="M312.986 243.799L315.627 250.357" stroke="#363636"/>
<path d="M294.919 174.638L297.56 181.196" stroke="#363636"/>
<path d="M321.75 112.119L324.391 118.677" stroke="#363636"/>
<path d="M247.478 243.938L250.119 250.496" stroke="#363636"/>
<path d="M330.791 34.0441L333.432 40.6024" stroke="#363636"/>
<path d="M256.519 165.864L259.16 172.422" stroke="#363636"/>
<path d="M283.354 103.344L285.994 109.902" stroke="#363636"/>
<path d="M209.082 235.163L211.722 241.722" stroke="#363636"/>
<path d="M318.034 164.85L320.674 171.408" stroke="#363636"/>
<path d="M270.597 234.149L273.237 240.708" stroke="#363636"/>
<path d="M328.038 60.8063L330.679 67.3646" stroke="#363636"/>
<path d="M253.766 192.626L256.407 199.184" stroke="#363636"/>
<path d="M280.6 130.097L283.24 136.656" stroke="#363636"/>
<path d="M206.325 261.926L208.966 268.484" stroke="#363636"/>
<path d="M333.348 260.773L335.988 267.331" stroke="#363636"/>
<path d="M315.281 191.612L317.922 198.17" stroke="#363636"/>
<path d="M267.838 260.904L270.479 267.462" stroke="#363636"/>
<path d="M278.19 156.693L280.831 163.251" stroke="#363636"/>
<path d="M305.024 94.1647L307.664 100.723" stroke="#363636"/>
<path d="M230.752 225.984L233.392 232.543" stroke="#363636"/>
<path d="M292.267 224.97L294.907 231.528" stroke="#363636"/>
<path d="M275.436 183.447L278.077 190.005" stroke="#363636"/>
<path d="M302.265 120.919L304.906 127.478" stroke="#363636"/>
<path d="M227.993 252.739L230.634 259.297" stroke="#363636"/>
<path d="M289.508 251.725L292.149 258.283" stroke="#363636"/>
<path d="M274.131 209.591L276.771 216.149" stroke="#363636"/>
<path d="M300.961 147.072L303.602 153.63" stroke="#363636"/>
<path d="M226.685 278.892L229.326 285.45" stroke="#363636"/>
<path d="M288.2 277.878L290.841 284.436" stroke="#363636"/>
</svg>
