<svg width="467" height="430" viewBox="0 0 467 430" fill="none" xmlns="http://www.w3.org/2000/svg">
<path d="M49.196 107.414L51.8367 113.972" stroke="#363636"/>
<path d="M1.75763 176.705L4.39832 183.263" stroke="#363636"/>
<path d="M10.7982 98.6304L13.4389 105.189" stroke="#363636"/>
<path d="M72.309 97.6169L74.9497 104.175" stroke="#363636"/>
<path d="M-1.95746 229.444L0.68323 236.003" stroke="#363636"/>
<path d="M24.8719 166.917L27.5126 173.475" stroke="#363636"/>
<path d="M8.04547 125.393L10.6862 131.951" stroke="#363636"/>
<path d="M69.5605 124.378L72.2012 130.937" stroke="#363636"/>
<path d="M22.1192 193.679L24.7599 200.237" stroke="#363636"/>
<path d="M32.4698 89.4597L35.1105 96.018" stroke="#363636"/>
<path d="M93.9847 88.4456L96.6254 95.0039" stroke="#363636"/>
<path d="M19.7111 220.257L22.3517 226.815" stroke="#363636"/>
<path d="M46.5418 157.738L49.1825 164.296" stroke="#363636"/>
<path d="M29.7156 116.213L32.3563 122.772" stroke="#363636"/>
<path d="M91.2306 115.199L93.8713 121.758" stroke="#363636"/>
<path d="M16.9543 247.02L19.595 253.578" stroke="#363636"/>
<path d="M43.7877 184.491L46.4283 191.05" stroke="#363636"/>
<path d="M28.4058 142.358L31.0465 148.916" stroke="#363636"/>
<path d="M89.9165 141.345L92.5572 147.903" stroke="#363636"/>
<path d="M15.6445 273.164L18.2852 279.723" stroke="#363636"/>
<path d="M42.478 210.636L45.1187 217.194" stroke="#363636"/>
<path d="M214.913 366.915L217.554 373.473" stroke="#363636"/>
<path d="M341.937 365.77L344.578 372.328" stroke="#363636"/>
<path d="M276.428 365.901L279.069 372.459" stroke="#363636"/>
<path d="M403.448 364.757L406.089 371.315" stroke="#363636"/>
<path d="M238.027 357.127L240.668 363.685" stroke="#363636"/>
<path d="M365.05 355.974L367.691 362.532" stroke="#363636"/>
<path d="M190.59 426.426L193.231 432.985" stroke="#363636"/>
<path d="M317.609 425.274L320.25 431.832" stroke="#363636"/>
<path d="M299.542 356.113L302.183 362.671" stroke="#363636"/>
<path d="M426.561 354.96L429.202 361.518" stroke="#363636"/>
<path d="M252.105 425.412L254.746 431.97" stroke="#363636"/>
<path d="M379.124 424.26L381.765 430.818" stroke="#363636"/>
<path d="M235.275 383.889L237.915 390.447" stroke="#363636"/>
<path d="M362.297 382.736L364.938 389.294" stroke="#363636"/>
<path d="M296.79 382.875L299.43 389.433" stroke="#363636"/>
<path d="M423.812 381.722L426.453 388.28" stroke="#363636"/>
<path d="M259.697 347.948L262.338 354.506" stroke="#363636"/>
<path d="M386.722 346.803L389.362 353.361" stroke="#363636"/>
<path d="M212.26 417.247L214.901 423.805" stroke="#363636"/>
<path d="M339.279 416.095L341.92 422.654" stroke="#363636"/>
<path d="M321.212 346.934L323.853 353.492" stroke="#363636"/>
<path d="M448.237 345.789L450.877 352.347" stroke="#363636"/>
<path d="M273.775 416.233L276.416 422.791" stroke="#363636"/>
<path d="M400.794 415.081L403.434 421.639" stroke="#363636"/>
<path d="M256.945 374.71L259.585 381.268" stroke="#363636"/>
<path d="M383.968 373.556L386.608 380.115" stroke="#363636"/>
<path d="M318.46 373.696L321.1 380.254" stroke="#363636"/>
<path d="M445.483 372.543L448.123 379.101" stroke="#363636"/>
<path d="M255.635 400.854L258.275 407.413" stroke="#363636"/>
<path d="M382.658 399.701L385.298 406.259" stroke="#363636"/>
<path d="M317.15 399.841L319.79 406.399" stroke="#363636"/>
<path d="M444.168 398.688L446.809 405.246" stroke="#363636"/>
<path d="M38.6766 239.832L41.3173 246.39" stroke="#363636"/>
<path d="M165.701 238.688L168.342 245.246" stroke="#363636"/>
<path d="M91.4246 370.508L94.0652 377.066" stroke="#363636"/>
<path d="M118.258 307.979L120.899 314.538" stroke="#363636"/>
<path d="M100.191 238.818L102.832 245.377" stroke="#363636"/>
<path d="M25.9193 370.638L28.56 377.196" stroke="#363636"/>
<path d="M227.212 237.674L229.852 244.233" stroke="#363636"/>
<path d="M152.938 369.486L155.579 376.044" stroke="#363636"/>
<path d="M52.7502 308.118L55.3909 314.677" stroke="#363636"/>
<path d="M179.773 306.966L182.414 313.524" stroke="#363636"/>
<path d="M61.7909 230.044L64.4316 236.602" stroke="#363636"/>
<path d="M188.814 228.891L191.454 235.449" stroke="#363636"/>
<path d="M114.543 360.719L117.184 367.277" stroke="#363636"/>
<path d="M14.3538 299.344L16.9945 305.902" stroke="#363636"/>
<path d="M141.372 298.191L144.013 304.75" stroke="#363636"/>
<path d="M67.1005 430.011L69.7412 436.569" stroke="#363636"/>
<path d="M123.306 229.03L125.946 235.589" stroke="#363636"/>
<path d="M49.0337 360.85L51.6744 367.408" stroke="#363636"/>
<path d="M250.325 227.878L252.965 234.436" stroke="#363636"/>
<path d="M176.058 359.705L178.699 366.263" stroke="#363636"/>
<path d="M75.8688 298.33L78.5095 304.888" stroke="#363636"/>
<path d="M1.59668 430.149L4.23737 436.708" stroke="#363636"/>
<path d="M202.887 297.177L205.528 303.736" stroke="#363636"/>
<path d="M128.616 428.997L131.256 435.555" stroke="#363636"/>
<path d="M59.0383 256.806L61.679 263.364" stroke="#363636"/>
<path d="M186.061 255.653L188.702 262.212" stroke="#363636"/>
<path d="M111.785 387.474L114.425 394.032" stroke="#363636"/>
<path d="M11.5997 326.097L14.2404 332.656" stroke="#363636"/>
<path d="M138.62 324.954L141.261 331.512" stroke="#363636"/>
<path d="M120.553 255.792L123.194 262.351" stroke="#363636"/>
<path d="M46.281 387.612L48.9217 394.17" stroke="#363636"/>
<path d="M247.576 254.639L250.217 261.197" stroke="#363636"/>
<path d="M173.3 386.459L175.941 393.018" stroke="#363636"/>
<path d="M73.1105 325.084L75.7512 331.642" stroke="#363636"/>
<path d="M200.135 323.94L202.775 330.498" stroke="#363636"/>
<path d="M83.4609 220.865L86.1016 227.423" stroke="#363636"/>
<path d="M9.19043 352.693L11.8311 359.251" stroke="#363636"/>
<path d="M210.485 219.72L213.126 226.279" stroke="#363636"/>
<path d="M136.213 351.54L138.854 358.098" stroke="#363636"/>
<path d="M36.0238 290.165L38.6645 296.723" stroke="#363636"/>
<path d="M163.042 289.013L165.683 295.571" stroke="#363636"/>
<path d="M88.7705 420.832L91.4112 427.39" stroke="#363636"/>
<path d="M144.976 219.851L147.616 226.409" stroke="#363636"/>
<path d="M70.7037 351.671L73.3444 358.229" stroke="#363636"/>
<path d="M272 218.706L274.641 225.265" stroke="#363636"/>
<path d="M197.727 350.518L200.367 357.076" stroke="#363636"/>
<path d="M97.5388 289.151L100.18 295.709" stroke="#363636"/>
<path d="M23.2668 420.97L25.9075 427.528" stroke="#363636"/>
<path d="M224.557 287.999L227.198 294.557" stroke="#363636"/>
<path d="M150.285 419.818L152.926 426.376" stroke="#363636"/>
<path d="M80.7081 247.627L83.3488 254.186" stroke="#363636"/>
<path d="M6.43616 379.447L9.07685 386.005" stroke="#363636"/>
<path d="M207.731 246.474L210.372 253.032" stroke="#363636"/>
<path d="M133.459 378.294L136.1 384.852" stroke="#363636"/>
<path d="M33.2653 316.919L35.906 323.477" stroke="#363636"/>
<path d="M160.288 315.766L162.929 322.324" stroke="#363636"/>
<path d="M142.223 246.613L144.864 253.172" stroke="#363636"/>
<path d="M67.9512 378.433L70.5919 384.991" stroke="#363636"/>
<path d="M269.246 245.46L271.887 252.018" stroke="#363636"/>
<path d="M194.97 377.281L197.61 383.839" stroke="#363636"/>
<path d="M94.7805 315.905L97.4211 322.464" stroke="#363636"/>
<path d="M221.803 314.752L224.444 321.31" stroke="#363636"/>
<path d="M79.3983 273.772L82.039 280.33" stroke="#363636"/>
<path d="M5.13062 405.591L7.7713 412.149" stroke="#363636"/>
<path d="M206.421 272.619L209.062 279.177" stroke="#363636"/>
<path d="M132.151 404.447L134.792 411.005" stroke="#363636"/>
<path d="M31.9612 343.072L34.6019 349.63" stroke="#363636"/>
<path d="M158.98 341.919L161.621 348.477" stroke="#363636"/>
<path d="M140.913 272.758L143.554 279.316" stroke="#363636"/>
<path d="M66.6413 404.577L69.282 411.136" stroke="#363636"/>
<path d="M267.932 271.605L270.573 278.164" stroke="#363636"/>
<path d="M193.66 403.425L196.301 409.983" stroke="#363636"/>
<path d="M93.4748 342.049L96.1155 348.607" stroke="#363636"/>
<path d="M220.493 340.897L223.134 347.455" stroke="#363636"/>
</svg>
