<svg width="222" height="90" viewBox="0 0 222 90" fill="none" xmlns="http://www.w3.org/2000/svg">
<path d="M0 70.4441H222" stroke="#E76F18" stroke-width="0.85"/>
<path d="M93.7708 70.5378V53.9406M93.7708 33.6552V47.2557M93.7708 47.2557L97.2214 44.0285M93.7708 47.2557V53.9406M87.3297 35.7299L89.1701 37.574M93.7708 29.506V26.5093M93.7708 53.9406H113.723C113.975 53.9406 114.149 53.6889 114.059 53.4537L94.1012 0.870493C93.9846 0.563204 93.5508 0.560791 93.4307 0.866762L72.7998 53.45C72.7073 53.6857 72.8811 53.9406 73.1343 53.9406H93.7708Z" stroke="#363636" stroke-width="0.85" stroke-linejoin="round"/>
<path d="M64.2808 67.317L66.5188 67.9915" stroke="#363636" stroke-width="0.85" stroke-linejoin="round"/>
<path d="M65.2593 61.6555L68.413 64.0936" stroke="#363636" stroke-width="0.85" stroke-linejoin="round"/>
<path d="M70.9132 59.4514L71.9016 61.5696" stroke="#363636" stroke-width="0.85" stroke-linejoin="round"/>
<path d="M82.1321 59.5458L81.0585 61.6222" stroke="#363636" stroke-width="0.85" stroke-linejoin="round"/>
<path d="M76.5028 56.7572L76.5026 60.5634" stroke="#363636" stroke-width="0.85" stroke-linejoin="round"/>
<path d="M87.5475 61.8993L84.5412 64.1992" stroke="#363636" stroke-width="0.85" stroke-linejoin="round"/>
<path d="M88.6453 67.5087L86.3817 68.0918" stroke="#363636" stroke-width="0.85" stroke-linejoin="round"/>
<path d="M85.3943 70.9827C85.3943 69.8274 85.1667 68.6834 84.7246 67.6161C84.2825 66.5488 83.6345 65.579 82.8176 64.7621C82.0007 63.9452 81.0309 63.2972 79.9636 62.8551C78.8963 62.413 77.7523 62.1854 76.597 62.1854C75.4418 62.1854 74.2978 62.413 73.2305 62.8551C72.1632 63.2972 71.1934 63.9452 70.3765 64.7621C69.5596 65.579 68.9116 66.5488 68.4695 67.6161C68.0274 68.6834 67.7998 69.8274 67.7998 70.9827" stroke="#363636" stroke-width="0.85" stroke-linejoin="round"/>
<path d="M128.73 30.1906L125.347 24.7071C125.019 24.176 124.324 23.9824 123.83 24.3641C120.232 27.1466 121.339 32.5776 122.438 35.1146L130.049 50.4336M128.73 30.1906C127.855 30.3907 126.737 30.7898 125.574 31.4216M128.73 30.1906C129.17 30.0083 130.661 29.6435 133.107 29.6435C135.553 29.6435 137.044 30.0083 137.484 30.1906M130.049 50.4336L117.28 45.0513C116.776 44.8388 116.473 44.2911 116.764 43.8286C117.163 43.197 117.815 42.6688 118.375 42.3123C118.756 42.07 119.018 41.6653 119.05 41.215C119.404 36.1004 122.635 33.018 125.574 31.4216M130.049 50.4336L131.136 52.622M131.136 52.622L132.049 54.4596C132.483 55.3336 133.73 55.3336 134.165 54.4596L135.077 52.622M131.136 52.622C131.383 52.4396 132.122 52.0749 133.107 52.0749C134.092 52.0749 134.831 52.4396 135.077 52.622M125.574 31.4216L124.9 30.1906M144.148 34.133C144.028 34.4928 143.902 34.8229 143.775 35.1146L136.165 50.4336M144.148 34.133C145.067 31.3635 145.568 26.8265 142.384 24.364C141.89 23.9823 141.195 24.176 140.867 24.7071L137.484 30.1906M144.148 34.133C143.071 32.9606 141.832 32.0689 140.64 31.4216M144.148 34.133C145.726 35.8521 146.954 38.1748 147.164 41.2159C147.195 41.6662 147.458 42.07 147.838 42.3123C148.399 42.6688 149.051 43.197 149.449 43.8286C149.741 44.2911 149.438 44.8388 148.934 45.0513L136.165 50.4336M137.484 30.1906C138.359 30.3907 139.477 30.7898 140.64 31.4216M136.165 50.4336L135.077 52.622M140.64 31.4216L141.313 30.1906" stroke="#363636" stroke-width="0.85"/>
<path d="M123.259 43.731V44.6876" stroke="#363636" stroke-width="0.85"/>
<path d="M142.407 43.731V44.6876" stroke="#363636" stroke-width="0.85"/>
<path d="M128.73 34.1573V35.3872" stroke="#363636" stroke-width="0.85"/>
<path d="M133.107 34.1573V35.3872" stroke="#363636" stroke-width="0.85"/>
<path d="M130.918 38.2609V39.4909" stroke="#363636" stroke-width="0.85"/>
<path d="M137.21 34.1573V35.3872" stroke="#363636" stroke-width="0.85"/>
<path d="M135.021 38.2609V39.4909" stroke="#363636" stroke-width="0.85"/>
<path d="M133.107 42.3643V43.5942" stroke="#363636" stroke-width="0.85"/>
<path d="M129.528 70.2301C128.63 70.2301 127.798 70.2301 127.062 70.2301H129.528ZM129.528 70.2301V58.0919C128.137 57.3964 125.697 54.678 127.062 49.3675M129.528 70.2301C130.922 70.2301 132.476 70.2301 134.08 70.2301M134.08 70.2301V59.0402M134.08 70.2301C134.457 70.2301 134.837 70.2301 135.218 70.2301M134.08 70.2301H135.218M135.218 70.2301C140.881 70.2301 146.824 70.2301 148.304 70.2301C150.482 70.2301 154.214 70.119 155.761 67.0059M135.218 70.2301C135.281 68.8393 136.394 66.0576 140.339 66.0576C144.284 66.0576 144.385 66.0576 143.942 66.0576C143.057 65.4254 141.363 63.5541 141.666 61.1264C142.046 58.0919 145.649 58.6608 147.735 58.6608M155.761 67.0059C156.235 66.0514 156.504 64.8148 156.46 63.2127C156.426 61.992 155.798 60.5655 154.776 59.0402M155.761 67.0059C158.546 66.0576 168.977 64.9196 163.667 48.6088C163.358 47.6605 162.989 47.3342 162.86 45.9536M154.776 59.0402C155.104 58.4712 155.37 56.8401 153.805 54.8676C152.239 52.8952 152.267 48.7353 152.477 46.9019C152.588 46.4384 152.718 45.9962 152.864 45.5743M154.776 59.0402C152.244 55.2618 147.294 50.8775 142.971 47.5153M152.864 45.5743C155.112 39.0908 161.268 37.4189 164.236 37.4189C162.925 41.2644 162.684 44.0779 162.86 45.9536M152.864 45.5743C153.904 46.649 157.359 48.2295 162.86 45.9536" stroke="#363636" stroke-width="0.85"/>
</svg>
