<svg width="222" height="90" viewBox="0 0 222 90" fill="none" xmlns="http://www.w3.org/2000/svg">
<path fill-rule="evenodd" clip-rule="evenodd" d="M222 70.5973H0V69.7473H222V70.5973Z" fill="#E76F18"/>
<path fill-rule="evenodd" clip-rule="evenodd" d="M76.3618 23.4641V25.8993H75.5118V23.4641H76.3618ZM76.3618 31.9182V34.0317H75.5118V31.9182H76.3618ZM76.3618 40.7858V42.7615H75.5118V40.7858H76.3618ZM76.5023 54.7296C79.5941 55.3697 82.0055 53.536 82.2462 51.3461C80.7218 51.1488 79.4777 51.5139 78.5146 52.1787C77.5981 52.8114 76.9185 53.7283 76.5023 54.7296ZM76.3618 53.1945V50.0209H75.5118V55.2993C74.3962 53.6716 72.2323 52.2504 68.9327 52.7714L68.5391 52.8336L68.5758 53.2304C68.7046 54.6214 69.7261 56.2156 71.1043 57.2216C72.3307 58.1169 73.9184 58.5992 75.5011 58.0018L75.3121 69.994L76.162 70.0074L76.2736 62.9303C77.9776 63.3287 79.2534 63.1189 80.2007 62.4744C81.2068 61.7898 81.7527 60.6733 82.0875 59.55L82.2258 59.0863L81.7481 59.0091C80.0511 58.7346 78.7206 58.8501 77.6918 59.4185C77.1246 59.7319 76.6725 60.1698 76.3085 60.7146L76.3618 57.333L76.3618 55.5679C80.0084 56.2988 83.1159 53.9936 83.1159 50.9858V50.6317L82.7677 50.5678C80.8588 50.2172 79.262 50.6299 78.0318 51.4791C77.3572 51.9448 76.7997 52.5367 76.3618 53.1945ZM76.5334 62.118C78.0417 62.4581 79.0379 62.2375 79.7225 61.7716C80.3717 61.3299 80.8083 60.6235 81.1173 59.7787C79.7729 59.6206 78.811 59.7713 78.1028 60.1625C77.4187 60.5405 76.9132 61.1756 76.5334 62.118ZM75.4469 57.1024C74.1221 57.7199 72.7437 57.366 71.6055 56.5351C70.5193 55.7422 69.7317 54.5683 69.4899 53.555C73.0867 53.1751 74.9718 55.437 75.4469 57.1024Z" fill="#363636"/>
<path fill-rule="evenodd" clip-rule="evenodd" d="M74.8964 43.8753C74.5928 44.3567 74.3697 45.0552 74.3107 45.8698L73.4629 45.8084C73.5297 44.8861 73.7841 44.0455 74.1775 43.4218C74.5657 42.8065 75.1385 42.3357 75.846 42.3357C76.5409 42.3357 77.1061 42.7903 77.4932 43.3886C77.8849 43.9942 78.1426 44.8112 78.2212 45.7102L77.3744 45.7842C77.3051 44.9911 77.0801 44.3149 76.7795 43.8503C76.4742 43.3783 76.1374 43.1857 75.846 43.1857C75.5493 43.1857 75.2053 43.3857 74.8964 43.8753Z" fill="#363636"/>
<path fill-rule="evenodd" clip-rule="evenodd" d="M70.5872 46.9935C70.6968 47.6577 71.0568 48.4344 71.661 49.1468C72.2653 49.8592 72.9728 50.3411 73.6103 50.5576C74.2572 50.7772 74.754 50.7045 75.0515 50.4522C75.349 50.1999 75.5017 49.7216 75.3906 49.0475C75.281 48.3833 74.9211 47.6066 74.3168 46.8942C73.7125 46.1818 73.005 45.6999 72.3675 45.4835C71.7207 45.2638 71.2238 45.3365 70.9263 45.5888C70.6289 45.8411 70.4761 46.3195 70.5872 46.9935ZM69.7486 47.1318C69.6116 46.3013 69.7616 45.4621 70.3765 44.9406C70.9914 44.419 71.8438 44.408 72.6408 44.6786C73.4473 44.9524 74.2783 45.5348 74.965 46.3444C75.6517 47.154 76.0907 48.0689 76.2293 48.9092C76.3662 49.7397 76.2162 50.5789 75.6013 51.1005C74.9864 51.622 74.134 51.6331 73.337 51.3624C72.5306 51.0886 71.6995 50.5062 71.0128 49.6966C70.3261 48.8871 69.8871 47.9721 69.7486 47.1318Z" fill="#363636"/>
<path fill-rule="evenodd" clip-rule="evenodd" d="M79.2659 45.3007C78.6388 45.5455 77.9535 46.0585 77.3817 46.7972C76.8099 47.5359 76.485 48.3279 76.4052 48.9964C76.3243 49.6747 76.4983 50.1458 76.8068 50.3845C77.1152 50.6233 77.6148 50.6737 78.2512 50.4253C78.8784 50.1806 79.5637 49.6676 80.1355 48.9289C80.7073 48.1901 81.0322 47.3982 81.1119 46.7297C81.1928 46.0513 81.0188 45.5803 80.7104 45.3415C80.402 45.1028 79.9023 45.0524 79.2659 45.3007ZM78.9569 44.5089C79.7411 44.2029 80.5931 44.1758 81.2307 44.6694C81.8683 45.1629 82.0556 45.9946 81.956 46.8304C81.8551 47.676 81.4575 48.6097 80.8076 49.4492C80.1578 50.2886 79.3536 50.9076 78.5602 51.2172C77.7761 51.5232 76.9241 51.5502 76.2865 51.0567C75.6488 50.5631 75.4615 49.7315 75.5612 48.8957C75.6621 48.05 76.0597 47.1164 76.7095 46.2769C77.3593 45.4374 78.1635 44.8185 78.9569 44.5089Z" fill="#363636"/>
<path fill-rule="evenodd" clip-rule="evenodd" d="M74.9716 35.0943C74.6884 35.5433 74.4793 36.1968 74.424 36.9605L73.5762 36.8991C73.6393 36.0277 73.8797 35.2321 74.2527 34.6408C74.6205 34.0578 75.1664 33.6067 75.8445 33.6067C76.5106 33.6067 77.0494 34.0423 77.4162 34.6093C77.7877 35.1835 78.0312 35.9569 78.1055 36.8063L77.2587 36.8803C77.1937 36.1368 76.9828 35.5043 76.7025 35.071C76.4175 34.6304 76.1071 34.4567 75.8445 34.4567C75.5772 34.4567 75.2601 34.6371 74.9716 35.0943Z" fill="#363636"/>
<path fill-rule="evenodd" clip-rule="evenodd" d="M70.9095 38.0123C71.0117 38.6325 71.3483 39.3596 71.9148 40.0275C72.4813 40.6953 73.1437 41.146 73.7389 41.3481C74.3435 41.5534 74.8009 41.4832 75.0717 41.2536C75.3424 41.0239 75.4863 40.5841 75.3824 39.9541C75.2802 39.3339 74.9436 38.6068 74.3771 37.9389C73.8106 37.2711 73.1482 36.8203 72.553 36.6182C71.9484 36.413 71.491 36.4832 71.2202 36.7128C70.9495 36.9425 70.8056 37.3823 70.9095 38.0123ZM70.0708 38.1506C69.9411 37.3641 70.0822 36.5635 70.6704 36.0646C71.2586 35.5657 72.0715 35.5571 72.8262 35.8134C73.5904 36.0728 74.3764 36.6241 75.0253 37.3891C75.6742 38.1541 76.0898 39.0195 76.2211 39.8158C76.3508 40.6023 76.2097 41.4029 75.6215 41.9018C75.0333 42.4007 74.2204 42.4093 73.4657 42.153C72.7015 41.8935 71.9155 41.3423 71.2666 40.5773C70.6177 39.8122 70.2021 38.9468 70.0708 38.1506Z" fill="#363636"/>
<path fill-rule="evenodd" clip-rule="evenodd" d="M79.085 36.447C78.4994 36.6755 77.8578 37.1554 77.3217 37.8479C76.7857 38.5404 76.4819 39.2819 76.4075 39.906C76.3319 40.54 76.4953 40.973 76.776 41.1903C77.0568 41.4076 77.5168 41.4573 78.1117 41.2252C78.6972 40.9967 79.3389 40.5168 79.875 39.8243C80.411 39.1318 80.7148 38.3903 80.7892 37.7662C80.8648 37.1322 80.7014 36.6992 80.4207 36.4819C80.1399 36.2646 79.6798 36.2149 79.085 36.447ZM78.776 35.6552C79.5186 35.3654 80.331 35.3376 80.941 35.8098C81.5509 36.2819 81.7276 37.0754 81.6332 37.8668C81.5376 38.6682 81.1612 39.5513 80.5471 40.3446C79.933 41.1379 79.1725 41.7237 78.4207 42.017C77.6781 42.3068 76.8656 42.3346 76.2557 41.8624C75.6458 41.3903 75.4691 40.5968 75.5635 39.8054C75.659 39.004 76.0355 38.1209 76.6496 37.3276C77.2636 36.5343 78.0242 35.9485 78.776 35.6552Z" fill="#363636"/>
<path fill-rule="evenodd" clip-rule="evenodd" d="M75.1035 26.8295C74.8543 27.2246 74.6684 27.8029 74.6193 28.4819L73.7715 28.4205C73.8285 27.6338 74.0456 26.9133 74.3846 26.376C74.7184 25.8469 75.2195 25.4285 75.8487 25.4285C76.4666 25.4285 76.9614 25.8325 77.2944 26.3473C77.6321 26.8693 77.8521 27.5698 77.9191 28.3367L77.0723 28.4107C77.0146 27.7497 76.8273 27.1901 76.5807 26.809C76.3294 26.4206 76.0631 26.2785 75.8487 26.2785C75.6304 26.2785 75.358 26.4261 75.1035 26.8295Z" fill="#363636"/>
<path fill-rule="evenodd" clip-rule="evenodd" d="M71.4478 29.4145C71.5379 29.9613 71.8355 30.6059 72.339 31.1995C72.8425 31.793 73.4299 32.1918 73.9547 32.37C74.4888 32.5514 74.8804 32.4853 75.1066 32.2934C75.3329 32.1015 75.462 31.726 75.3702 31.1694C75.28 30.6226 74.9824 29.978 74.4789 29.3844C73.9754 28.7908 73.388 28.392 72.8633 28.2138C72.3291 28.0325 71.9376 28.0986 71.7114 28.2905C71.4851 28.4824 71.356 28.8579 71.4478 29.4145ZM70.6091 29.5528C70.4915 28.8397 70.6179 28.1034 71.1615 27.6423C71.7052 27.1811 72.4523 27.1766 73.1366 27.409C73.8303 27.6445 74.5412 28.1438 75.1272 28.8346C75.7131 29.5253 76.0897 30.3082 76.2089 31.0311C76.3265 31.7441 76.2001 32.4804 75.6564 32.9416C75.1128 33.4027 74.3657 33.4072 73.6814 33.1749C72.9877 32.9393 72.2767 32.4401 71.6908 31.7493C71.1049 31.0585 70.7283 30.2756 70.6091 29.5528Z" fill="#363636"/>
<path fill-rule="evenodd" clip-rule="evenodd" d="M78.7809 28.0586C78.2647 28.2601 77.6957 28.6847 77.2192 29.3003C76.7428 29.9158 76.4743 30.573 76.4086 31.1233C76.3418 31.6834 76.4876 32.0528 76.7222 32.2344C76.9568 32.416 77.3509 32.4645 77.8764 32.2595C78.3927 32.058 78.9617 31.6334 79.4381 31.0178C79.9146 30.4023 80.1831 29.7451 80.2487 29.1948C80.3155 28.6347 80.1697 28.2653 79.9351 28.0837C79.7005 27.9021 79.3064 27.8536 78.7809 28.0586ZM78.4719 27.2668C79.1452 27.0041 79.8917 26.9752 80.4554 27.4116C81.0192 27.848 81.1783 28.5779 81.0927 29.2955C81.0059 30.0229 80.6647 30.8219 80.1103 31.5381C79.5558 32.2544 78.8679 32.785 78.1854 33.0513C77.5122 33.314 76.7657 33.3429 76.2019 32.9065C75.6382 32.4701 75.479 31.7402 75.5646 31.0226C75.6514 30.2952 75.9926 29.4962 76.5471 28.78C77.1015 28.0637 77.7894 27.5331 78.4719 27.2668Z" fill="#363636"/>
<path fill-rule="evenodd" clip-rule="evenodd" d="M75.2202 19.1241C75.0016 19.4706 74.8367 19.9814 74.7931 20.5841L73.9453 20.5227C73.9968 19.8123 74.1929 19.1594 74.5013 18.6705C74.8045 18.19 75.2654 17.801 75.8504 17.801C76.425 17.801 76.8802 18.1767 77.1828 18.6444C77.4901 19.1194 77.6889 19.7544 77.7495 20.4469L76.9027 20.5209C76.8514 19.9343 76.6853 19.4402 76.4691 19.1061C76.2483 18.7647 76.0216 18.651 75.8504 18.651C75.6762 18.651 75.4441 18.7692 75.2202 19.1241Z" fill="#363636"/>
<path fill-rule="evenodd" clip-rule="evenodd" d="M71.933 21.4087C72.0123 21.8894 72.2748 22.4597 72.7216 22.9865C73.1684 23.5132 73.6883 23.8653 74.1496 24.0219C74.6204 24.1818 74.9527 24.1193 75.1388 23.9614C75.325 23.8035 75.4408 23.4858 75.36 22.9953C75.2807 22.5146 75.0182 21.9443 74.5714 21.4175C74.1246 20.8908 73.6047 20.5387 73.1434 20.3821C72.6726 20.2222 72.3403 20.2847 72.1542 20.4426C71.968 20.6005 71.8522 20.9182 71.933 21.4087ZM71.0944 21.547C70.9877 20.9 71.1007 20.2215 71.6043 19.7944C72.108 19.3672 72.7958 19.3664 73.4167 19.5772C74.047 19.7912 74.6904 20.2438 75.2196 20.8677C75.7488 21.4916 76.0903 22.2002 76.1986 22.857C76.3053 23.504 76.1923 24.1825 75.6887 24.6096C75.185 25.0368 74.4972 25.0376 73.8763 24.8268C73.246 24.6128 72.6026 24.1602 72.0734 23.5363C71.5442 22.9124 71.2027 22.2038 71.0944 21.547Z" fill="#363636"/>
<path fill-rule="evenodd" clip-rule="evenodd" d="M78.5086 20.2423C78.0547 20.4194 77.5511 20.7943 77.1283 21.3405C76.7055 21.8868 76.4688 22.4682 76.4111 22.952C76.3522 23.4457 76.4821 23.7578 76.6751 23.9073C76.8682 24.0567 77.203 24.1042 77.6661 23.9235C78.12 23.7464 78.6235 23.3714 79.0464 22.8252C79.4692 22.279 79.7059 21.6975 79.7636 21.2138C79.8225 20.7201 79.6926 20.408 79.4995 20.2585C79.3065 20.1091 78.9717 20.0616 78.5086 20.2423ZM78.1996 19.4504C78.8105 19.2121 79.4976 19.1821 80.0198 19.5864C80.542 19.9906 80.6853 20.6633 80.6076 21.3144C80.5288 21.9754 80.2193 22.6986 79.7185 23.3455C79.2177 23.9925 78.5952 24.4734 77.9751 24.7153C77.3642 24.9537 76.6771 24.9836 76.1549 24.5794C75.6326 24.1752 75.4894 23.5025 75.567 22.8514C75.6459 22.1904 75.9554 21.4672 76.4562 20.8202C76.957 20.1733 77.5795 19.6924 78.1996 19.4504Z" fill="#363636"/>
<path fill-rule="evenodd" clip-rule="evenodd" d="M144.788 42.4241C141.483 45.0924 140.396 46.6722 139.425 48.5013C139.371 48.6034 139.317 48.7061 139.263 48.8094C139.117 49.0903 138.987 49.3965 138.868 49.7145C136.97 48.3397 135.968 46.3212 135.528 44.4053C135.291 43.3761 135.219 42.387 135.255 41.5625C135.286 40.8635 135.393 40.312 135.524 39.9594C139.129 39.3423 142.467 40.2398 144.788 42.4241ZM134.582 40.154C133.522 40.4102 132.446 40.7961 131.374 41.3175C130.601 41.6931 129.831 42.1389 129.069 42.657C128.916 42.7614 128.599 43.0423 128.423 43.2047L127.846 42.5803C128.012 42.4267 128.376 42.1005 128.591 41.9542C129.386 41.4137 130.192 40.9471 131.002 40.5531C132.384 39.8814 133.778 39.4205 135.147 39.1635C139.247 38.3938 143.13 39.456 145.733 42.1633L146.057 42.5006L145.69 42.791C142.169 45.5807 141.12 47.1216 140.176 48.9C140.123 48.9992 140.07 49.0994 140.018 49.2009C139.822 49.5786 139.648 50.0256 139.494 50.5059C139.206 51.3972 138.974 52.5616 138.792 53.4715C138.719 53.835 138.655 54.1579 138.598 54.4064C138.084 56.6654 137.424 58.6101 136.65 60.277C136.198 61.2508 135.706 62.1298 135.182 62.9213C131.901 67.8693 127.367 69.3323 123.205 69.1973C119.071 69.0633 115.291 67.3556 113.414 65.9411L112.909 65.5604L113.452 65.2366C113.984 64.9197 114.964 64.305 115.93 63.5726C116.908 62.8305 117.82 62.0046 118.265 61.2705L118.273 61.2568C119.031 60.0047 120.355 57.8193 120.644 55.7968L120.675 55.5794L120.87 55.479C120.964 55.4305 121.064 55.3905 121.154 55.3556C121.176 55.3472 121.197 55.339 121.218 55.3309C121.29 55.3033 121.359 55.2768 121.433 55.2455C121.617 55.1676 121.815 55.0677 122.025 54.9039C122.439 54.5803 122.953 53.9682 123.463 52.6659C123.643 51.8474 123.939 50.6357 124.253 49.6188C124.411 49.1059 124.579 48.6278 124.743 48.272C124.824 48.0965 124.913 47.9307 125.011 47.8023C125.058 47.74 125.118 47.6724 125.192 47.6165C125.275 47.3334 125.339 47.0772 125.4 46.8352C125.631 45.9172 125.81 45.2042 126.732 44.004L127.406 44.5217C126.597 45.5746 126.462 46.1116 126.243 46.9786C126.167 47.2809 126.081 47.6234 125.952 48.0418L125.86 48.3421L125.669 48.3421C125.629 48.4008 125.576 48.4942 125.515 48.6279C125.374 48.9319 125.22 49.3674 125.065 49.8696C124.757 50.8692 124.463 52.0748 124.286 52.8802L124.279 52.9126L124.267 52.9435C123.716 54.361 123.121 55.1262 122.548 55.574C122.262 55.7972 121.993 55.9316 121.764 56.0286C121.676 56.0657 121.59 56.0986 121.517 56.1268C121.498 56.1342 121.479 56.1412 121.462 56.148C121.457 56.1499 121.452 56.1518 121.447 56.1537C121.072 58.277 119.748 60.4623 119.029 61.6488L118.992 61.7108C118.457 62.5934 117.43 63.5013 116.444 64.2498C115.723 64.7963 114.998 65.2775 114.444 65.6258C116.329 66.8637 119.643 68.2314 123.233 68.3478C127.151 68.4749 131.382 67.1143 134.473 62.4516C134.973 61.698 135.444 60.8566 135.879 59.919C136.625 58.3136 137.266 56.4268 137.769 54.2177C137.818 54.0062 137.876 53.7126 137.945 53.3712C138.109 52.5502 138.328 51.4529 138.589 50.5569C136.335 49.0282 135.188 46.7195 134.699 44.5958C134.445 43.4903 134.366 42.4245 134.406 41.5253C134.428 41.019 134.488 40.5517 134.582 40.154Z" fill="#363636"/>
<path fill-rule="evenodd" clip-rule="evenodd" d="M125.74 17.835L125.74 20.5571L126.59 20.5571L126.59 17.835L125.74 17.835ZM125.74 27.2855L125.74 29.6481L126.59 29.6481L126.59 27.2855L125.74 27.2855ZM125.74 37.1983L125.74 39.4068L126.59 39.4068L126.59 37.1983L125.74 37.1983ZM125.74 47.522L125.74 55.6952L125.803 59.6503C125.384 58.9784 124.855 58.4444 124.179 58.0711C123.043 57.4434 121.569 57.313 119.677 57.619L119.199 57.6962L119.338 58.1599C119.711 59.4114 120.316 60.6462 121.427 61.4019C122.482 62.1198 123.912 62.3523 125.838 61.8898L125.964 69.8634L126.814 69.85L126.601 56.37C128.373 57.0708 130.158 56.538 131.538 55.531C133.07 54.4125 134.202 52.6423 134.344 51.1051L134.381 50.7083L133.987 50.6461C130.228 50.0526 127.799 51.7265 126.59 53.5876L126.59 47.522L125.74 47.522ZM126.653 55.4654C127.173 53.5708 129.32 50.9682 133.434 51.4288C133.176 52.5884 132.278 53.9384 131.037 54.8444C129.744 55.7884 128.167 56.1906 126.653 55.4654ZM125.567 61.0806C123.839 61.4816 122.694 61.2358 121.905 60.6991C121.152 60.1868 120.654 59.3635 120.306 58.3876C121.847 58.198 122.953 58.3647 123.768 58.8151C124.559 59.2521 125.137 59.9902 125.567 61.0806Z" fill="#363636"/>
<path fill-rule="evenodd" clip-rule="evenodd" d="M127.373 40.627C127.717 41.1734 127.969 41.9627 128.035 42.8796L128.883 42.8182C128.809 41.7936 128.526 40.8622 128.092 40.1734C127.662 39.493 127.036 38.9827 126.269 38.9827C125.516 38.9827 124.897 39.4754 124.47 40.1368C124.037 40.8054 123.751 41.7105 123.664 42.7092L124.51 42.7832C124.588 41.8904 124.842 41.1262 125.183 40.5985C125.529 40.0634 125.919 39.8327 126.269 39.8327C126.625 39.8327 127.023 40.0722 127.373 40.627Z" fill="#363636"/>
<path fill-rule="evenodd" clip-rule="evenodd" d="M131.99 44.1465C131.866 44.8994 131.459 45.7757 130.778 46.5778C130.098 47.38 129.3 47.9246 128.577 48.1699C127.845 48.4184 127.269 48.3408 126.918 48.0429C126.566 47.745 126.396 47.189 126.522 46.4263C126.646 45.6734 127.053 44.797 127.733 43.9949C128.413 43.1928 129.212 42.6482 129.934 42.4029C130.666 42.1543 131.243 42.2319 131.594 42.5298C131.945 42.8277 132.116 43.3838 131.99 44.1465ZM132.829 44.2848C132.98 43.3656 132.812 42.4488 132.144 41.8816C131.475 41.3144 130.543 41.2985 129.661 41.598C128.769 41.9007 127.848 42.5458 127.085 43.4451C126.322 44.3444 125.836 45.359 125.683 46.288C125.531 47.2072 125.699 48.124 126.368 48.6911C127.036 49.2583 127.968 49.2743 128.85 48.9748C129.742 48.672 130.664 48.027 131.427 47.1277C132.189 46.2284 132.675 45.2138 132.829 44.2848Z" fill="#363636"/>
<path fill-rule="evenodd" clip-rule="evenodd" d="M122.228 42.1986C122.939 42.476 123.712 43.0557 124.356 43.8874C124.999 44.7192 125.367 45.6128 125.457 46.3705C125.549 47.1381 125.354 47.6859 124.989 47.9679C124.625 48.2498 124.046 48.3015 123.326 48.0205C122.615 47.7431 121.842 47.1634 121.198 46.3317C120.554 45.4999 120.187 44.6063 120.096 43.8486C120.005 43.081 120.2 42.5332 120.564 42.2512C120.928 41.9693 121.508 41.9176 122.228 42.1986ZM122.537 41.4067C121.669 41.0681 120.737 41.0424 120.044 41.5791C119.351 42.1158 119.142 43.0242 119.252 43.9492C119.364 44.8841 119.804 45.9195 120.526 46.852C121.248 47.7845 122.14 48.4701 123.017 48.8124C123.885 49.151 124.816 49.1767 125.51 48.64C126.203 48.1033 126.412 47.1949 126.301 46.2699C126.19 45.335 125.75 44.2996 125.028 43.3671C124.306 42.4346 123.414 41.749 122.537 41.4067Z" fill="#363636"/>
<path fill-rule="evenodd" clip-rule="evenodd" d="M127.284 30.8105C127.606 31.3208 127.842 32.0597 127.904 32.9198L128.752 32.8584C128.682 31.8906 128.415 31.0096 128.003 30.357C127.597 29.7127 127 29.2244 126.266 29.2244C125.545 29.2244 124.957 29.6959 124.551 30.3223C124.141 30.9559 123.871 31.8121 123.789 32.7554L124.635 32.8294C124.709 31.992 124.946 31.2767 125.265 30.784C125.588 30.284 125.949 30.0744 126.266 30.0744C126.589 30.0744 126.957 30.292 127.284 30.8105Z" fill="#363636"/>
<path fill-rule="evenodd" clip-rule="evenodd" d="M131.629 34.1068C131.513 34.8105 131.132 35.6315 130.494 36.3838C129.856 37.1361 129.108 37.6459 128.433 37.8752C127.748 38.1077 127.216 38.0328 126.894 37.7602C126.573 37.4876 126.412 36.9747 126.53 36.2613C126.646 35.5576 127.027 34.7366 127.665 33.9843C128.303 33.232 129.051 32.7222 129.726 32.4929C130.411 32.2604 130.943 32.3353 131.264 32.6079C131.586 32.8805 131.747 33.3934 131.629 34.1068ZM132.468 34.2451C132.611 33.3752 132.453 32.5015 131.814 31.9596C131.175 31.4178 130.288 31.4046 129.453 31.688C128.609 31.9747 127.737 32.585 127.017 33.4345C126.296 34.2839 125.836 35.2432 125.691 36.123C125.548 36.9929 125.706 37.8666 126.344 38.4084C126.983 38.9503 127.871 38.9635 128.706 38.68C129.55 38.3934 130.421 37.7831 131.142 36.9336C131.863 36.0841 132.322 35.1249 132.468 34.2451Z" fill="#363636"/>
<path fill-rule="evenodd" clip-rule="evenodd" d="M122.431 32.3015C123.096 32.5607 123.82 33.1034 124.424 33.8835C125.028 34.6636 125.371 35.5008 125.456 36.2089C125.542 36.927 125.358 37.4322 125.025 37.6901C124.692 37.9481 124.157 37.9991 123.483 37.7362C122.818 37.4769 122.094 36.9342 121.49 36.1542C120.887 35.3741 120.543 34.5369 120.458 33.8287C120.373 33.1107 120.556 32.6055 120.889 32.3476C121.223 32.0896 121.758 32.0386 122.431 32.3015ZM122.74 31.5096C121.919 31.1891 121.031 31.1627 120.369 31.6754C119.707 32.1882 119.51 33.0539 119.614 33.9294C119.72 34.8148 120.136 35.7936 120.818 36.6745C121.5 37.5553 122.343 38.2039 123.174 38.528C123.995 38.8486 124.883 38.875 125.545 38.3623C126.207 37.8495 126.404 36.9838 126.3 36.1083C126.194 35.2229 125.778 34.2441 125.096 33.3632C124.414 32.4824 123.571 31.8338 122.74 31.5096Z" fill="#363636"/>
<path fill-rule="evenodd" clip-rule="evenodd" d="M127.14 21.5718C127.424 22.0219 127.634 22.6768 127.689 23.4422L128.537 23.3808C128.474 22.5077 128.233 21.7107 127.859 21.1183C127.491 20.5343 126.944 20.0825 126.265 20.0825C125.598 20.0825 125.058 20.5188 124.691 21.0867C124.319 21.662 124.075 22.4368 124 23.2878L124.847 23.3618C124.912 22.6166 125.124 21.9828 125.405 21.5484C125.69 21.1068 126.002 20.9325 126.265 20.9325C126.533 20.9325 126.851 21.1135 127.14 21.5718Z" fill="#363636"/>
<path fill-rule="evenodd" clip-rule="evenodd" d="M131.028 24.4957C130.925 25.1173 130.588 25.846 130.02 26.5153C129.453 27.1846 128.789 27.6363 128.192 27.8389C127.586 28.0446 127.127 27.9743 126.856 27.744C126.584 27.5136 126.44 27.0725 126.544 26.4411C126.647 25.8195 126.984 25.0908 127.552 24.4215C128.119 23.7522 128.783 23.3005 129.38 23.0979C129.986 22.8922 130.445 22.9625 130.716 23.1929C130.988 23.4232 131.132 23.8643 131.028 24.4957ZM131.866 24.634C131.996 23.8461 131.855 23.0443 131.266 22.5446C130.677 22.045 129.863 22.0363 129.107 22.2931C128.341 22.553 127.554 23.1052 126.904 23.8717C126.253 24.6381 125.837 25.5051 125.706 26.3028C125.576 27.0907 125.717 27.8925 126.306 28.3922C126.895 28.8918 127.709 28.9005 128.465 28.6437C129.231 28.3838 130.018 27.8316 130.668 27.0651C131.319 26.2987 131.735 25.4317 131.866 24.634Z" fill="#363636"/>
<path fill-rule="evenodd" clip-rule="evenodd" d="M122.771 22.9244C123.358 23.1534 124.001 23.6344 124.538 24.3284C125.075 25.0224 125.38 25.7655 125.454 26.391C125.53 27.0265 125.366 27.4606 125.085 27.6786C124.803 27.8966 124.342 27.9463 123.745 27.7137C123.159 27.4847 122.515 27.0037 121.978 26.3097C121.441 25.6158 121.137 24.8727 121.062 24.2471C120.986 23.6117 121.15 23.1775 121.432 22.9595C121.713 22.7415 122.175 22.6918 122.771 22.9244ZM123.08 22.1326C122.336 21.8423 121.522 21.8145 120.911 22.2873C120.3 22.7602 120.123 23.5549 120.218 24.3478C120.314 25.1505 120.691 26.0353 121.306 26.83C121.921 27.6248 122.683 28.2117 123.436 28.5056C124.18 28.7958 124.994 28.8236 125.605 28.3508C126.216 27.878 126.393 27.0833 126.298 26.2904C126.202 25.4876 125.825 24.6028 125.21 23.8081C124.595 23.0133 123.833 22.4265 123.08 22.1326Z" fill="#363636"/>
<path fill-rule="evenodd" clip-rule="evenodd" d="M127.011 12.9571C127.261 13.3529 127.447 13.9322 127.496 14.6123L128.344 14.5509C128.287 13.7632 128.069 13.0417 127.73 12.5036C127.396 11.9738 126.894 11.5549 126.264 11.5549C125.646 11.5549 125.15 11.9594 124.817 12.4748C124.479 12.9976 124.258 13.699 124.191 14.467L125.038 14.541C125.096 13.8789 125.283 13.3183 125.53 12.9365C125.782 12.5474 126.049 12.4049 126.264 12.4049C126.483 12.4049 126.756 12.553 127.011 12.9571Z" fill="#363636"/>
<path fill-rule="evenodd" clip-rule="evenodd" d="M130.488 15.5446C130.398 16.0924 130.1 16.7381 129.595 17.3326C129.091 17.9272 128.503 18.3267 127.977 18.5052C127.442 18.6869 127.05 18.6207 126.823 18.4283C126.596 18.2359 126.467 17.8595 126.559 17.302C126.649 16.7542 126.947 16.1085 127.451 15.514C127.956 14.9194 128.544 14.5199 129.07 14.3414C129.605 14.1597 129.997 14.2259 130.224 14.4183C130.451 14.6107 130.58 14.9871 130.488 15.5446ZM131.327 15.6829C131.445 14.9689 131.318 14.2317 130.774 13.7701C130.23 13.3084 129.482 13.3039 128.796 13.5366C128.102 13.7724 127.39 14.2724 126.803 14.9641C126.216 15.6559 125.839 16.4399 125.72 17.1637C125.602 17.8777 125.729 18.6149 126.273 19.0765C126.817 19.5382 127.565 19.5427 128.25 19.3101C128.945 19.0742 129.657 18.5742 130.244 17.8825C130.83 17.1907 131.208 16.4067 131.327 15.6829Z" fill="#363636"/>
<path fill-rule="evenodd" clip-rule="evenodd" d="M123.079 14.1857C123.596 14.3875 124.166 14.8129 124.643 15.4294C125.12 16.0459 125.389 16.7043 125.455 17.2556C125.522 17.8167 125.376 18.1869 125.141 18.3689C124.905 18.551 124.51 18.5996 123.984 18.3941C123.467 18.1923 122.897 17.767 122.42 17.1504C121.942 16.5339 121.673 15.8755 121.608 15.3243C121.541 14.7632 121.687 14.393 121.922 14.2109C122.157 14.0289 122.552 13.9803 123.079 14.1857ZM123.388 13.3939C122.713 13.1308 121.966 13.1019 121.402 13.5388C120.837 13.9756 120.678 14.7064 120.764 15.425C120.851 16.1534 121.192 16.9534 121.748 17.6707C122.303 18.388 122.992 18.9193 123.675 19.186C124.349 19.4491 125.097 19.478 125.661 19.0411C126.225 18.6042 126.385 17.8735 126.299 17.1549C126.212 16.4265 125.87 15.6264 125.315 14.9091C124.76 14.1918 124.071 13.6605 123.388 13.3939Z" fill="#363636"/>
<path fill-rule="evenodd" clip-rule="evenodd" d="M112.11 20.1135C112.677 19.1933 113.989 18.7382 114.901 19.5864C116.303 20.8913 116.861 22.6291 116.967 24.3351C117.066 25.9368 116.77 27.5394 116.376 28.8058C117.801 30.4234 118.911 32.5597 119.18 35.2957C119.23 35.8028 119.53 36.277 119.974 36.594C120.337 36.8527 120.72 37.1785 121.037 37.5585C121.402 37.9958 121.431 38.5187 121.242 38.9628C121.061 39.3905 120.685 39.7403 120.234 39.9305L108.565 44.8523L107.229 47.5418C106.448 49.1147 104.205 49.1152 103.423 47.5427L102.086 44.8538L90.4148 39.9374C89.9637 39.7474 89.5878 39.3977 89.4061 38.9701C89.2175 38.5261 89.2459 38.0031 89.6106 37.5657C89.9275 37.1856 90.3104 36.8596 90.6728 36.6007C91.1168 36.2835 91.4168 35.8089 91.4665 35.3017C91.735 32.5599 92.8452 30.4263 94.268 28.811C93.9289 27.7239 93.6646 26.397 93.656 25.0382C93.6438 23.1165 94.1447 21.0758 95.7374 19.5918C96.6482 18.7432 97.9617 19.1962 98.5299 20.1166L101.314 24.6258C102.004 24.4268 103.362 24.1864 105.321 24.186C107.28 24.1855 108.637 24.4253 109.328 24.6239L112.11 20.1135ZM110.176 24.8683C110.836 25.0616 111.586 25.3496 112.363 25.7422L112.808 24.9293L113.554 25.3371L113.11 26.1478C113.985 26.6572 114.875 27.3013 115.697 28.0958C115.998 26.9877 116.198 25.6786 116.118 24.3877C116.021 22.8246 115.517 21.3211 114.322 20.2087C113.918 19.8332 113.209 19.9509 112.833 20.5597L110.176 24.8683ZM115.411 29.0126C114.458 28.0195 113.377 27.2526 112.333 26.6858C111.251 26.0985 110.217 25.7308 109.418 25.5484L109.383 25.5404L109.35 25.5266C109.001 25.3818 107.635 25.0355 105.321 25.036C103.007 25.0365 101.641 25.3835 101.292 25.5285L101.259 25.5422L101.224 25.5502C100.425 25.733 99.3909 26.1012 98.3093 26.689C97.2641 27.2571 96.1849 28.0238 95.2324 29.017C95.3164 29.2535 95.4031 29.4737 95.4898 29.6741L103.621 46.0307C104.025 45.8464 104.619 45.6699 105.326 45.6697C106.032 45.6695 106.627 45.8458 107.031 46.0299L115.154 29.6696C115.24 29.47 115.327 29.2499 115.411 29.0126ZM106.653 46.7917C106.357 46.6611 105.892 46.5196 105.326 46.5197C104.76 46.5198 104.295 46.6616 103.999 46.7923L104.184 47.1643C104.653 48.1078 105.999 48.1075 106.468 47.1638L106.653 46.7917ZM94.5965 29.7395C93.4258 31.1923 92.5408 33.0524 92.3124 35.3846C92.2354 36.1707 91.7803 36.8542 91.1669 37.2924C90.8446 37.5227 90.5211 37.801 90.2634 38.11C90.124 38.2772 90.111 38.4554 90.1885 38.6378C90.2729 38.8365 90.4704 39.0385 90.7448 39.154L101.506 43.6872L94.7187 30.0325L94.7143 30.0223C94.675 29.9317 94.6356 29.8373 94.5965 29.7395ZM94.946 28.1009C95.7679 27.3058 96.6585 26.6608 97.532 26.1514L97.0883 25.3409L97.8339 24.9327L98.2788 25.7454C99.0564 25.3525 99.8056 25.0641 100.466 24.8706L97.8066 20.5632C97.4312 19.955 96.7204 19.8376 96.3169 20.2137C94.96 21.4779 94.4947 23.2484 94.506 25.0328C94.5128 26.1135 94.6952 27.1792 94.946 28.1009ZM109.144 43.6854L119.904 39.1473C120.178 39.0316 120.375 38.8296 120.46 38.6308C120.537 38.4484 120.524 38.2702 120.384 38.1031C120.127 37.7942 119.803 37.516 119.481 37.2859C118.867 36.848 118.412 36.1651 118.334 35.3789C118.104 33.0416 117.217 31.1842 116.047 29.7346C116.008 29.8322 115.969 29.9266 115.93 30.0175L115.925 30.0276L109.144 43.6854Z" fill="#363636"/>
<path fill-rule="evenodd" clip-rule="evenodd" d="M95.467 39.0225L95.4668 38.1055L96.3168 38.1053L96.317 39.0223L95.467 39.0225Z" fill="#363636"/>
<path fill-rule="evenodd" clip-rule="evenodd" d="M113.807 39.0181L113.807 38.1011L114.657 38.1009L114.657 39.0179L113.807 39.0181Z" fill="#363636"/>
<path fill-rule="evenodd" clip-rule="evenodd" d="M100.703 30.115L100.703 28.936L101.553 28.9358L101.553 30.1148L100.703 30.115Z" fill="#363636"/>
<path fill-rule="evenodd" clip-rule="evenodd" d="M104.897 30.1123L104.896 28.9333L105.746 28.9332L105.747 30.1121L104.897 30.1123Z" fill="#363636"/>
<path fill-rule="evenodd" clip-rule="evenodd" d="M102.801 34.0428L102.801 32.8638L103.651 32.8636L103.651 34.0426L102.801 34.0428Z" fill="#363636"/>
<path fill-rule="evenodd" clip-rule="evenodd" d="M108.826 30.1123L108.826 28.9333L109.676 28.9332L109.676 30.1121L108.826 30.1123Z" fill="#363636"/>
<path fill-rule="evenodd" clip-rule="evenodd" d="M106.731 34.042L106.73 32.863L107.58 32.8628L107.581 34.0418L106.731 34.042Z" fill="#363636"/>
<path fill-rule="evenodd" clip-rule="evenodd" d="M104.899 37.9724L104.898 36.7935L105.748 36.7933L105.749 37.9722L104.899 37.9724Z" fill="#363636"/>
<path fill-rule="evenodd" clip-rule="evenodd" d="M109.541 54.2662C109.541 54.2664 109.542 54.266 109.541 54.2662L104.977 58.5603L100.741 54.2687C98.2771 52.212 96.9798 50.2442 96.6533 48.3555C96.3232 46.4459 97.0004 44.7092 98.2782 43.1655L98.933 43.7075C97.7622 45.1218 97.2151 46.6151 97.4909 48.2107C97.7697 49.8232 98.9037 51.6315 101.301 53.6289L101.317 53.6422L104.999 57.3725L108.96 53.6459L108.962 53.6447C110.474 52.234 111.813 50.672 112.353 49.0084C112.62 48.1857 112.69 47.3416 112.49 46.4735C112.29 45.6039 111.813 44.6839 110.946 43.7209L111.577 43.1521C112.522 44.201 113.08 45.2468 113.319 46.2828C113.557 47.3204 113.469 48.3218 113.162 49.2708C112.552 51.1502 111.074 52.8362 109.541 54.2662Z" fill="#363636"/>
<path fill-rule="evenodd" clip-rule="evenodd" d="M96.1719 44.8525C95.6385 45.6648 95.4406 46.8466 95.6613 47.9889C96.007 49.7778 97.7729 55.0742 98.5373 57.2145L97.7368 57.5004C96.9786 55.3774 95.1872 50.0155 94.8268 48.1501C94.5719 46.8312 94.7854 45.4154 95.4614 44.386C96.1551 43.3293 97.3288 42.7015 98.8689 43.0205L98.6966 43.8529C97.5208 43.6093 96.6874 44.0674 96.1719 44.8525Z" fill="#363636"/>
<path fill-rule="evenodd" clip-rule="evenodd" d="M114.193 45.2451C114.774 46.2492 114.993 47.6175 114.774 48.75L114.774 48.7501C113.951 53.0071 113.41 54.9621 112.654 57.3828L113.465 57.6364C114.231 55.1847 114.78 53.1988 115.608 48.9113C115.865 47.5826 115.615 46.0052 114.929 44.8194C114.235 43.6203 113.043 42.7557 111.451 43.0854L111.623 43.9177C112.747 43.6849 113.62 44.2543 114.193 45.2451Z" fill="#363636"/>
<path fill-rule="evenodd" clip-rule="evenodd" d="M90.8186 49.5828C92.9072 48.2534 94.8696 48.7107 95.7063 49.0454L95.3906 49.8346C94.7047 49.5602 93.0528 49.1683 91.275 50.2999C90.5721 50.7473 90.0292 51.6131 89.783 52.7908C89.538 53.963 89.5969 55.408 90.0633 56.9436C90.9938 60.0067 93.5427 63.4122 98.465 65.6496L98.1133 66.4234C92.9865 64.093 90.257 60.5057 89.25 57.1906C88.7477 55.5371 88.6731 53.9466 88.951 52.6169C89.2278 51.2928 89.8643 50.1902 90.8186 49.5828Z" fill="#363636"/>
<path fill-rule="evenodd" clip-rule="evenodd" d="M116.518 48.4837C115.821 48.5695 115.146 48.7813 114.759 49.12L115.318 49.7597C115.512 49.5905 115.979 49.4065 116.622 49.3273C117.245 49.2506 117.953 49.2831 118.57 49.4706L118.58 49.4735L118.589 49.476C119.278 49.6497 119.798 50.1974 120.172 50.8914C120.544 51.5808 120.737 52.3513 120.797 52.8406C121.238 56.5801 119.02 62.4082 112.415 65.655L112.79 66.4178C119.696 63.0234 122.127 56.8626 121.641 52.7399L121.641 52.7375L121.641 52.7375C121.57 52.164 121.352 51.2874 120.921 50.4877C120.493 49.6947 119.818 48.9134 118.807 48.6543C118.058 48.4286 117.232 48.3958 116.518 48.4837Z" fill="#363636"/>
<path fill-rule="evenodd" clip-rule="evenodd" d="M102.632 54.9997C103.279 58.6634 104.174 65.1069 104.237 65.5918C104.259 65.7603 104.284 65.8609 104.301 65.9153C105.277 66.6882 105.673 67.488 105.705 68.1986C105.737 68.8906 105.417 69.4555 105.051 69.7063C104.788 69.8863 104.512 69.9283 104.265 69.8526C104.26 69.8588 104.255 69.8651 104.25 69.8712C104.084 70.0739 103.843 70.2184 103.531 70.2593C103.028 70.3253 102.631 70.2018 102.365 70.031C102.114 70.1471 101.862 70.1959 101.616 70.1617C101.271 70.1137 101.017 69.9144 100.843 69.6842C100.514 69.2472 100.405 68.614 100.42 68.1724C100.433 67.787 100.568 67.3704 100.71 67.0298C100.809 66.7927 100.919 66.573 101.016 66.3982C99.7922 63.9822 98.2173 59.2243 97.5804 57.1794L98.392 56.9266C99.0531 59.0495 100.683 63.9561 101.877 66.2124C101.948 66.3467 101.942 66.5087 101.862 66.6374C101.768 66.7861 101.62 67.0548 101.495 67.3565C101.366 67.6656 101.278 67.9693 101.27 68.2009C101.259 68.5305 101.351 68.9459 101.522 69.1728C101.599 69.2745 101.669 69.3109 101.733 69.3198C101.76 69.3235 101.799 69.324 101.85 69.3137C101.828 69.2183 101.808 69.1089 101.792 68.9839L102.634 68.8733C102.657 69.0431 102.682 69.1439 102.699 69.198C102.721 69.2176 102.742 69.2397 102.759 69.2641C102.759 69.264 102.76 69.2642 102.76 69.2646C102.765 69.2702 102.814 69.3215 102.922 69.366C103.03 69.4104 103.194 69.4462 103.421 69.4165C103.518 69.4037 103.564 69.3676 103.593 69.3316C103.631 69.2861 103.662 69.2141 103.679 69.1182C103.694 69.0303 103.693 68.9453 103.685 68.889L104.528 68.7785C104.538 68.8513 104.543 68.9346 104.54 69.0237C104.549 69.0191 104.559 69.0131 104.57 69.0051C104.671 68.9363 104.876 68.6644 104.856 68.2376C104.838 67.8421 104.619 67.2624 103.808 66.6086C103.741 66.5742 103.695 66.5305 103.67 66.5049C103.608 66.4387 103.566 66.3617 103.536 66.2935C103.476 66.1544 103.428 65.9619 103.394 65.7023C103.331 65.221 102.438 58.7924 101.795 55.1476L102.632 54.9997ZM102.717 69.2433C102.717 69.2434 102.716 69.2428 102.715 69.2414L102.717 69.2433ZM104.319 65.9618C104.319 65.9618 104.319 65.9612 104.318 65.9598L104.319 65.9618Z" fill="#363636"/>
<path fill-rule="evenodd" clip-rule="evenodd" d="M108.226 54.5659C107.767 58.3717 106.91 65.1096 106.845 65.5894C106.822 65.7578 106.797 65.8583 106.779 65.9126C105.8 66.6813 105.401 67.4794 105.365 68.1899C105.331 68.8817 105.649 69.448 106.013 69.7004C106.275 69.8816 106.551 69.9247 106.798 69.8501C106.803 69.8563 106.808 69.8626 106.813 69.8688C106.979 70.0722 107.219 70.2177 107.53 70.2599C108.033 70.3281 108.431 70.2063 108.697 70.0367C108.949 70.1539 109.2 70.2037 109.446 70.1706C109.791 70.1241 110.047 69.9259 110.221 69.6965C110.552 69.2609 110.663 68.6282 110.65 68.1865C110.639 67.8011 110.506 67.3839 110.366 67.0426C110.268 66.8052 110.159 66.5851 110.062 66.4099C111.3 64.0002 112.971 59.2301 113.619 57.1811L112.808 56.9249C112.14 59.0378 110.407 63.9668 109.202 66.2203C109.13 66.3542 109.136 66.5162 109.216 66.6452C109.309 66.7944 109.455 67.0637 109.58 67.366C109.707 67.6756 109.794 67.9797 109.801 68.2113C109.81 68.541 109.716 68.956 109.544 69.1821C109.467 69.2835 109.397 69.3196 109.333 69.3282C109.306 69.3318 109.267 69.3322 109.216 69.3216C109.239 69.2263 109.259 69.1169 109.276 68.992L108.433 68.8778C108.41 69.0475 108.385 69.1482 108.367 69.2022C108.345 69.2218 108.325 69.2438 108.307 69.2681C108.307 69.268 108.307 69.2681 108.306 69.2686C108.301 69.2741 108.252 69.3253 108.143 69.3693C108.035 69.4132 107.871 69.4483 107.645 69.4176C107.547 69.4044 107.502 69.3681 107.472 69.3319C107.435 69.2863 107.404 69.2142 107.388 69.1182C107.373 69.0303 107.375 68.9452 107.382 68.889L106.54 68.7748C106.53 68.8477 106.525 68.9309 106.527 69.02C106.519 69.0154 106.508 69.0093 106.497 69.0013C106.397 68.932 106.193 68.6593 106.214 68.2326C106.234 67.8371 106.456 67.2584 107.27 66.6081C107.337 66.5739 107.383 66.5304 107.408 66.5049C107.47 66.439 107.513 66.3622 107.543 66.2941C107.604 66.1553 107.652 65.963 107.687 65.7036C107.753 65.2177 108.611 58.475 109.07 54.6677L108.226 54.5659ZM108.35 69.2475C108.35 69.2475 108.35 69.2469 108.351 69.2456L108.35 69.2475ZM106.761 65.9591C106.761 65.9591 106.762 65.9585 106.762 65.9572L106.761 65.9591Z" fill="#363636"/>
<path fill-rule="evenodd" clip-rule="evenodd" d="M111.628 65.8582C111.045 66.1093 110.631 66.4512 110.371 66.8511C110.111 67.2521 110.022 67.6866 110.051 68.0921C110.079 68.4933 110.223 68.867 110.428 69.1628C110.63 69.4533 110.917 69.702 111.256 69.7997C111.555 69.8857 111.826 69.8768 112.055 69.78C112.079 69.8026 112.103 69.8245 112.129 69.8457C112.336 70.0157 112.605 70.1156 112.929 70.1156C113.491 70.1156 113.909 69.94 114.172 69.7335C114.474 69.8236 114.758 69.8415 115.019 69.7787C115.365 69.6951 115.614 69.482 115.777 69.229C116.086 68.7514 116.115 68.1051 116.032 67.6659C115.888 66.9008 115.204 66.0335 114.074 65.6916C114.058 65.6867 114.041 65.6828 114.025 65.6798C113.554 65.5966 113.061 65.5978 112.643 65.6378C112.237 65.6769 111.859 65.7571 111.628 65.8582ZM114.611 68.9606C114.621 68.8664 114.626 68.7608 114.626 68.6429H113.776C113.776 68.7981 113.765 68.8931 113.755 68.9454C113.734 68.9665 113.716 68.9898 113.7 69.0151C113.7 69.0146 113.7 69.0149 113.699 69.016C113.692 69.0245 113.642 69.0827 113.523 69.1425C113.398 69.2053 113.204 69.2656 112.929 69.2656C112.789 69.2656 112.714 69.2261 112.668 69.1885C112.616 69.1459 112.573 69.0807 112.543 68.997C112.515 68.9185 112.506 68.8417 112.506 68.7925H111.656C111.656 68.8583 111.661 68.9312 111.673 69.008C111.635 69.0109 111.577 69.0074 111.491 68.9829C111.393 68.9545 111.253 68.8597 111.126 68.6775C111.003 68.5007 110.916 68.2726 110.899 68.0318C110.882 67.7952 110.933 67.5473 111.084 67.3141C111.236 67.0801 111.506 66.8363 111.966 66.6384L111.969 66.6371L111.969 66.6371C112.079 66.5889 112.353 66.5197 112.725 66.484C113.079 66.4499 113.482 66.4503 113.852 66.5125C114.685 66.7738 115.116 67.3955 115.197 67.8237C115.256 68.1328 115.214 68.5343 115.063 68.7677C114.997 68.8701 114.919 68.9284 114.819 68.9524C114.769 68.9646 114.7 68.9708 114.611 68.9606ZM113.743 68.9941C113.743 68.9941 113.743 68.9935 113.743 68.9922L113.743 68.9941Z" fill="#363636"/>
<path fill-rule="evenodd" clip-rule="evenodd" d="M96.4037 65.8582C95.8206 66.1093 95.4063 66.4512 95.1466 66.8511C94.8861 67.2521 94.7973 67.6866 94.8261 68.0921C94.8546 68.4933 94.9979 68.867 95.2037 69.1628C95.4057 69.4533 95.6924 69.702 96.0315 69.7997C96.3302 69.8857 96.6018 69.8768 96.8307 69.78C96.8539 69.8026 96.8784 69.8245 96.9042 69.8457C97.1114 70.0157 97.3805 70.1156 97.7041 70.1156C98.2668 70.1156 98.6847 69.94 98.9472 69.7335C99.2498 69.8236 99.5337 69.8415 99.794 69.7787C100.141 69.6951 100.389 69.482 100.553 69.229C100.861 68.7514 100.891 68.1051 100.808 67.6659C100.663 66.9008 99.9798 66.0335 98.8494 65.6916C98.8332 65.6867 98.8168 65.6828 98.8002 65.6798C98.329 65.5966 97.836 65.5978 97.4188 65.6378C97.0122 65.6769 96.6348 65.7571 96.4037 65.8582ZM99.3863 68.9606C99.3964 68.8664 99.4015 68.7608 99.4015 68.6429H98.5515C98.5515 68.7981 98.5402 68.8931 98.5303 68.9454C98.5098 68.9665 98.4914 68.9898 98.4755 69.0151C98.4758 69.0146 98.4755 69.0149 98.4746 69.016C98.4672 69.0245 98.4169 69.0827 98.2979 69.1425C98.173 69.2053 97.9795 69.2656 97.7041 69.2656C97.5646 69.2656 97.4891 69.2261 97.4432 69.1885C97.3912 69.1459 97.3482 69.0807 97.3185 68.997C97.2906 68.9185 97.2809 68.8417 97.2809 68.7925H96.4309C96.4309 68.8583 96.4363 68.9312 96.4483 69.008C96.4105 69.0109 96.352 69.0074 96.2666 68.9829C96.1683 68.9545 96.0282 68.8597 95.9015 68.6775C95.7785 68.5007 95.6911 68.2726 95.674 68.0318C95.6572 67.7952 95.7079 67.5473 95.8594 67.3141C96.0114 67.0801 96.2811 66.8363 96.7411 66.6384L96.7441 66.6371L96.7441 66.6371C96.8539 66.5889 97.1282 66.5197 97.5001 66.484C97.8543 66.4499 98.2572 66.4503 98.6273 66.5125C99.4603 66.7738 99.8917 67.3955 99.9726 67.8237C100.031 68.1328 99.9896 68.5343 99.8389 68.7677C99.7726 68.8701 99.6944 68.9284 99.5948 68.9524C99.544 68.9646 99.4757 68.9708 99.3863 68.9606ZM98.5179 68.9941C98.518 68.9941 98.5182 68.9935 98.5187 68.9922L98.5179 68.9941Z" fill="#363636"/>
<path fill-rule="evenodd" clip-rule="evenodd" d="M145.601 28.6064V31.1672H144.751V28.6064H145.601ZM145.601 37.4968V39.7193H144.751V37.4968H145.601ZM145.601 46.8219V48.8996H144.751V46.8219H145.601ZM145.74 61.5013C149.024 62.1941 151.593 60.2422 151.835 57.9082C150.217 57.6939 148.896 58.0793 147.874 58.7847C146.899 59.4579 146.178 60.4355 145.74 61.5013ZM145.601 59.9442V56.5336H144.751V62.1558C143.594 60.4259 141.314 58.895 137.814 59.4477L137.42 59.5099L137.457 59.9067C137.591 61.3617 138.661 63.0329 140.107 64.0882C141.403 65.0344 143.081 65.539 144.751 64.8902V70H145.601V62.34C149.436 63.1232 152.703 60.7012 152.703 57.5483V57.1942L152.355 57.1303C150.353 56.7626 148.68 57.1955 147.391 58.0851C146.664 58.5875 146.066 59.2301 145.601 59.9442ZM144.687 63.9925C143.279 64.6571 141.814 64.2821 140.608 63.4017C139.454 62.5592 138.618 61.3082 138.369 60.2309C142.192 59.8157 144.192 62.2267 144.687 63.9925Z" fill="#363636"/>
<path fill-rule="evenodd" clip-rule="evenodd" d="M144.063 50.0606C143.741 50.5704 143.506 51.3086 143.443 52.168L142.596 52.1066C142.666 51.1396 142.932 50.2592 143.344 49.607C143.75 48.9632 144.346 48.4751 145.08 48.4751C145.8 48.4751 146.389 48.9464 146.794 49.5723C147.203 50.2055 147.473 51.0611 147.556 52.0037L146.709 52.0777C146.636 51.241 146.398 50.5263 146.08 50.034C145.757 49.5344 145.397 49.3251 145.08 49.3251C144.757 49.3251 144.39 49.5424 144.063 50.0606Z" fill="#363636"/>
<path fill-rule="evenodd" clip-rule="evenodd" d="M139.528 53.3548C139.644 54.0579 140.025 54.8782 140.663 55.6298C141.3 56.3815 142.047 56.8909 142.722 57.12C143.406 57.3523 143.938 57.2774 144.259 57.0052C144.58 56.7329 144.74 56.2205 144.623 55.5077C144.507 54.8046 144.126 53.9843 143.489 53.2326C142.851 52.4809 142.104 51.9716 141.429 51.7425C140.745 51.5102 140.213 51.585 139.892 51.8573C139.571 52.1296 139.411 52.6419 139.528 53.3548ZM138.69 53.4931C138.546 52.6238 138.704 51.7506 139.343 51.2091C139.981 50.6675 140.868 50.6543 141.703 50.9376C142.546 51.2241 143.417 51.8339 144.137 52.6828C144.857 53.5316 145.317 54.4902 145.462 55.3694C145.605 56.2387 145.447 57.1118 144.809 57.6534C144.17 58.1949 143.283 58.2081 142.449 57.9248C141.605 57.6384 140.734 57.0285 140.014 56.1797C139.294 55.3308 138.835 54.3722 138.69 53.4931Z" fill="#363636"/>
<path fill-rule="evenodd" clip-rule="evenodd" d="M148.635 51.551C147.972 51.81 147.248 52.3522 146.644 53.1317C146.041 53.9111 145.698 54.7476 145.613 55.4551C145.528 56.1725 145.711 56.6772 146.044 56.9349C146.377 57.1925 146.911 57.2435 147.584 56.9809C148.248 56.7218 148.972 56.1796 149.575 55.4002C150.178 54.6207 150.522 53.7842 150.606 53.0767C150.692 52.3593 150.509 51.8546 150.176 51.597C149.843 51.3393 149.308 51.2883 148.635 51.551ZM148.326 50.7591C149.147 50.4388 150.034 50.4124 150.696 50.9248C151.358 51.4373 151.555 52.3025 151.45 53.1774C151.345 54.0621 150.929 55.0403 150.247 55.9205C149.566 56.8007 148.723 57.4488 147.893 57.7727C147.072 58.093 146.186 58.1195 145.524 57.607C144.862 57.0946 144.665 56.2293 144.769 55.3545C144.875 54.4697 145.291 53.4916 145.972 52.6114C146.654 51.7312 147.496 51.083 148.326 50.7591Z" fill="#363636"/>
<path fill-rule="evenodd" clip-rule="evenodd" d="M145.081 40.1439C144.737 40.1439 144.323 40.4245 143.992 41.1002L143.229 40.7263C143.615 39.9378 144.253 39.2939 145.081 39.2939C145.771 39.2939 146.332 39.7453 146.716 40.3383C147.104 40.9385 147.359 41.7481 147.437 42.6387L146.59 42.7127C146.522 41.928 146.299 41.2593 146.002 40.8C145.7 40.3333 145.368 40.1439 145.081 40.1439Z" fill="#363636"/>
<path fill-rule="evenodd" clip-rule="evenodd" d="M144.66 45.9113C144.572 45.2476 144.239 44.4753 143.646 43.7765L144.295 43.2267C144.98 44.0347 145.391 44.9558 145.502 45.8003C145.612 46.6343 145.433 47.4672 144.83 47.9786C144.273 48.4513 143.52 48.5251 142.786 48.3345C142.05 48.1434 141.287 47.6792 140.621 46.9958L141.23 46.4026C141.809 46.9975 142.442 47.3669 143 47.5118C143.56 47.6572 143.999 47.5694 144.281 47.3304C144.581 47.0756 144.749 46.5855 144.66 45.9113Z" fill="#363636"/>
<path fill-rule="evenodd" clip-rule="evenodd" d="M148.445 42.238C147.825 42.4799 147.147 42.9873 146.581 43.7182C146.016 44.449 145.694 45.2324 145.616 45.8933C145.536 46.5641 145.708 47.0287 146.012 47.2638C146.315 47.4989 146.808 47.5492 147.437 47.3036C148.058 47.0616 148.735 46.5542 149.301 45.8234C149.867 45.0925 150.188 44.3092 150.267 43.6482C150.347 42.9774 150.175 42.5129 149.871 42.2778C149.567 42.0427 149.074 41.9924 148.445 42.238ZM148.136 41.4461C148.913 41.1429 149.758 41.1157 150.391 41.6056C151.024 42.0955 151.21 42.9206 151.111 43.7489C151.011 44.587 150.617 45.5121 149.973 46.3437C149.33 47.1753 148.533 47.7886 147.746 48.0954C146.969 48.3987 146.124 48.4258 145.491 47.9359C144.858 47.446 144.673 46.6209 144.772 45.7926C144.872 44.9545 145.266 44.0295 145.909 43.1979C146.553 42.3663 147.35 41.753 148.136 41.4461Z" fill="#363636"/>
<path fill-rule="evenodd" clip-rule="evenodd" d="M144.28 32.1343C144.016 32.5534 143.82 33.1653 143.768 33.8821L142.92 33.8207C142.98 32.9962 143.207 32.2422 143.561 31.6807C143.91 31.1276 144.431 30.6946 145.082 30.6946C145.722 30.6946 146.236 31.1127 146.584 31.6508C146.937 32.1961 147.168 32.9291 147.238 33.7328L146.391 33.8068C146.33 33.109 146.132 32.5169 145.871 32.1125C145.604 31.7008 145.318 31.5446 145.082 31.5446C144.842 31.5446 144.55 31.7068 144.28 32.1343Z" fill="#363636"/>
<path fill-rule="evenodd" clip-rule="evenodd" d="M140.434 34.8678C140.53 35.4473 140.845 36.1288 141.376 36.7555C141.908 37.3822 142.529 37.8042 143.085 37.993C143.651 38.1851 144.072 38.1171 144.318 37.9084C144.564 37.6996 144.699 37.2954 144.602 36.7061C144.507 36.1266 144.192 35.4451 143.66 34.8184C143.129 34.1917 142.508 33.7697 141.951 33.5808C141.386 33.3888 140.965 33.4567 140.719 33.6655C140.473 33.8742 140.337 34.2784 140.434 34.8678ZM139.596 35.0061C139.473 34.2603 139.605 33.4953 140.169 33.0173C140.733 32.5393 141.509 32.5329 142.225 32.776C142.95 33.0222 143.694 33.5447 144.308 34.2686C144.922 34.9925 145.316 35.8122 145.441 36.5678C145.564 37.3136 145.431 38.0786 144.867 38.5566C144.304 39.0346 143.528 39.0409 142.812 38.7979C142.087 38.5517 141.342 38.0292 140.728 37.3053C140.114 36.5814 139.72 35.7617 139.596 35.0061Z" fill="#363636"/>
<path fill-rule="evenodd" clip-rule="evenodd" d="M148.126 33.4181C147.579 33.6317 146.978 34.081 146.474 34.7308C145.971 35.3807 145.687 36.0755 145.618 36.6588C145.547 37.2519 145.701 37.6496 145.956 37.8471C146.211 38.0447 146.634 38.0937 147.191 37.8766C147.738 37.6631 148.34 37.2138 148.843 36.5639C149.346 35.914 149.63 35.2192 149.699 34.636C149.77 34.0429 149.616 33.6451 149.361 33.4476C149.106 33.2501 148.683 33.201 148.126 33.4181ZM147.817 32.6263C148.521 32.3515 149.297 32.3231 149.882 32.7755C150.466 33.2278 150.633 33.9861 150.543 34.7366C150.453 35.4971 150.096 36.3336 149.515 37.0842C148.934 37.8348 148.213 38.3901 147.5 38.6684C146.796 38.9432 146.02 38.9716 145.435 38.5193C144.851 38.067 144.684 37.3087 144.774 36.5581C144.864 35.7977 145.221 34.9612 145.802 34.2105C146.383 33.4599 147.104 32.9047 147.817 32.6263Z" fill="#363636"/>
<path fill-rule="evenodd" clip-rule="evenodd" d="M144.404 24.0313C144.172 24.3994 143.997 24.9402 143.951 25.5768L143.104 25.5154C143.157 24.7711 143.363 24.0882 143.685 23.5777C144.002 23.0756 144.48 22.6736 145.085 22.6736C145.679 22.6736 146.152 23.0619 146.468 23.5505C146.789 24.0464 146.997 24.7104 147.06 25.436L146.213 25.51C146.159 24.8903 145.984 24.3672 145.754 24.0122C145.52 23.6499 145.275 23.5236 145.085 23.5236C144.891 23.5236 144.641 23.6549 144.404 24.0313Z" fill="#363636"/>
<path fill-rule="evenodd" clip-rule="evenodd" d="M140.943 26.4493C141.028 26.9594 141.306 27.5627 141.778 28.1191C142.25 28.6756 142.8 29.0484 143.289 29.2146C143.788 29.384 144.147 29.3199 144.351 29.1469C144.554 28.9739 144.676 28.6306 144.59 28.1107C144.506 27.6006 144.228 26.9973 143.756 26.4409C143.284 25.8844 142.734 25.5116 142.245 25.3454C141.746 25.176 141.387 25.2401 141.183 25.4131C140.979 25.5861 140.858 25.9294 140.943 26.4493ZM140.105 26.5876C139.993 25.9113 140.112 25.2071 140.634 24.7648C141.155 24.3226 141.869 24.3201 142.518 24.5405C143.177 24.7641 143.85 25.2374 144.405 25.891C144.959 26.5447 145.316 27.2863 145.429 27.9724C145.541 28.6487 145.422 29.3529 144.9 29.7951C144.379 30.2374 143.665 30.2399 143.016 30.0195C142.357 29.7959 141.684 29.3226 141.129 28.669C140.575 28.0153 140.218 27.2737 140.105 26.5876Z" fill="#363636"/>
<path fill-rule="evenodd" clip-rule="evenodd" d="M147.839 25.1988C147.357 25.3867 146.825 25.7837 146.378 26.3607C145.931 26.9377 145.68 27.5529 145.619 28.0662C145.557 28.5894 145.694 28.9269 145.905 29.0906C146.117 29.2544 146.478 29.3023 146.969 29.1108C147.45 28.9229 147.983 28.5259 148.43 27.9489C148.876 27.3719 149.127 26.7567 149.188 26.2434C149.251 25.7202 149.114 25.3827 148.902 25.2189C148.691 25.0552 148.33 25.0072 147.839 25.1988ZM147.53 24.4069C148.168 24.1577 148.882 24.1283 149.423 24.5468C149.963 24.9653 150.114 25.6634 150.032 26.3441C149.95 27.0346 149.626 27.7914 149.102 28.4692C148.577 29.1469 147.926 29.6499 147.278 29.9027C146.639 30.1518 145.926 30.1813 145.385 29.7628C144.844 29.3443 144.694 28.6462 144.775 27.9655C144.858 27.275 145.181 26.5182 145.706 25.8404C146.23 25.1627 146.882 24.6597 147.53 24.4069Z" fill="#363636"/>
</svg>
