<svg width="222" height="90" viewBox="0 0 222 90" fill="none" xmlns="http://www.w3.org/2000/svg">
<path fill-rule="evenodd" clip-rule="evenodd" d="M222 70.5973H0V69.7473H222V70.5973Z" fill="#E76F18"/>
<path fill-rule="evenodd" clip-rule="evenodd" d="M85.6574 8.85H157.74V14.6913H85.6574V8.85ZM158.59 8V15.5413H84.8074V8H158.59Z" fill="#363636"/>
<path fill-rule="evenodd" clip-rule="evenodd" d="M159.016 59.3452H100.095V60.1952H158.166V69.74H84.8082V70.59H159.016V59.3452Z" fill="#363636"/>
<path fill-rule="evenodd" clip-rule="evenodd" d="M154.293 22.5556V15.5413H155.143V59.77H154.293V23.4056H147.754V26.8358H149.826V27.6858H144.73V26.8358H146.904V23.4056H135.151V22.5556H139.516V19.6176H140.366V22.5556H154.293Z" fill="#363636"/>
<path fill-rule="evenodd" clip-rule="evenodd" d="M88.1535 15.2356V23.4903H89.0035V23.2019H91.8732V25.4265H92.7232V23.2019H100.298V22.3519H96.4429V19.2274H103.967V18.3774H93.7759V19.2274H95.5929V22.3519H89.0035V15.2356H88.1535Z" fill="#363636"/>
<path fill-rule="evenodd" clip-rule="evenodd" d="M132.706 29.4184C140.351 29.4184 146.548 35.6158 146.548 43.2607V59.77H147.398V43.2607C147.398 35.1463 140.82 28.5684 132.706 28.5684H108.503V29.4184H132.706Z" fill="#363636"/>
<path fill-rule="evenodd" clip-rule="evenodd" d="M132.706 34.7177C137.537 34.7177 141.453 38.6338 141.453 43.4645V59.77H142.303V43.4645C142.303 38.1643 138.006 33.8677 132.706 33.8677H108.859V34.7177H132.706Z" fill="#363636"/>
<path fill-rule="evenodd" clip-rule="evenodd" d="M135.984 55.0649H107.007V59.974H107.857V55.9149H135.134V59.974H135.984V55.0649Z" fill="#363636"/>
<path fill-rule="evenodd" clip-rule="evenodd" d="M135.984 50.7847H127.814V51.6347H135.134V55.6937H135.984V50.7847ZM111.934 51.6347H114.26V50.7847H111.084V55.6937H111.934V51.6347Z" fill="#363636"/>
<path fill-rule="evenodd" clip-rule="evenodd" d="M118.099 38.1638L118.43 39.3029C118.665 40.11 119.17 42.7941 116.236 45.5492C113.96 47.6869 113.486 50.0859 113.838 52.0441C114.012 53.0148 114.388 53.8735 114.841 54.5359C115.286 55.1866 115.835 55.6921 116.383 55.8896L116.453 55.9147H126.1L126.226 55.781C127.776 54.134 128.531 52.1937 128.435 50.208C128.339 48.2255 127.397 46.2465 125.645 44.5084L124.806 43.6764L124.923 44.852C124.965 45.2802 124.952 46.1462 124.708 46.9054C124.524 47.4781 124.239 47.9164 123.806 48.1229C123.805 47.0531 123.596 45.5681 123.026 44.0305C122.34 42.1823 121.12 40.2298 119.078 38.8334L118.099 38.1638ZM122.229 44.3263C122.872 46.0593 123.016 47.701 122.936 48.6359L122.894 49.135L123.393 49.0956C124.615 48.9992 125.23 48.0613 125.517 47.1654C125.653 46.7424 125.728 46.2995 125.764 45.8961C126.921 47.2974 127.516 48.793 127.586 50.2491C127.667 51.9264 127.056 53.597 125.73 55.0647H116.608C116.304 54.9312 115.911 54.5953 115.543 54.0564C115.157 53.4911 114.827 52.7443 114.675 51.8939C114.372 50.2097 114.758 48.1032 116.818 46.1688C119.235 43.8984 119.56 41.6203 119.447 40.1929C120.813 41.3875 121.691 42.8789 122.229 44.3263Z" fill="#363636"/>
<path fill-rule="evenodd" clip-rule="evenodd" d="M105.175 23.1531C105.513 23.0767 105.849 23.1498 106.112 23.4074C107.531 24.7936 108.008 26.7067 107.985 28.6227C107.971 29.7965 107.768 30.9509 107.493 31.9463C106.584 31.0594 105.595 30.3437 104.626 29.7819L105.123 28.8739L104.377 28.4659L103.879 29.3762C103.01 28.9349 102.174 28.6145 101.442 28.4032L104.266 23.8252C104.486 23.4685 104.829 23.2314 105.175 23.1531ZM100.594 28.1588L103.543 23.3789C103.878 22.8363 104.409 22.4549 104.988 22.324C105.575 22.1913 106.214 22.3185 106.706 22.7995C108.35 24.4064 108.86 26.5837 108.835 28.633C108.817 30.0837 108.533 31.4976 108.17 32.6567C109.695 34.3826 110.89 36.6582 111.199 39.5782C111.265 40.201 111.634 40.7803 112.17 41.1743C112.501 41.4179 112.842 41.7115 113.139 42.0467C113.564 42.5276 113.606 43.1121 113.398 43.6135C113.197 44.0968 112.771 44.4964 112.256 44.7136L99.7199 49.9974L98.4095 52.6352C97.5178 54.4299 94.9576 54.4299 94.066 52.6351L92.7555 49.9974L80.2198 44.7136C79.7046 44.4964 79.2784 44.0968 79.0775 43.6135C78.8692 43.1121 78.9117 42.5276 79.3369 42.0467C79.6334 41.7115 79.9748 41.4179 80.3059 41.1743C80.8417 40.7802 81.2102 40.202 81.276 39.5794C81.5842 36.6644 82.778 34.3855 84.3058 32.6566C83.8823 31.304 83.5619 29.5941 83.656 27.8811C83.7557 26.0644 84.3248 24.2113 85.769 22.7997C86.2611 22.3187 86.9005 22.1914 87.4874 22.3241C88.0661 22.4549 88.5978 22.8363 88.9326 23.3789L91.8818 28.1588C92.6169 27.9435 94.0928 27.6774 96.2377 27.6774C98.3826 27.6774 99.8585 27.9435 100.594 28.1588ZM91.0339 28.4032C90.3017 28.6145 89.4651 28.9349 88.5962 29.3762L88.0982 28.4659L87.3525 28.8739L87.8493 29.7819C86.8797 30.3441 85.8911 31.0594 84.9825 31.946C84.652 30.7501 84.4276 29.3314 84.5047 27.9277C84.5969 26.2495 85.1166 24.6259 86.3631 23.4076C86.6266 23.15 86.9622 23.0768 87.3 23.1532C87.6462 23.2314 87.9891 23.4685 88.2092 23.8252L91.0339 28.4032ZM85.2703 32.8632C86.3093 31.7768 87.488 30.9387 88.6268 30.3202C89.801 29.6824 90.924 29.2827 91.7925 29.0842L91.8275 29.0762L91.8606 29.0624C92.2448 28.9031 93.7291 28.5274 96.2377 28.5274C98.7463 28.5274 100.231 28.9031 100.615 29.0624L100.648 29.0762L100.683 29.0842C101.551 29.2827 102.674 29.6824 103.849 30.3202C104.989 30.9396 106.167 31.7768 107.205 32.863C107.112 33.128 107.015 33.3744 106.918 33.5982L98.1007 51.3462C97.6673 51.1438 97.016 50.9445 96.2377 50.9445C95.4594 50.9445 94.8081 51.1438 94.3747 51.3462L85.5573 33.5982C85.461 33.3753 85.3642 33.129 85.2703 32.8632ZM94.753 52.1076C95.0757 51.96 95.5976 51.7945 96.2377 51.7945C96.8778 51.7945 97.3997 51.96 97.7224 52.1076L97.6482 52.257C97.0691 53.4226 95.4063 53.4226 94.8272 52.2569L94.753 52.1076ZM107.843 33.5849C109.118 35.1496 110.088 37.1539 110.354 39.6676C110.449 40.5651 110.97 41.3471 111.666 41.859C111.961 42.0764 112.255 42.3304 112.502 42.6098C112.69 42.8227 112.709 43.0551 112.613 43.2873C112.509 43.5374 112.264 43.7878 111.925 43.9303L100.3 48.8307L107.689 33.9565L107.694 33.9463C107.744 33.8312 107.794 33.7106 107.843 33.5849ZM84.6324 33.5849C84.6819 33.7104 84.7317 33.831 84.7817 33.9463L84.7861 33.9565L92.1758 48.8307L80.55 43.9303C80.2118 43.7878 79.9664 43.5374 79.8624 43.2873C79.766 43.0551 79.7854 42.8227 79.9736 42.6098C80.2208 42.3304 80.5141 42.0764 80.8096 41.859C81.5053 41.3473 82.0264 40.5664 82.1213 39.6687C82.3876 37.1495 83.3591 35.1472 84.6324 33.5849Z" fill="#363636"/>
<path fill-rule="evenodd" clip-rule="evenodd" d="M106.877 43.7082V42.7151H106.027V43.7082H106.877Z" fill="#363636"/>
<path fill-rule="evenodd" clip-rule="evenodd" d="M87.0156 43.7082V42.7151H86.1656V43.7082H87.0156Z" fill="#363636"/>
<path fill-rule="evenodd" clip-rule="evenodd" d="M101.203 34.0608V32.7839H100.353V34.0608H101.203Z" fill="#363636"/>
<path fill-rule="evenodd" clip-rule="evenodd" d="M96.6621 34.0608V32.7839H95.8121V34.0608H96.6621Z" fill="#363636"/>
<path fill-rule="evenodd" clip-rule="evenodd" d="M98.9336 38.3169V37.04H98.0836V38.3169H98.9336Z" fill="#363636"/>
<path fill-rule="evenodd" clip-rule="evenodd" d="M92.4062 34.0608V32.7839H91.5562V34.0608H92.4062Z" fill="#363636"/>
<path fill-rule="evenodd" clip-rule="evenodd" d="M94.6777 38.3169V37.04H93.8277V38.3169H94.6777Z" fill="#363636"/>
<path fill-rule="evenodd" clip-rule="evenodd" d="M96.6621 42.5728V41.2959H95.8121V42.5728H96.6621Z" fill="#363636"/>
<path fill-rule="evenodd" clip-rule="evenodd" d="M63.3545 35.7407H63.9485C67.1277 35.7407 73.7316 37.5245 76.1454 44.4858C76.3018 44.9368 76.4402 45.4089 76.5588 45.9029L76.5648 45.9281L76.5678 45.9538C76.6796 46.9312 76.7423 48.517 76.57 50.1245C76.3995 51.7156 75.9911 53.4077 75.1014 54.5288C74.0868 55.8073 73.8846 56.8972 73.9327 57.6087C76.7156 53.8112 81.5357 49.576 85.7442 46.3028L86.2661 46.9738C81.7849 50.459 76.6994 54.9713 74.1142 58.8292C73.0678 60.3909 72.4709 61.7881 72.4391 62.9324C72.3944 64.5411 72.6651 65.7516 73.1194 66.6661C73.8541 68.1446 75.107 68.921 76.4823 69.331C77.8682 69.7441 79.3454 69.7745 80.4736 69.7745H93.5702C93.458 69.1741 93.1648 68.4246 92.5854 67.7782C91.8641 66.9736 90.6712 66.2965 88.7361 66.2965H84.8127L84.8126 65.6115L84.7513 65.5257C84.7712 65.5115 84.7917 65.4965 84.8126 65.4808V65.4465H84.8575C85.2663 65.1297 85.8307 64.5576 86.2739 63.7982C86.7545 62.9749 87.0803 61.9535 86.9373 60.8093C86.8504 60.114 86.5863 59.6595 86.2328 59.348C85.87 59.0284 85.3788 58.8293 84.7936 58.7146C84.2089 58.6 83.5604 58.5751 82.909 58.5811C82.5951 58.584 82.2856 58.594 81.9842 58.6037L81.9531 58.6047C81.6443 58.6147 81.3423 58.6242 81.0638 58.6242V57.7742C81.3263 57.7742 81.6144 57.7652 81.9258 57.7552L81.9597 57.7541C82.2589 57.7444 82.5771 57.7342 82.9011 57.7312C83.5714 57.7249 84.2877 57.7492 84.9571 57.8805C85.6261 58.0116 86.2783 58.2552 86.7947 58.7102C87.3203 59.1733 87.671 59.8255 87.7808 60.7039C87.9525 62.0779 87.5571 63.286 87.0081 64.2267C86.7324 64.699 86.415 65.1094 86.1032 65.4465H88.7361C90.893 65.4465 92.3231 66.2122 93.2183 67.2109C93.9618 68.0404 94.3168 69.0085 94.4319 69.7745H94.8031L94.8031 58.5926H95.6531V69.7745H99.5246V57.3463L99.7595 57.2289C101.008 56.6044 103.466 53.996 102.095 48.6654L102.919 48.4537C104.313 53.8744 102.01 56.8822 100.375 57.8601V69.7745H102.507V70.6245H80.4736C79.3432 70.6245 77.7553 70.5974 76.2395 70.1456C74.7608 69.7048 73.3206 68.8503 72.4412 67.2053C72.2341 67.1408 71.9873 67.0726 71.7094 66.9958C70.0319 66.5323 67.2224 65.7561 65.1801 63.5804C62.6529 60.8881 61.3559 56.1754 64.1346 47.6411C64.2429 47.3084 64.3699 47.0175 64.481 46.7632C64.5366 46.6358 64.5883 46.5175 64.6315 46.4078C64.7696 46.0577 64.8892 45.6541 64.9526 44.9787C65.1285 43.106 64.8914 40.2488 63.5462 36.3029L63.3545 35.7407ZM72.0092 66.1932C71.7066 65.2815 71.5537 64.1967 71.5895 62.9088C71.6264 61.5792 72.276 60.0897 73.2746 58.558C72.9242 57.6787 72.8861 55.9528 74.4355 54.0004C75.1695 53.0756 75.5584 51.5872 75.7249 50.034C75.8881 48.5113 75.8301 47.0027 75.7262 46.0761C75.667 45.8313 75.6027 45.5926 75.5337 45.3599C73.9912 46.469 70.6158 47.4787 65.7273 45.6155C65.6508 46.0708 65.544 46.4108 65.4223 46.7196C65.356 46.8876 65.2939 47.0287 65.2337 47.1653C65.1347 47.3901 65.0409 47.603 64.9428 47.9042C62.2131 56.2884 63.5719 60.6252 65.7998 62.9986C67.6568 64.977 70.1589 65.6762 71.8552 66.1502C71.9073 66.1647 71.9586 66.1791 72.0092 66.1932ZM65.8243 44.7414C70.9151 46.7521 74.1244 45.4525 75.2494 44.5048C73.0745 38.629 67.6385 36.8177 64.5441 36.6113C65.685 40.1481 65.9517 42.836 65.8243 44.7414Z" fill="#363636"/>
</svg>
