<svg width="222" height="90" viewBox="0 0 222 90" fill="none" xmlns="http://www.w3.org/2000/svg">
<path fill-rule="evenodd" clip-rule="evenodd" d="M114 70.5973H0V69.7473H114V70.5973ZM222 70.5973H137.5V69.7473H222V70.5973Z" fill="#E76F18"/>
<path fill-rule="evenodd" clip-rule="evenodd" d="M131.449 22.553C132.037 22.4227 132.677 22.5581 133.157 23.0591C134.392 24.3479 134.87 26.007 134.944 27.6229C135.013 29.136 134.731 30.6398 134.359 31.8377C135.714 33.3768 136.777 35.3956 137.076 37.9673C137.149 38.5919 137.52 39.1729 138.054 39.5812C138.28 39.7542 138.508 39.9522 138.717 40.1722C139.162 40.6396 139.218 41.2233 139.015 41.7273C138.819 42.2111 138.394 42.6122 137.878 42.8296L126.718 47.5369L125.716 49.5543C124.825 51.3492 122.265 51.3498 121.373 49.5553L120.37 47.5383L109.207 42.8362C108.692 42.619 108.266 42.2181 108.07 41.7344C107.867 41.2305 107.923 40.6467 108.367 40.1791C108.577 39.9591 108.805 39.7609 109.031 39.5879C109.563 39.1794 109.935 38.5975 110.007 37.9727C110.306 35.396 111.369 33.3797 112.722 31.8428C112.404 30.8208 112.153 29.583 112.127 28.3094C112.089 26.4857 112.512 24.5349 113.92 23.0639C114.399 22.5627 115.039 22.4269 115.627 22.5568C116.206 22.6845 116.74 23.067 117.074 23.6094L119.626 27.7419C120.305 27.5474 121.63 27.3139 123.539 27.3135C125.448 27.3131 126.774 27.5459 127.453 27.7401L130.002 23.6065C130.337 23.0639 130.87 22.6811 131.449 22.553ZM128.301 27.9845C128.942 28.1729 129.668 28.4523 130.421 28.832L130.852 28.0452L131.597 28.453L131.168 29.2376C132.017 29.7329 132.882 30.358 133.68 31.1279C133.961 30.0893 134.15 28.8711 134.095 27.6619C134.027 26.1791 133.592 24.7424 132.543 23.6472C132.292 23.3852 131.966 23.3091 131.633 23.3829C131.29 23.4588 130.946 23.6958 130.726 24.0526L128.301 27.9845ZM133.394 32.0446C132.464 31.0764 131.41 30.3285 130.391 29.7755C129.334 29.2016 128.324 28.8424 127.544 28.6642L127.509 28.6562L127.475 28.6425C127.136 28.5016 125.802 28.163 123.54 28.1635C121.277 28.164 119.944 28.5033 119.604 28.6443L119.571 28.6581L119.536 28.6661C118.755 28.8446 117.745 29.2043 116.688 29.7786C115.668 30.3329 114.616 31.0806 113.686 32.0489C113.768 32.2777 113.852 32.4908 113.936 32.685L121.881 48.6693C122.278 48.4899 122.857 48.3194 123.544 48.3192C124.231 48.3191 124.811 48.4893 125.207 48.6685L133.145 32.6806C133.229 32.4872 133.313 32.2742 133.394 32.0446ZM124.806 49.4206C124.517 49.2974 124.077 49.1691 123.544 49.1692C123.012 49.1693 122.572 49.2979 122.283 49.4212C122.903 50.261 124.186 50.2607 124.806 49.4206ZM113.051 32.7714C111.946 34.1466 111.104 35.8939 110.851 38.0706C110.748 38.9645 110.228 39.7409 109.548 40.2625C109.35 40.4139 109.157 40.5827 108.983 40.7649C108.79 40.9684 108.768 41.1911 108.858 41.4158C108.957 41.6607 109.199 41.9105 109.537 42.0529L119.79 46.3717L113.165 33.0434L113.16 33.0332C113.124 32.9491 113.087 32.8618 113.051 32.7714ZM113.4 31.1328C114.199 30.3623 115.063 29.7364 115.911 29.2411L115.482 28.4567L116.227 28.0485L116.658 28.8351C117.411 28.4551 118.137 28.1754 118.778 27.9867L116.351 24.0559C116.131 23.6992 115.787 23.4625 115.444 23.3868C115.11 23.3132 114.785 23.3896 114.534 23.6517C113.337 24.9014 112.941 26.5964 112.977 28.2919C112.997 29.2933 113.168 30.2762 113.4 31.1328ZM127.297 46.37L137.548 42.0464C137.886 41.9039 138.128 41.654 138.227 41.4091C138.317 41.1843 138.295 40.9616 138.101 40.7582C137.928 40.5761 137.734 40.4073 137.537 40.2561C136.856 39.7349 136.336 38.9595 136.232 38.0655C135.978 35.8841 135.134 34.1389 134.03 32.7666C133.994 32.8568 133.958 32.9442 133.921 33.0284L133.917 33.0386L127.297 46.37Z" fill="#363636"/>
<path fill-rule="evenodd" clip-rule="evenodd" d="M113.895 41.8292L113.895 40.9326L114.745 40.9324L114.745 41.829L113.895 41.8292Z" fill="#363636"/>
<path fill-rule="evenodd" clip-rule="evenodd" d="M131.826 41.8251L131.826 40.9285L132.676 40.9283L132.676 41.8249L131.826 41.8251Z" fill="#363636"/>
<path fill-rule="evenodd" clip-rule="evenodd" d="M119.016 33.1198L119.016 31.967L119.866 31.9668L119.866 33.1196L119.016 33.1198Z" fill="#363636"/>
<path fill-rule="evenodd" clip-rule="evenodd" d="M123.115 33.1174L123.115 31.9646L123.965 31.9644L123.965 33.1172L123.115 33.1174Z" fill="#363636"/>
<path fill-rule="evenodd" clip-rule="evenodd" d="M121.067 36.9604L121.066 35.8076L121.916 35.8074L121.917 36.9602L121.067 36.9604Z" fill="#363636"/>
<path fill-rule="evenodd" clip-rule="evenodd" d="M126.957 33.1174L126.957 31.9646L127.807 31.9644L127.807 33.1172L126.957 33.1174Z" fill="#363636"/>
<path fill-rule="evenodd" clip-rule="evenodd" d="M124.908 36.9596L124.908 35.8069L125.758 35.8067L125.758 36.9594L124.908 36.9596Z" fill="#363636"/>
<path fill-rule="evenodd" clip-rule="evenodd" d="M123.117 40.8027L123.117 39.6499L123.967 39.6497L123.967 40.8025L123.117 40.8027Z" fill="#363636"/>
<path fill-rule="evenodd" clip-rule="evenodd" d="M131.352 51.5152C130.838 53.154 129.733 54.5054 128.662 55.6678C127.609 56.8103 126.373 57.7689 125.03 58.5361L123.462 59.432L120.11 56.5913C117.604 54.5382 116.406 52.7086 115.978 50.9186C115.551 49.1372 115.905 47.4634 116.343 45.7882L117.165 46.0033C116.729 47.671 116.431 49.1626 116.804 50.7206C117.175 52.2692 118.229 53.952 120.652 55.9359L120.657 55.9405L123.558 58.3986L124.609 57.7981C125.882 57.0704 127.048 56.1649 128.037 55.0918C129.097 53.9417 130.087 52.7076 130.541 51.2607C130.987 49.8391 130.928 48.1659 129.789 46.101L130.533 45.6904C131.773 47.9385 131.874 49.8511 131.352 51.5152Z" fill="#363636"/>
<path fill-rule="evenodd" clip-rule="evenodd" d="M114.478 47.5691C114.029 48.5652 113.952 49.9696 114.193 51.2149C115.063 55.7194 116.232 59.9289 117.549 64.1393L117.575 64.2212L117.365 66.4188L116.519 66.3379L116.713 64.3112C115.4 60.1108 114.231 55.8937 113.358 51.3762C113.095 50.0143 113.162 48.4209 113.703 47.2199C113.976 46.6143 114.381 46.0852 114.948 45.7543C115.523 45.4195 116.221 45.3126 117.028 45.4796L116.856 46.3119C116.224 46.1811 115.744 46.2743 115.377 46.4886C115.002 46.7069 114.7 47.0763 114.478 47.5691ZM119.221 54.7568L120.956 64.1893L120.12 64.3431L118.385 54.9106L119.221 54.7568Z" fill="#363636"/>
<path fill-rule="evenodd" clip-rule="evenodd" d="M132.688 47.4485C133.187 48.3687 133.333 49.6146 133.096 50.8427C132.513 53.8566 132.189 54.856 131.662 56.4822C131.445 57.152 131.193 57.9281 130.874 58.9951L131.689 59.2382C131.999 58.2001 132.247 57.4344 132.463 56.7668C132.997 55.1204 133.337 54.0708 133.93 51.004C134.197 49.6253 134.047 48.1712 133.435 47.0431C132.812 45.8955 131.712 45.0984 130.161 45.0984V45.9484C131.371 45.9484 132.199 46.5479 132.688 47.4485ZM127.135 56.07L126.29 61.345L127.129 61.4794L127.974 56.2044L127.135 56.07Z" fill="#363636"/>
<path fill-rule="evenodd" clip-rule="evenodd" d="M111.785 51.4461C112.773 51.4406 113.669 51.6997 114.188 52.1538L113.628 52.7935C113.324 52.5276 112.664 52.2912 111.789 52.2961C110.932 52.3009 109.927 52.5388 108.975 53.1447C107.404 54.1448 106.776 56.0565 107.103 58.1383C107.43 60.2158 108.707 62.3907 110.842 63.7895L110.376 64.5005C108.037 62.9678 106.627 60.5807 106.264 58.2704C105.901 55.9643 106.579 53.6623 108.519 52.4277C109.614 51.7301 110.778 51.4517 111.785 51.4461Z" fill="#363636"/>
<path fill-rule="evenodd" clip-rule="evenodd" d="M139.802 68.508C146.084 60.7464 140.989 51.0773 133.318 51.2434L133.336 52.0932C140.156 51.9455 145.05 60.6725 139.141 67.9733C136.659 71.0397 133.251 72.8195 129.826 73.9095C126.576 74.9435 123.343 75.3478 120.909 75.6521C120.833 75.6616 120.758 75.671 120.683 75.6804L114.123 70.8952C114.669 69.6057 115.287 68.5399 116.219 67.5599C117.228 66.5002 118.625 65.5187 120.748 64.4748C121.91 63.9039 123.262 63.3998 124.645 62.8929C124.732 62.8613 124.818 62.8297 124.904 62.798C126.195 62.3255 127.503 61.8469 128.657 61.3135C129.884 60.7467 130.985 60.0981 131.725 59.2888C132.484 58.4601 132.868 57.4559 132.626 56.2408L131.793 56.4064C131.973 57.315 131.704 58.0527 131.098 58.715C130.474 59.3968 129.499 59.9883 128.301 60.5419C127.179 61.06 125.903 61.5273 124.602 62.0034C124.519 62.0338 124.436 62.0643 124.353 62.0948C122.976 62.5995 121.582 63.1181 120.373 63.712C118.196 64.7824 116.704 65.8172 115.604 66.974C114.5 68.1341 113.811 69.3949 113.208 70.8819C112.042 73.7615 111.373 76.6475 111.8 78.8574L111.924 79.5011L112.461 79.1249C115.075 77.2934 117.473 76.941 120.622 76.5447C120.754 76.5282 120.888 76.5113 121.026 76.4942C123.453 76.1908 126.757 75.778 130.083 74.7195C133.601 73.6002 137.179 71.7489 139.802 68.508ZM113.796 71.7088L119.457 75.8385C116.978 76.1745 114.815 76.6151 112.546 78.0474C112.398 76.2892 112.892 74.0635 113.796 71.7088Z" fill="#363636"/>
<path fill-rule="evenodd" clip-rule="evenodd" d="M115.286 60.864C115.782 62.6101 116.001 63.9031 116.041 64.8727C116.091 66.0603 115.872 66.7977 115.526 67.2834C115.322 67.5701 115.07 67.7581 114.878 67.8794L114.878 68.1084L114.134 68.1083V69.9705H110.446V68.1084H107.29V69.9705H103.769V68.1084H101.299V67.2584H102.1C101.937 67.133 101.805 66.9711 101.744 66.772L101.314 66.5827L101.656 65.8048L101.904 65.9139C102.122 65.5962 102.489 65.486 102.778 65.4614C102.885 65.4523 102.994 65.4532 103.102 65.463V65.1195L107.813 63.9067L110.742 63.9068L113.413 67.2582L114.254 67.2583C114.285 67.2393 114.316 67.2213 114.346 67.2037C114.525 67.0988 114.678 67.0089 114.834 66.7902C115.033 66.5115 115.237 65.9846 115.192 64.908C115.155 64.0284 114.954 62.8053 114.469 61.096L115.286 60.864ZM112.326 67.2584L110.333 64.7568L108.681 64.7567L110.425 67.2584H112.326ZM109.389 67.2584L107.687 64.8169L103.952 65.7784V67.2584H109.389ZM104.619 68.1084V69.1205H106.44V68.1084H104.619ZM103.102 66.7888V66.3193C103.02 66.3061 102.933 66.3012 102.851 66.3083C102.664 66.3242 102.61 66.3857 102.6 66.4023C102.565 66.4654 102.558 66.5016 102.557 66.5146C102.556 66.5212 102.556 66.5219 102.56 66.5284C102.569 66.5416 102.597 66.5768 102.676 66.6235C102.771 66.6802 102.911 66.7369 103.102 66.7888ZM113.284 68.1084H111.296V69.1205H113.284V68.1084Z" fill="#363636"/>
<path fill-rule="evenodd" clip-rule="evenodd" d="M99.9091 15.3421C100.331 12.2142 99.5227 8.36089 97.2144 5.52187C94.8533 2.61794 90.958 0.819498 85.348 1.88484C82.1308 2.49579 79.7644 3.68484 78.0781 5.22079C76.3911 6.75739 75.406 8.62206 74.9222 10.5491C73.9718 14.3348 74.9505 18.3763 76.3431 20.7546C74.586 20.6862 72.4431 21.0072 70.6005 22.2243C68.7045 23.4768 67.1775 25.6448 66.6953 29.1709C66.1746 32.9786 67.3903 35.6888 69.245 37.5105C70.4642 38.708 71.9474 39.5106 73.3668 39.9996C71.7439 40.8268 70.2562 42.978 70.2562 46.7465C70.2562 50.323 72.7275 53.7569 76.5703 55.4412C80.2824 57.0683 85.2724 57.0717 90.6436 54.0805V69.7247H91.4936V54.079C96.8524 57.0393 101.678 56.6285 105.221 54.5895C105.23 54.5848 105.238 54.5798 105.245 54.5746C105.697 54.2735 106.424 53.7412 107.157 53.1129C107.884 52.4897 108.641 51.7513 109.131 51.0358C110.137 49.6207 110.806 48.0389 111.062 46.4632L111.064 46.4508C111.163 45.7049 111.222 44.0674 110.794 42.7073L109.983 42.9627C110.358 44.1536 110.312 45.6468 110.222 46.3329C109.987 47.768 109.373 49.2283 108.436 50.5463L108.432 50.5526C108.005 51.1764 107.314 51.8586 106.604 52.4676C105.905 53.0669 105.211 53.575 104.785 53.8598C101.433 55.7836 96.7738 56.1805 91.4936 53.1017V46.9309L94.7645 43.8718L94.1838 43.251L91.4936 45.7671V33.3236H90.6436V53.1018C85.3153 56.2168 80.4436 56.2109 76.9115 54.6627C73.3165 53.087 71.1062 49.9233 71.1062 46.7465C71.1062 41.7816 73.7187 40.3401 75.1536 40.466C75.2483 40.4829 75.3419 40.4982 75.4343 40.5122C75.6594 40.5462 75.8713 40.3968 75.9149 40.1733C75.9585 39.9499 75.8183 39.7318 75.5969 39.6787C75.4816 39.651 75.3631 39.6308 75.2421 39.6182C73.5135 39.2999 71.4216 38.4569 69.8406 36.9041C68.1782 35.2712 67.053 32.8288 67.5375 29.286C67.9906 25.9723 69.4015 24.0351 71.069 22.9336C72.7522 21.8217 74.7483 21.528 76.4095 21.6083C77.0333 21.6384 77.4454 20.9399 77.126 20.4083C75.8056 18.2112 74.8458 14.3441 75.7466 10.756C76.1946 8.97165 77.1013 7.26029 78.6505 5.84918C80.2004 4.43742 82.4145 3.30709 85.5066 2.71992C90.8335 1.70834 94.4056 3.41477 96.5549 6.0581C98.7262 8.72866 99.4809 12.4002 99.0506 15.3433C98.967 15.9148 99.5306 16.3828 100.079 16.1838C106.025 14.0279 112.341 16.8282 113.701 23.2386L114.532 23.0623C113.058 16.1103 106.226 13.1197 99.9091 15.3421ZM91.4936 26.2709V29.2284H90.6436V26.2709H91.4936ZM105.765 36.8218C106.895 36.62 110.179 36.034 111.645 33.2154L112.399 33.6077C111.201 35.9105 108.965 36.8924 107.385 37.3356C107.508 37.3969 107.632 37.4633 107.757 37.5343C108.548 37.9844 109.406 38.6554 109.878 39.483L109.14 39.9047C108.776 39.2663 108.067 38.6888 107.337 38.2731C106.977 38.0682 106.626 37.9111 106.333 37.8101C106.038 37.7086 105.849 37.6811 105.772 37.6841C105.708 37.6956 105.645 37.7061 105.582 37.7155C105.357 37.7495 105.145 37.6001 105.102 37.3767C105.058 37.1532 105.198 36.9351 105.419 36.882C105.498 36.8633 105.577 36.8497 105.658 36.8409C105.691 36.8349 105.727 36.8286 105.765 36.8218ZM86.2271 37.4914L84.4108 35.6713L85.0124 35.0709L86.8287 36.891L86.2271 37.4914Z" fill="#363636"/>
</svg>
