<svg width="222" height="90" viewBox="0 0 222 90" fill="none" xmlns="http://www.w3.org/2000/svg">
<g clip-path="url(#clip0_10:15906)">
<path d="M0 70.0301H108.697M222 70.0301H143.025" stroke="#E76F18" stroke-width="0.85"/>
<path d="M87.7031 27.7033C76.7515 23.4557 64.3678 28.7426 59.8901 39.6584C55.3586 50.7056 60.6406 63.3347 71.6878 67.8662C72.761 68.3064 73.8488 68.654 74.9425 68.9126L74.9425 68.9126L74.9482 68.914C78.8487 69.8931 89.553 70.8317 97.0632 61.0106C98.1955 59.5298 99.1538 57.8767 99.8955 56.0685L99.896 56.0674C100.605 54.3389 101.214 52.8552 101.356 50.0645L100.82 48.7839L100.065 47.3079L96.5609 47.569L96.152 47.5995L96.1069 47.1919L95.5593 42.237L91.7562 41.7322L91.4554 41.6923L91.3955 41.3948L90.8361 38.6175L87.1199 37.0931L86.6198 36.888L86.9371 36.4504L88.9257 33.7085L86.6398 30.8758L86.482 30.6802L86.5774 30.4476L87.7031 27.7033Z" stroke="#363636" stroke-width="0.85"/>
<path d="M67.6427 39.4717L66.3453 37.7309" stroke="#363636" stroke-width="0.85"/>
<path d="M75.8722 53.154L73.8767 54.0094" stroke="#363636" stroke-width="0.85"/>
<path d="M75.4349 63.8007L73.7086 62.4841" stroke="#363636" stroke-width="0.85"/>
<path d="M77.2716 41.5259L75.6088 42.9219" stroke="#363636" stroke-width="0.85"/>
<path d="M94.8435 52.6291L95.1946 54.7716" stroke="#363636" stroke-width="0.85"/>
<circle r="1.27326" transform="matrix(0.37951 -0.925188 -0.925188 -0.37951 63.2138 53.4341)" fill="#363636"/>
<circle r="1.27326" transform="matrix(0.37951 -0.925188 -0.925188 -0.37951 85.8854 43.8684)" fill="#363636"/>
<circle r="1.27326" transform="matrix(0.37951 -0.925188 -0.925188 -0.37951 85.0459 62.3572)" fill="#363636"/>
<circle r="1.27326" transform="matrix(0.37951 -0.925188 -0.925188 -0.37951 74.8208 32.9645)" fill="#363636"/>
<path d="M88.7466 53.8152L86.7379 52.9912" stroke="#363636" stroke-width="0.85"/>
<path d="M112.017 56.1487L111.036 59.3993C115.316 60.8095 124.197 61.5433 131.195 55.9291M134.056 53.1213C134.675 52.3834 135.267 51.577 135.827 50.6968L132.776 51.993L129.812 49.3258L126.229 53.1213L124.616 52.1317M115.907 52.8888L115.845 51.5405L120.315 52.8888L121.949 51.5405" stroke="#363636" stroke-width="0.85"/>
<path d="M118.25 54.7531L118.67 56.8832" stroke="#363636" stroke-width="0.85"/>
<circle cx="124.124" cy="56.808" r="1.27326" transform="rotate(19.8504 124.124 56.808)" fill="#363636"/>
<path d="M118.761 26.3647L115.109 20.4499C114.782 19.9189 114.088 19.7258 113.59 20.1021C109.678 23.0584 110.868 28.9 112.047 31.6212L120.173 47.9679M118.761 26.3647C117.827 26.5785 116.634 27.0046 115.393 27.6792M118.761 26.3647C119.23 26.17 120.821 25.7804 123.432 25.7798C126.042 25.7792 127.634 26.168 128.103 26.3626M120.173 47.9679L106.487 42.2027C105.983 41.9904 105.679 41.4437 105.961 40.9755C106.392 40.2621 107.132 39.6679 107.755 39.2774C108.137 39.0376 108.4 38.6324 108.429 38.182C108.789 32.6938 112.247 29.3887 115.393 27.6792M120.173 47.9679L121.334 50.3032M121.334 50.3032L122.38 52.4072C122.815 53.2811 124.061 53.2808 124.496 52.4067L125.54 50.3022M121.334 50.3032C121.597 50.1085 122.386 49.7191 123.437 49.7188C124.488 49.7186 125.277 50.1076 125.54 50.3022M115.393 27.6792L114.674 26.3656M135.216 30.5683C135.088 30.9523 134.954 31.3046 134.819 31.6159L126.7 47.9664M135.216 30.5683C136.202 27.5954 136.736 22.7144 133.271 20.0978C132.773 19.7217 132.079 19.9149 131.752 20.4461L128.103 26.3626M135.216 30.5683C134.067 29.3173 132.744 28.366 131.472 27.6755M135.216 30.5683C136.909 32.4119 138.225 34.9063 138.44 38.1762C138.47 38.6266 138.732 39.0305 139.115 39.2702C139.738 39.6604 140.478 40.2542 140.909 40.9675C141.192 41.4356 140.888 41.9823 140.384 42.1949L126.7 47.9664M128.103 26.3626C129.037 26.5759 130.23 27.0015 131.472 27.6755M126.7 47.9664L125.54 50.3022M131.472 27.6755L132.19 26.3616" stroke="#363636" stroke-width="0.85"/>
<path d="M112.925 40.8153L112.926 41.8362" stroke="#363636" stroke-width="0.85"/>
<path d="M133.362 40.813L133.362 41.8339" stroke="#363636" stroke-width="0.85"/>
<path d="M118.763 30.5992L118.763 31.9118" stroke="#363636" stroke-width="0.85"/>
<path d="M123.434 30.5966L123.434 31.9092" stroke="#363636" stroke-width="0.85"/>
<path d="M121.099 34.9755L121.099 36.2881" stroke="#363636" stroke-width="0.85"/>
<path d="M127.813 30.5966L127.813 31.9092" stroke="#363636" stroke-width="0.85"/>
<path d="M125.477 34.9755L125.477 36.2881" stroke="#363636" stroke-width="0.85"/>
<path d="M123.436 39.3542L123.436 40.6668" stroke="#363636" stroke-width="0.85"/>
<path d="M117.184 46.4747L114.212 51.7604M129.492 46.4747L132.787 51.7235M137.287 64.4355C138.503 61.4274 138.205 57.9476 134.849 57.2218C133.858 57.0803 131.708 57.0945 131.029 58.2828" stroke="#363636" stroke-width="0.85"/>
<path d="M139.093 65.7115C141.717 68.0553 143.762 70.5925 144.398 72.9266C140.675 72.3474 137.943 73.2329 134.522 74.4112M139.093 65.7115C136.419 63.3233 133.944 62.1039 128.482 62.1039C122.464 62.1039 113.268 64.3259 111.995 59.5576M139.093 65.7115L134.522 74.4112M134.522 74.4112C129.168 76.2553 123.447 78.2956 115.055 74.4112C105.035 69.7732 102.107 59.2682 109.596 55.7859" stroke="#363636" stroke-width="0.85"/>
<path d="M131.071 55.5095C131.2 53.4964 135.572 52.5626 137.741 52.3474C139.095 52.9762 140.499 56.6491 137.517 57.3746C134.904 57.2684 130.973 57.0481 131.071 55.5095Z" stroke="#363636" stroke-width="0.85"/>
<path d="M116.697 54.6352C116.879 52.6262 112.702 51.0338 110.59 50.4888C109.173 51.0642 108.112 53.823 108.713 55.5852C111.299 56.1056 116.516 56.6442 116.697 54.6352Z" stroke="#363636" stroke-width="0.85"/>
<path d="M118.763 26.3634L115.111 20.4486C114.783 19.9176 114.089 19.7245 113.591 20.1008C109.68 23.0571 110.869 28.8987 112.049 31.6199L120.175 47.9666M118.763 26.3634C117.828 26.5772 116.636 27.0033 115.394 27.6779M118.763 26.3634C119.232 26.1687 120.823 25.7791 123.433 25.7785C126.044 25.7779 127.635 26.1668 128.105 26.3613M120.175 47.9666L106.488 42.2014C105.984 41.9891 105.68 41.4424 105.963 40.9743C106.394 40.2608 107.134 39.6666 107.756 39.2761C108.139 39.0363 108.401 38.6311 108.431 38.1807C108.79 32.6926 112.249 29.3874 115.394 27.6779M120.175 47.9666L121.336 50.3019M121.336 50.3019L122.382 52.4059C122.816 53.2798 124.063 53.2795 124.497 52.4054L125.542 50.3009M121.336 50.3019C121.599 50.1072 122.388 49.7178 123.439 49.7175C124.49 49.7173 125.279 50.1064 125.542 50.3009M115.394 27.6779L114.675 26.3644M135.218 30.567C135.09 30.9511 134.955 31.3033 134.82 31.6146L126.702 47.9651M135.218 30.567C136.204 27.5941 136.738 22.7131 133.273 20.0965C132.775 19.7205 132.081 19.9137 131.753 20.4448L128.105 26.3613M135.218 30.567C134.068 29.316 132.745 28.3648 131.473 27.6742M135.218 30.567C136.911 32.4106 138.226 34.905 138.442 38.1749C138.472 38.6253 138.734 39.0292 139.117 39.2689C139.739 39.6591 140.48 40.253 140.911 40.9662C141.194 41.4343 140.89 41.9811 140.386 42.1936L126.702 47.9651M128.105 26.3613C129.039 26.5746 130.232 27.0002 131.473 27.6742M126.702 47.9651L125.542 50.3009M131.473 27.6742L132.192 26.3603" stroke="#363636" stroke-width="0.85"/>
<path d="M117.188 46.4744L114.216 51.76M129.496 46.4744L132.791 51.7232M137.291 64.4351C138.507 61.427 138.209 57.9473 134.853 57.2214C133.862 57.0799 131.712 57.0941 131.033 58.2825" stroke="#363636" stroke-width="0.85"/>
<path d="M131.071 55.5095C131.2 53.4964 135.572 52.5626 137.741 52.3474C139.095 52.9762 140.499 56.6491 137.517 57.3746C134.904 57.2684 130.973 57.0481 131.071 55.5095Z" stroke="#363636" stroke-width="0.85"/>
<path d="M116.697 54.6378C116.879 52.6288 112.702 51.0364 110.59 50.4914C109.173 51.0668 108.112 53.8256 108.713 55.5878C111.299 56.1082 116.516 56.6468 116.697 54.6378Z" stroke="#363636" stroke-width="0.85"/>
</g>
<defs>
<clipPath id="clip0_10:15906">
<rect width="222" height="90" fill="white"/>
</clipPath>
</defs>
</svg>
