<svg width="222" height="90" viewBox="0 0 222 90" fill="none" xmlns="http://www.w3.org/2000/svg">
<path d="M0 70.1722H222" stroke="#E76F18" stroke-width="0.85"/>
<path d="M128.104 28.6545L124.582 22.9449C124.254 22.4139 123.559 22.2205 123.063 22.5992C119.301 25.4722 120.45 31.118 121.592 33.7515L129.47 49.6089M128.104 28.6545C127.198 28.8616 126.041 29.2746 124.837 29.9287M128.104 28.6545C128.56 28.4657 130.103 28.0881 132.635 28.0881C135.167 28.0881 136.711 28.4657 137.166 28.6545M129.47 49.6089L116.221 44.0247C115.717 43.8123 115.414 43.2651 115.701 42.7995C116.116 42.1253 116.814 41.5627 117.408 41.1884C117.789 40.9475 118.052 40.5426 118.082 40.0922C118.44 34.7823 121.79 31.5839 124.837 29.9287M129.47 49.6089L130.595 51.8743M130.595 51.8743L131.577 53.8513C132.012 54.7254 133.259 54.7254 133.693 53.8513L134.675 51.8743M130.595 51.8743C130.85 51.6855 131.616 51.3079 132.635 51.3079C133.655 51.3079 134.42 51.6855 134.675 51.8743M124.837 29.9287L124.14 28.6545M144.064 32.7354C143.94 33.1079 143.809 33.4495 143.679 33.7515L135.8 49.6089M144.064 32.7354C145.019 29.8597 145.538 25.1428 142.207 22.5993C141.711 22.2206 141.016 22.4139 140.689 22.9449L137.166 28.6545M144.064 32.7354C142.95 31.5218 141.667 30.5988 140.433 29.9287M144.064 32.7354C145.702 34.5198 146.976 36.9325 147.188 40.0932C147.219 40.5436 147.481 40.9475 147.863 41.1884C148.456 41.5627 149.154 42.1253 149.569 42.7995C149.856 43.2651 149.553 43.8123 149.049 44.0247L135.8 49.6089M137.166 28.6545C138.072 28.8616 139.229 29.2746 140.433 29.9287M135.8 49.6089L134.675 51.8743M140.433 29.9287L141.13 28.6545" stroke="#363636" stroke-width="0.85"/>
<path d="M121.951 42.6725V43.6627" stroke="#363636" stroke-width="0.85"/>
<path d="M141.773 42.6725V43.6627" stroke="#363636" stroke-width="0.85"/>
<path d="M128.104 32.7603V34.0335" stroke="#363636" stroke-width="0.85"/>
<path d="M132.633 32.7603V34.0335" stroke="#363636" stroke-width="0.85"/>
<path d="M130.371 37.0081V38.2812" stroke="#363636" stroke-width="0.85"/>
<path d="M136.883 32.7603V34.0335" stroke="#363636" stroke-width="0.85"/>
<path d="M134.616 37.0081V38.2812" stroke="#363636" stroke-width="0.85"/>
<path d="M132.633 41.2555V42.5287" stroke="#363636" stroke-width="0.85"/>
<path d="M128.93 70.1014C128 70.1014 127.139 70.1014 126.378 70.1014H128.93ZM128.93 70.1014V57.5364C127.491 56.8166 124.965 54.0025 126.378 48.5054M128.93 70.1014C130.373 70.1014 131.982 70.1014 133.642 70.1014M133.642 70.1014V58.5181M133.642 70.1014C134.032 70.1014 134.426 70.1014 134.82 70.1014M133.642 70.1014H134.82M134.82 70.1014C140.682 70.1014 146.835 70.1014 148.367 70.1014C150.621 70.1014 154.485 69.9864 156.086 66.7638M134.82 70.1014C134.886 68.6616 136.037 65.7822 140.121 65.7822C144.205 65.7822 144.309 65.7822 143.851 65.7822C142.935 65.1277 141.181 63.1906 141.495 60.6777C141.888 57.5364 145.618 58.1254 147.778 58.1254M156.086 66.7638C156.577 65.7758 156.855 64.4957 156.809 62.8373C156.774 61.5737 156.123 60.097 155.065 58.5181M156.086 66.7638C158.968 65.7822 169.766 64.6042 164.269 47.7201C163.95 46.7384 163.568 46.4007 163.434 44.9715M155.065 58.5181C155.406 57.9291 155.681 56.2407 154.06 54.1989C152.44 52.1571 152.469 47.851 152.686 45.9531C152.801 45.4733 152.935 45.0156 153.087 44.5788M155.065 58.5181C152.445 54.6069 147.321 50.0684 142.846 46.5881M153.087 44.5788C155.414 37.8675 161.786 36.1368 164.858 36.1368C163.501 40.1175 163.251 43.0299 163.434 44.9715M153.087 44.5788C154.163 45.6914 157.739 47.3274 163.434 44.9715" stroke="#363636" stroke-width="0.85"/>
<path d="M92.9888 70.1006C93.8046 70.1006 94.5599 70.1006 95.2277 70.1006H92.9888ZM92.9888 70.1006V59.0784C94.2517 58.4469 96.4677 55.9784 95.2277 51.1562M92.9888 70.1006C91.723 70.1006 90.3115 70.1006 88.8555 70.1006M88.8555 70.1006V59.9395M88.8555 70.1006C88.513 70.1006 88.1682 70.1006 87.8221 70.1006M88.8555 70.1006H87.8221M87.8221 70.1006C82.68 70.1006 77.2826 70.1006 75.9388 70.1006C73.9616 70.1006 70.5721 69.9997 69.1675 67.1728M87.8221 70.1006C87.7647 68.8377 86.7544 66.3117 83.1721 66.3117C79.5899 66.3117 79.4981 66.3117 79.8999 66.3117C80.7036 65.7377 82.2421 64.0384 81.9666 61.834C81.6221 59.0784 78.3499 59.5951 76.4555 59.5951M69.1675 67.1728C68.7369 66.3062 68.4928 65.1832 68.5333 63.7284C68.564 62.62 69.1344 61.3246 70.0625 59.9395M69.1675 67.1728C61.13 68.6331 53.5479 64.2308 52.5695 56.1506C51.6066 48.1992 57.6432 43.4188 62.1086 38.9769M70.0625 59.9395C69.7642 59.4229 69.5229 57.9418 70.9443 56.1506C72.7207 53.8725 75.5755 45.9414 72.3733 37.817M70.0625 59.9395C72.3616 56.5086 76.8559 52.5274 80.7813 49.4743M62.1086 38.9769C65.2116 35.8902 67.556 32.9671 66.266 29.257C69.2992 31.9675 71.2254 34.9047 72.3733 37.817M62.1086 38.9769C64.5494 39.5685 70.0195 40.1649 72.3733 37.817" stroke="#363636" stroke-width="0.85"/>
<path d="M89.9261 31.3952C90.7045 31.404 91.4463 31.4721 92.1518 31.5924M92.1518 31.5924C93.4161 30.4407 96.6313 28.2554 99.8784 28.183C100.27 28.1743 100.633 28.3792 100.818 28.7245C101.734 30.4322 102.842 34.1821 101.692 39.0462M92.1518 31.5924C94.3494 31.9671 96.1961 32.8483 97.7092 34.0237M101.692 39.0462C102.687 41.1261 103.134 43.2834 103.074 45.0279M101.692 39.0462C100.807 37.1955 99.4888 35.4062 97.7092 34.0237M92.43 52.812L90.7818 54.2814C90.2942 54.7161 89.5583 54.7161 89.0707 54.2815L87.4223 52.8124M92.43 52.812L104.586 46.1717C104.942 45.9774 104.985 45.6972 104.596 45.5837C103.978 45.4038 103.068 45.2182 103.074 45.0279M92.43 52.812L93.4763 43.5266C93.5495 42.8763 94.0995 42.3848 94.7539 42.3848H99.2464C100.777 42.3848 102.307 43.0803 103.074 45.0279M87.7005 31.5928C88.4061 31.4725 89.1478 31.4044 89.9263 31.3956M87.7005 31.5928C86.4363 30.4411 83.2211 28.2558 79.9739 28.1834C79.5822 28.1747 79.2192 28.3796 79.034 28.7249C78.1179 30.4326 77.0106 34.1825 78.1603 39.0466M87.7005 31.5928C85.6803 31.9373 83.9566 32.7099 82.5159 33.7455M78.1603 39.0466C77.1657 41.1265 76.7183 43.2839 76.7782 45.0283M78.1603 39.0466C79.106 37.0689 80.5464 35.1614 82.5159 33.7455M87.4223 52.8124L75.3855 46.1577C75.0326 45.9626 74.9869 45.6802 75.3732 45.5651C75.9533 45.3922 76.7846 45.2157 76.7782 45.0283M87.4223 52.8124L86.4879 43.542C86.4216 42.8852 85.8687 42.3852 85.2086 42.3852H80.606C79.0758 42.3852 77.5456 43.0807 76.7782 45.0283M97.7092 34.0237L98.1955 33.3282M82.5159 33.7455L82.0589 33.1891" stroke="#363636" stroke-width="0.85" stroke-linecap="square" stroke-linejoin="round"/>
<path d="M85.6753 35.9131V36.0149" stroke="#363636" stroke-width="0.85" stroke-linecap="square" stroke-linejoin="round"/>
<path d="M90.1262 35.9131V36.0149" stroke="#363636" stroke-width="0.85" stroke-linecap="square" stroke-linejoin="round"/>
<path d="M87.9014 38.6971V38.7989" stroke="#363636" stroke-width="0.85" stroke-linecap="square" stroke-linejoin="round"/>
<path d="M84.5049 46.4868V46.5885" stroke="#363636" stroke-width="0.85" stroke-linecap="square" stroke-linejoin="round"/>
<path d="M96.7468 46.4868V46.5885" stroke="#363636" stroke-width="0.85" stroke-linecap="square" stroke-linejoin="round"/>
<path d="M94.2998 35.9131V36.0149" stroke="#363636" stroke-width="0.85" stroke-linecap="square" stroke-linejoin="round"/>
<path d="M92.074 38.6971V38.7989" stroke="#363636" stroke-width="0.85" stroke-linecap="square" stroke-linejoin="round"/>
<path d="M90.1262 41.4779V41.5797" stroke="#363636" stroke-width="0.85" stroke-linecap="square" stroke-linejoin="round"/>
<path d="M128.906 70.0265L122.044 62.3459M117.742 57.5311C116.618 58.5348 113.801 59.9036 111.519 57.3497C109.238 54.7958 109.041 54.6363 109.075 54.6134C109.352 54.426 109.716 54.2095 110.139 53.9965M117.742 57.5311C119.09 56.3267 118.317 54.5575 115.585 53.3081C114.993 53.0378 114.338 52.9469 113.671 52.975M117.742 57.5311C118.797 56.4514 120.378 53.699 118.259 51.3278C116.141 48.9566 115.815 48.5915 115.815 48.5915C115.597 48.8527 115.334 49.1891 115.066 49.562M117.742 57.5311L120.837 60.9953M113.671 52.975C113.412 52.4864 113.813 51.537 114.377 50.6003M113.671 52.975C112.415 53.028 111.12 53.5031 110.139 53.9965M114.377 50.6003C113.73 50.4363 112.491 50.373 111.168 50.85M114.377 50.6003C114.592 50.2437 114.831 49.8888 115.066 49.562M110.139 53.9965L108.751 52.4426C109.51 51.6399 110.355 51.143 111.168 50.85M111.168 50.85C111.05 50.4924 111.349 49.3815 113.49 47.7979L115.066 49.562M120.837 60.9953L121.239 61.4455L122.044 62.3459M120.837 60.9953C120.314 60.1128 119.935 57.915 122.598 56.1834C123.908 57.0368 125.632 59.464 122.044 62.3459" stroke="#363636" stroke-width="0.85" stroke-linejoin="round"/>
</svg>
